<svg xmlns="http://www.w3.org/2000/svg" viewBox="0 0 48 48" role="img" aria-label="Instagram">
  <rect width="48" height="48" rx="10" fill="#000"/>
  <path fill="#fff" d="M15.5 10.5h17c2.8 0 5 2.2 5 5v17c0 2.8-2.2 5-5 5h-17c-2.8 0-5-2.2-5-5v-17c0-2.8 2.2-5 5-5zm0 4.2c-.4 0-.8.4-.8.8v17c0 .4.4.8.8.8h17c.4 0 .8-.4.8-.8v-17c0-.4-.4-.8-.8-.8h-17z"/>
  <path fill="#fff" d="M24 17.4a6.6 6.6 0 1 1 0 13.2 6.6 6.6 0 0 1 0-13.2zm0 4.1a2.5 2.5 0 1 0 0 5 2.5 2.5 0 0 0 0-5zM31 16.5a1.7 1.7 0 1 1 0 3.4 1.7 1.7 0 0 1 0-3.4z"/>
</svg>
