<svg xmlns="http://www.w3.org/2000/svg" viewBox="0 0 48 48" role="img" aria-label="TikTok">
  <rect width="48" height="48" rx="10" fill="#000"/>
  <path fill="#25F4EE" d="M28.2 8.5c.4 4.2 2.8 6.7 6.9 7v5.2c-2.4.1-4.5-.7-6.8-2.1v10c0 12.7-13.8 16.6-19.3 7.5-3.6-5.8-1.4-16 10.2-16.4v5.5c-.8.1-1.6.3-2.4.7-2.3 1.1-3.6 3.2-3.2 5.7.8 4.8 9.5 6.2 8.8-3.2V8.5h5.8z"/>
  <path fill="#FE2C55" d="M31 11.2c1.2 2.5 3.1 3.9 6 4.3v5.2c-2.4.1-4.5-.7-6.8-2.1v10c0 12.7-13.8 16.6-19.3 7.5-1.5-2.4-1.8-5.5-.9-8.2.5 7.6 10.6 9.8 15.1 4.9 1.4-1.5 2.1-3.5 2.1-6.1V11.2H31z"/>
  <path fill="#fff" d="M29.6 10.2c.4 4.2 2.8 6.7 6.9 7v4.3c-2.4.1-4.5-.7-6.8-2.1v10c0 12.7-13.8 16.6-19.3 7.5-3.1-5.1-1.5-13.7 8.4-14.7v4.5c-.8.1-1.6.3-2.4.7-2.3 1.1-3.6 3.2-3.2 5.7.8 4.8 9.5 6.2 8.8-3.2V10.2h7.6z"/>
</svg>
