<?xml version="1.0" encoding="UTF-8"?>
<svg version="1.1" xmlns="http://www.w3.org/2000/svg" width="1280" height="446">
<path d="M0 0 C0.86093262 0.18191895 1.72186523 0.36383789 2.60888672 0.55126953 C35.29543356 7.74990089 66.08381431 22.91838149 92 44 C92.52126465 44.41830078 93.0425293 44.83660156 93.57958984 45.26757812 C107.11679351 56.17058261 119.40767015 68.29811952 129.74121094 82.296875 C130.97069396 83.96034931 132.22216212 85.60527552 133.4765625 87.25 C167.5098516 132.59173329 181.39607012 191.63416478 174.2109375 247.58984375 C170.43368916 274.02258794 162.76825595 299.49248223 150 323 C149.47237061 323.99290039 149.47237061 323.99290039 148.93408203 325.00585938 C134.82701524 351.50812417 114.75689413 375.60756583 91 394 C90.44715332 394.42925781 89.89430664 394.85851562 89.32470703 395.30078125 C50.0960058 425.54206829 2.55907363 441.49058019 -46.875 441.375 C-47.71873169 441.37478851 -48.56246338 441.37457703 -49.4317627 441.37435913 C-71.17053832 441.32036787 -92.20254248 438.48330954 -113 432 C-113.7832666 431.75942871 -114.5665332 431.51885742 -115.37353516 431.27099609 C-156.93727509 418.26926292 -195.08178612 392.30660476 -222 358 C-222.77859375 357.04996094 -223.5571875 356.09992188 -224.359375 355.12109375 C-255.10757929 316.78376261 -270.47589365 267.95810183 -270.375 219.1875 C-270.37478851 218.24245605 -270.37457703 217.29741211 -270.37435913 216.32373047 C-270.33996534 200.88662315 -269.37390904 186.11466891 -266 171 C-265.72712158 169.73639648 -265.72712158 169.73639648 -265.44873047 168.44726562 C-261.23191008 149.4395426 -254.28360566 131.09196039 -245 114 C-244.64824707 113.33806641 -244.29649414 112.67613281 -243.93408203 111.99414062 C-234.06491718 93.45341744 -221.4237012 77.23278693 -207 62 C-206.1234375 61.06929688 -205.246875 60.13859375 -204.34375 59.1796875 C-197.4190181 52.03092016 -189.95612624 45.95127842 -182 40 C-181.15912842 39.35998047 -181.15912842 39.35998047 -180.30126953 38.70703125 C-171.38245449 31.93654392 -161.99879116 26.35191874 -152.10742188 21.11669922 C-150.23570826 20.12489917 -148.37482808 19.11271443 -146.515625 18.09765625 C-128.8261409 8.76624179 -109.50096136 3.10108909 -90 -1 C-89.16227051 -1.17934082 -88.32454102 -1.35868164 -87.46142578 -1.54345703 C-59.55332764 -7.19921369 -27.7242366 -5.89970204 0 0 Z M-109 127 C-109.04540984 138.58859208 -109.08200696 150.17712385 -109.10362434 161.76578522 C-109.1140061 167.14841552 -109.12806129 172.53098113 -109.15087891 177.91357422 C-109.17280925 183.12018966 -109.18461065 188.32674338 -109.18975449 193.53340149 C-109.19341436 195.5074409 -109.20055964 197.48147741 -109.21146011 199.45549011 C-109.34191219 224.08728793 -107.34297825 244.06149475 -89.625 262.8125 C-76.25323759 275.6788006 -60.21316405 279.64820922 -42.21875 279.31640625 C-35.69095104 279.03580482 -29.99987931 277.57017302 -24 275 C-23.1234375 274.63777344 -22.246875 274.27554688 -21.34375 273.90234375 C-5.28296087 266.59071907 4.48628547 253.54736892 11 237.54296875 C16.49089106 221.62466437 14.12413802 204.92319439 7 190 C4.88913397 186.46873814 2.54209977 183.23070468 0 180 C-0.43699219 179.38769531 -0.87398438 178.77539062 -1.32421875 178.14453125 C-10.39677491 166.2385041 -25.62026957 159.57487187 -40.0625 157.5625 C-53.00261899 156.08332142 -63.96669254 159.38001553 -75 166 C-75 153.13 -75 140.26 -75 127 C-86.22 127 -97.44 127 -109 127 Z M-221.75 175.25 C-228.81689272 182.69615351 -233.80788581 191.26324969 -237 201 C-237.22558594 201.66902344 -237.45117188 202.33804688 -237.68359375 203.02734375 C-241.84039926 217.96317596 -239.16205091 234.91238857 -231.8125 248.3125 C-221.93842053 263.9307361 -208.15892421 274.28425294 -190.12182617 278.59863281 C-177.75177815 280.93856596 -166.03676545 279.34532531 -155.4921875 272.33203125 C-153.61201259 270.95301795 -151.79689879 269.48589707 -150 268 C-150 271.3 -150 274.6 -150 278 C-139.11 278 -128.22 278 -117 278 C-116.94169624 266.91797876 -116.94169624 266.91797876 -116.90234375 255.8359375 C-116.89045159 251.30691765 -116.87648118 246.77797971 -116.84912109 242.24902344 C-116.8271706 238.59206503 -116.8153853 234.93519463 -116.81024551 231.27817535 C-116.80658915 229.89253609 -116.79945104 228.50690088 -116.78853989 227.12129974 C-116.63513008 206.80646922 -120.76829094 189.9404623 -135.08984375 174.7890625 C-160.00388143 151.27165261 -196.99580055 151.79424418 -221.75 175.25 Z M45 171 C44.08154297 171.65548828 44.08154297 171.65548828 43.14453125 172.32421875 C31.15851412 181.45772837 24.19331684 197.28772705 22.22265625 211.84765625 C21.05676553 228.35421436 25.25564491 242.65000532 35 256 C35.721875 257.03125 36.44375 258.0625 37.1875 259.125 C46.52816341 269.65226234 61.29255224 277.92711564 75.39501953 279.21948242 C93.6214313 280.06078283 109.24464216 276.90862002 123.3125 264.5625 C124.89120602 263.05849615 126.45546613 261.53907615 128 260 C128.56460938 259.45859375 129.12921875 258.9171875 129.7109375 258.359375 C137.92680447 249.75227627 141.42308841 238.30414541 144 227 C139.26812906 226.7518383 134.54007329 226.57095707 129.80322266 226.45068359 C128.19447864 226.40054176 126.58618719 226.33240057 124.97900391 226.24560547 C119.83259799 225.974742 115.05166701 225.88196677 110 227 C107.48985175 229.36217653 106.37263002 231.30896299 105.09838867 234.49267578 C102.97284719 239.34471203 98.3103807 241.86445575 93.703125 244.12890625 C86.48985548 246.45341362 77.39815454 246.14708433 70.5 243 C64.11901098 239.25648644 59.35017498 234.05052493 57 227 C55.56650134 219.37008778 55.24760912 211.7122977 59.26171875 204.83984375 C63.73923461 198.55251833 68.41020462 194.0790229 76 192 C85.25959621 191.02259818 93.35927976 191.30523098 101 197 C105.30404142 200.93774003 107.34659581 204.69319162 110 210 C121.22 210 132.44 210 144 210 C140.31576365 195.26305459 135.89414389 184.5986427 125 174 C124.48308594 173.45085937 123.96617187 172.90171875 123.43359375 172.3359375 C119.54164307 168.53544258 114.86709402 166.19711496 110.0625 163.75 C109.39404053 163.4082373 108.72558105 163.06647461 108.03686523 162.71435547 C87.06202724 152.4456642 62.96745582 156.86219728 45 171 Z " fill="#000000" transform="translate(270,4)"/>
<path d="M0 0 C0.95849854 0.03552979 1.91699707 0.07105957 2.90454102 0.10766602 C24.66393189 0.89437217 46.24780272 1.0369386 68 0 C68 2.31 68 4.62 68 7 C66.96939453 7.16435547 66.96939453 7.16435547 65.91796875 7.33203125 C65.01691406 7.49058594 64.11585938 7.64914063 63.1875 7.8125 C62.29417969 7.96332031 61.40085937 8.11414063 60.48046875 8.26953125 C57.70970096 9.08548964 56.7942071 9.78323257 55 12 C54.05472062 20.0308351 56.52182189 26.41676718 59.3125 33.875 C59.79916765 35.20672138 60.28471926 36.53885102 60.76928711 37.87133789 C62.17315405 41.7160368 63.59820822 45.55260195 65.02758789 49.38787842 C66.05368827 52.14421899 67.07517945 54.90223455 68.09570312 57.66064453 C73.6936992 72.78754882 79.34070896 87.89593897 85 103 C85.8727362 105.33007256 86.74545746 107.66015073 87.61816406 109.99023438 C92.73956795 123.66236249 97.86703988 137.33220649 103 151 C108.05213424 139.4478067 112.28157967 127.58093084 116.625 115.75 C117.77266443 112.63159867 118.92103436 109.51345774 120.06942749 106.39532471 C120.77903057 104.46776981 121.48807035 102.54000742 122.19644165 100.61199951 C122.52042938 99.73038147 122.84441711 98.84876343 123.17822266 97.94042969 C123.48447571 97.10040405 123.79072876 96.26037842 124.10626221 95.39489746 C124.68288254 93.84976131 125.28102295 92.31240638 125.90496826 90.7857666 C129.17707158 82.7027599 127.81336372 77.59211398 124.9296875 69.75390625 C124.61097687 68.86573715 124.29226624 67.97756805 123.96389771 67.06248474 C123.28732915 65.18238997 122.60622306 63.30392271 121.92089844 61.42700195 C120.89100133 58.60632437 119.87388581 55.78132132 118.859375 52.95507812 C111.68969852 28.6319 111.68969852 28.6319 96 10 C91.04689286 8.22435782 86.20092135 7.5474654 81 7 C81 4.69 81 2.38 81 0 C82.77600586 0.05329468 82.77600586 0.05329468 84.58789062 0.10766602 C112.10478743 0.91257848 139.48882413 1.00684054 167 0 C167 2.31 167 4.62 167 7 C165.85402344 7.04898438 164.70804688 7.09796875 163.52734375 7.1484375 C161.99737465 7.22352801 160.46742782 7.29907306 158.9375 7.375 C158.18533203 7.4059375 157.43316406 7.436875 156.65820312 7.46875 C151.81038719 7.72058459 147.61691957 8.49168365 143 10 C141.75167155 20.50820927 145.43974587 29.27475123 149 38.9375 C149.63649225 40.70446343 150.2714678 42.47197384 150.9050293 44.23999023 C152.57978736 48.8996126 154.27577605 53.55121014 155.97747803 58.2010498 C157.6269619 62.71618329 159.25976691 67.23733395 160.89453125 71.7578125 C163.5186716 79.00544018 166.15567136 86.24828258 168.80078125 93.48828125 C173.39516779 106.06540234 177.94866766 118.6572474 182.5 131.25 C183.25625337 133.34188292 184.01251929 135.43376131 184.76879883 137.52563477 C186.51293962 142.35027614 188.25661954 147.17508383 190 152 C193.77009705 143.10854306 196.76381779 133.96482213 199.796875 124.8046875 C200.35465349 123.12760725 200.91270348 121.45061727 201.4710083 119.77371216 C202.93698991 115.36817091 204.39937659 110.96144476 205.86096191 106.55444336 C207.32186346 102.15147905 208.78601923 97.74959748 210.25 93.34765625 C211.95129783 88.23185527 213.6519789 83.11585403 215.34925842 77.99871826 C217.72697027 70.83098688 220.1081126 63.66468689 222.52124023 56.50878906 C222.89037537 55.41172638 223.2595105 54.3146637 223.63983154 53.18435669 C224.29185087 51.24914242 224.9465933 49.31484175 225.6050415 47.38180542 C227.53456388 41.64818567 229.15281462 35.88295733 230.5625 30 C230.81516632 28.95587448 230.81516632 28.95587448 231.07293701 27.89065552 C232.2855247 22.21934802 232.07200324 17.13354793 230.1875 11.625 C227.94510328 8.55645712 225.20450613 8.03747737 221.546875 7.3671875 C220.29390625 7.20476562 219.0409375 7.04234375 217.75 6.875 C216.48671875 6.70742187 215.2234375 6.53984375 213.921875 6.3671875 C212.95765625 6.24601562 211.9934375 6.12484375 211 6 C211 4.02 211 2.04 211 0 C228.16 0 245.32 0 263 0 C263 2.31 263 4.62 263 7 C262.113125 7.37125 261.22625 7.7425 260.3125 8.125 C249.22497111 14.40095975 246.06929352 29.19429014 242.296875 40.5 C241.85784416 41.80200227 241.41831649 43.10383709 240.97833252 44.40551758 C239.80530045 47.88074576 238.63946441 51.35834735 237.47509766 54.83648682 C236.25060962 58.49005815 235.01932647 62.14133926 233.7890625 65.79296875 C227.12471098 85.58669638 220.51939143 105.40022765 213.93286133 125.2199707 C208.93362693 140.2545581 203.84168376 155.25591712 198.70458984 170.24389648 C194.39945035 182.80636133 190.16450067 195.39009889 186 208 C182.37 208 178.74 208 175 208 C171.6290692 200.08619099 168.50433133 192.1210085 165.59375 184.02734375 C164.99043854 182.36165092 164.99043854 182.36165092 164.37493896 180.66230774 C163.08077165 177.08827816 161.79033953 173.51291309 160.5 169.9375 C158.7154157 165.00322651 156.92859995 160.06976455 155.140625 155.13671875 C154.70079285 153.92283478 154.26096069 152.70895081 153.80780029 151.45828247 C151.17190182 144.19479087 148.50642804 136.94336485 145.796875 129.70703125 C145.48685547 128.87844101 145.17683594 128.04985077 144.85742188 127.19615173 C143.44805967 123.43387247 142.03199632 119.67426876 140.60742188 115.91772461 C140.11838205 114.61706517 139.62944265 113.31636796 139.140625 112.015625 C138.72329102 110.91508789 138.30595703 109.81455078 137.87597656 108.68066406 C137 106 137 106 137 103 C136.34 103 135.68 103 135 103 C134.88296722 103.69025269 134.76593445 104.38050537 134.64535522 105.0916748 C133.91689576 108.37451337 132.84833599 111.38137819 131.67431641 114.53320312 C131.43824677 115.17010071 131.20217712 115.80699829 130.95895386 116.4631958 C130.17677884 118.5705805 129.38922755 120.67591176 128.6015625 122.78125 C128.04611467 124.2739353 127.49097537 125.76673543 126.93612671 127.25964355 C125.76649354 130.40441648 124.59443192 133.5482691 123.42041016 136.69140625 C121.95063956 140.62633499 120.48472517 144.5626836 119.02042007 148.49964905 C115.36092261 158.33834266 111.68633005 168.17132973 108 178 C107.72623032 178.7301532 107.45246063 179.4603064 107.1703949 180.21258545 C105.59727313 184.40668436 104.0205916 188.59941496 102.43851852 192.79014587 C101.72598659 194.67885926 101.0158753 196.56848528 100.30581665 198.45812988 C99.88311493 199.57473999 99.46041321 200.6913501 99.02490234 201.84179688 C98.65601898 202.81918823 98.28713562 203.79657959 97.90707397 204.80358887 C97 207 97 207 96 208 C94.31391034 208.07205511 92.62499341 208.08386068 90.9375 208.0625 C90.01839844 208.05347656 89.09929687 208.04445313 88.15234375 208.03515625 C87.44207031 208.02355469 86.73179687 208.01195312 86 208 C80.54744722 194.5973868 75.38157544 181.10933704 70.39212036 167.52798462 C68.23975708 161.67102423 66.07712021 155.81786146 63.9140625 149.96484375 C63.68320765 149.34000784 63.45235279 148.71517193 63.21450233 148.0714016 C56.06649639 128.72968752 48.8037511 109.43075663 41.55113697 90.128088 C40.4608873 87.22612196 39.37111983 84.32397491 38.28129768 81.4218483 C37.47676525 79.28046794 36.67121579 77.1394721 35.86558533 74.99850464 C33.04584408 67.49808912 30.25636362 59.9876042 27.50341797 52.46240234 C26.63465813 50.09548178 25.76544767 47.72872712 24.89614677 45.36200523 C24.08722448 43.15242394 23.28592875 40.94018198 22.48487854 38.72773743 C17.04485295 21.46326396 17.04485295 21.46326396 5.1328125 9.046875 C3.44793511 8.30255166 1.72607093 7.64304603 0 7 C0 4.69 0 2.38 0 0 Z " fill="#000000" transform="translate(873,112)"/>
<path d="M0 0 C8.61459762 -0.18576179 17.22835211 -0.32770417 25.84446049 -0.41449738 C29.84584086 -0.4561653 33.84584644 -0.51263036 37.84643555 -0.60351562 C41.71098156 -0.69075591 45.5742098 -0.73833726 49.43966484 -0.75901794 C50.91057515 -0.77374503 52.38141716 -0.80250681 53.85176277 -0.84584045 C65.35886178 -1.17133532 65.35886178 -1.17133532 69.37634277 1.69607544 C71.1476564 3.70884438 72.58316013 5.72840997 74 8 C75.20631121 9.31895832 76.41984372 10.63145982 77.6484375 11.9296875 C78.25647217 12.57446045 78.86450684 13.2192334 79.4909668 13.88354492 C80.42356323 14.86931519 80.42356323 14.86931519 81.375 15.875 C86.23619178 21.03596428 91.04746458 26.23046221 95.76953125 31.51953125 C98.44558912 34.49553256 101.15736736 37.4369955 103.875 40.375 C109.14654064 46.07400799 114.39864397 51.79036268 119.64111328 57.51611328 C121.92642496 60.01164407 124.2132958 62.50574527 126.5 65 C127.41667404 65.99999325 128.3333407 66.99999324 129.25 68 C129.70375 68.495 130.1575 68.99 130.625 69.5 C143 83 155.375 96.5 167.75 110 C168.2039917 110.4952417 168.6579834 110.9904834 169.12573242 111.50073242 C170.04004618 112.49820991 170.95427181 113.49576818 171.8684082 114.4934082 C174.19534911 117.03268091 176.52392474 119.57042141 178.85546875 122.10546875 C179.32984375 122.62173828 179.80421875 123.13800781 180.29296875 123.66992188 C181.59457516 125.08637591 182.89687053 126.50219674 184.19921875 127.91796875 C186.54855918 130.48829866 188.86287887 133.08883461 191.17504883 135.69262695 C191.89227615 136.50012894 192.60950348 137.30763092 193.34846497 138.13960266 C193.89347153 138.75353378 194.43847809 139.3674649 195 140 C195.07021629 125.03095364 195.12304982 110.0619201 195.15543652 95.09274387 C195.17087684 88.14160708 195.19191177 81.19057288 195.22631836 74.23950195 C195.25951992 67.52865632 195.27686439 60.81793916 195.28463173 54.10700798 C195.29016562 51.5494208 195.30097194 48.99183931 195.31719017 46.43429756 C195.33903464 42.84612661 195.34196391 39.25839299 195.34057617 35.67016602 C195.351362 34.61783783 195.36214783 33.56550964 195.3732605 32.48129272 C195.34132062 24.82613384 194.69066838 17.94692252 189.375 12.125 C180.7517436 6.69554226 171.97072316 6.38096307 162 6 C162 4.02 162 2.04 162 0 C185.43 0 208.86 0 233 0 C233 1.98 233 3.96 233 6 C232.13117188 6.17015625 231.26234375 6.3403125 230.3671875 6.515625 C221.45790816 8.23393125 221.45790816 8.23393125 214 13 C210.66017153 18.88445969 210.85118309 26.14049063 210.84178162 32.75120544 C210.83684364 33.50039295 210.83190566 34.24958045 210.82681805 35.02147061 C210.81154277 37.51488131 210.80310968 40.00826647 210.79467773 42.50170898 C210.78509136 44.2958244 210.77508083 46.08993759 210.76467896 47.88404846 C210.73770613 52.74296885 210.71665542 57.60189888 210.69667697 62.46085238 C210.67477027 67.5430976 210.64740454 72.62531336 210.62062073 77.70753479 C210.57075709 87.32626225 210.52579483 96.94500612 210.48259836 106.56376559 C210.43317183 117.51658058 210.37827382 128.46936602 210.32291877 139.4221524 C210.2091959 161.94807401 210.10233583 184.47402398 210 207 C203.33789062 207.27539062 203.33789062 207.27539062 200.296875 204.796875 C199.45640625 203.79140625 198.6159375 202.7859375 197.75 201.75 C196.79608257 200.63888517 195.84164091 199.52822021 194.88671875 198.41796875 C194.4076709 197.84739746 193.92862305 197.27682617 193.43505859 196.68896484 C191.21639635 194.07775263 188.88964556 191.57769773 186.5625 189.0625 C185.64669116 188.06420945 184.73133123 187.06550691 183.81640625 186.06640625 C180.88431377 182.8714011 177.94273528 179.68520076 175 176.5 C169.77187921 170.84111032 164.56155911 165.16617168 159.35888672 159.48388672 C157.07357504 156.98835593 154.7867042 154.49425473 152.5 152 C151.58332596 151.00000675 150.6666593 150.00000676 149.75 149 C149.29625 148.505 148.8425 148.01 148.375 147.5 C122.25 119 122.25 119 120.87524414 117.50024414 C119.95779315 116.49940332 119.04031264 115.49858955 118.12280273 114.49780273 C115.84289449 112.01088739 113.56348707 109.52351685 111.28515625 107.03515625 C106.53392441 101.84702953 101.77391926 96.66726439 97 91.5 C91.77187921 85.84111032 86.56155911 80.16617168 81.35888672 74.48388672 C79.53228349 72.48925962 77.70465473 70.49557375 75.87695312 68.50195312 C74.50248638 67.00271209 73.12819619 65.50330935 71.75390625 64.00390625 C69.90817076 61.99031702 68.06175108 59.97735818 66.21484375 57.96484375 C65.74949219 57.45759766 65.28414062 56.95035156 64.8046875 56.42773438 C63.5353184 55.04412206 62.26571581 53.66072395 60.99609375 52.27734375 C58.26057152 49.29032555 55.5368406 46.29259954 52.81274414 43.29516602 C52.34930855 42.78530403 51.88587296 42.27544205 51.40839386 41.7501297 C50.27222087 40.50012437 49.13610472 39.25006737 48 38 C47.95312353 54.83847893 47.9179349 71.67693728 47.89637566 88.51546669 C47.88609592 96.33520321 47.87209934 104.15489901 47.84912109 111.97460938 C47.82908544 118.7962212 47.81625961 125.61780351 47.81182301 132.43944395 C47.80923272 136.04603761 47.8032147 139.65254689 47.78853989 143.25911331 C47.77222887 147.30119704 47.77202677 151.34313731 47.77294922 155.38525391 C47.76575867 156.55986679 47.75856812 157.73447968 47.75115967 158.94468689 C47.51847891 175.87710097 47.51847891 175.87710097 54 191 C61.85817926 197.0940982 72.40163975 197.20881195 82 198 C82 199.98 82 201.96 82 204 C56.59 204 31.18 204 5 204 C5 198 5 198 6 197 C9.24272146 196.40663489 12.48616078 195.85843075 15.74609375 195.36914062 C20.72236225 194.52437519 25.16798798 193.42789476 29 190 C33.21553788 182.61636441 32.46629032 173.63442676 32.48339844 165.41772461 C32.49730675 163.85303208 32.51238388 162.28834958 32.52853394 160.72367859 C32.56766237 156.49653989 32.58718954 152.26954352 32.60056591 148.0422523 C32.60939067 145.39764637 32.62171047 142.7530785 32.63507843 140.1084919 C32.67602352 131.82288975 32.70506887 123.5373756 32.7166841 115.25167936 C32.73014272 105.70593528 32.78289276 96.16147643 32.86968589 86.61612314 C32.93457999 79.2213714 32.9647987 71.82698116 32.96880746 64.43194777 C32.97194642 60.02149421 32.98955323 55.61225314 33.0432663 51.20210075 C33.09279614 47.0555746 33.09914058 42.91116901 33.07284927 38.76445198 C33.07054307 37.2471052 33.0835044 35.7296429 33.11322403 34.21258545 C33.3877413 25.84060548 33.3877413 25.84060548 30.09174347 18.37182808 C27.82041623 16.29646007 25.61076096 14.62148627 23 13 C22.169772 12.4832669 21.33954399 11.96653379 20.48415756 11.43414211 C14.06958121 7.67541346 7.30476363 6.76711468 0 6 C0 4.02 0 2.04 0 0 Z " fill="#000000" transform="translate(456,113)"/>
<path d="M0 0 C10.33105002 -0.07687782 20.65144088 0.04849647 30.98046875 0.25390625 C63.14363938 0.87951218 95.22205927 1.09180389 127.38739014 0.17797852 C136.26681272 -0.05818834 145.10393148 0 154 0 C154 15.18 154 30.36 154 46 C152.02 46 150.04 46 148 46 C147.84144531 45.01 147.68289063 44.02 147.51953125 43 C145.92458491 33.71710673 143.93890837 27.02842902 137.25 20.1875 C127.74340199 13.78882826 116.79659477 13.8481797 105.72265625 13.68359375 C104.17040344 13.65561707 104.17040344 13.65561707 102.58679199 13.6270752 C98.74544272 13.55911535 94.90396209 13.49875182 91.0625 13.4375 C82.461875 13.293125 73.86125 13.14875 65 13 C65 38.74 65 64.48 65 91 C76.075625 90.8453125 76.075625 90.8453125 87.375 90.6875 C89.6854834 90.66260498 91.9959668 90.63770996 94.37646484 90.61206055 C96.23797548 90.57973113 98.0994683 90.54635191 99.9609375 90.51171875 C100.90300049 90.50547485 101.84506348 90.49923096 102.81567383 90.49279785 C111.46395773 90.30790969 120.01787783 89.00823525 126.53125 82.87890625 C130.11100471 78.29948599 131.68690183 72.58710399 133 67 C135.31 67 137.62 67 140 67 C140 87.79 140 108.58 140 130 C137.69 130 135.38 130 133 130 C132.74605469 129.10796875 132.49210938 128.2159375 132.23046875 127.296875 C131.88628906 126.12640625 131.54210937 124.9559375 131.1875 123.75 C130.85105469 122.58984375 130.51460937 121.4296875 130.16796875 120.234375 C129.092774 117.25691261 127.94919575 115.43509841 126 113 C126 112.34 126 111.68 126 111 C123.10873032 109.51780888 120.18933736 108.18078067 117.1875 106.9375 C115.97126953 106.42509766 115.97126953 106.42509766 114.73046875 105.90234375 C108.43992702 103.8234952 101.90675686 103.81095455 95.34765625 103.68359375 C93.99745644 103.6524221 93.99745644 103.6524221 92.61997986 103.62062073 C89.76755813 103.55566163 86.91505075 103.49649172 84.0625 103.4375 C82.11913206 103.39426367 80.17577252 103.35064781 78.23242188 103.30664062 C73.48836721 103.20003585 68.74422709 103.09862005 64 103 C64.08464571 112.23233831 64.17962153 121.46449734 64.28752708 130.69659328 C64.33732121 134.98413846 64.38365175 139.27166099 64.421875 143.55932617 C64.45894234 147.70267357 64.50535833 151.84582338 64.55806351 155.98900032 C64.57649416 157.56407238 64.59164321 159.13918661 64.60334396 160.71432304 C64.20879364 174.51396888 64.20879364 174.51396888 69.125 186.9375 C74.95144331 191.11733977 81.66530341 191.30326761 88.6015625 191.265625 C89.79995255 191.26849518 89.79995255 191.26849518 91.02255249 191.27142334 C92.70497962 191.27277622 94.38741752 191.26914291 96.06982422 191.26074219 C98.59757992 191.25011528 101.12461105 191.26062388 103.65234375 191.2734375 C122.49182561 191.29042948 138.90783349 189.9218543 152.94140625 176.0859375 C157.16941474 171.50179006 160.20736624 166.55952896 163 161 C165.64 161 168.28 161 171 161 C168.82482643 169.6427823 166.04353565 178.03288318 163.12890625 186.44677734 C162.36487195 188.65426246 161.60790344 190.86408734 160.8515625 193.07421875 C160.36759933 194.47930858 159.88323949 195.88426187 159.3984375 197.2890625 C159.17239838 197.94935455 158.94635925 198.60964661 158.71347046 199.28994751 C157.1152271 203.8847729 157.1152271 203.8847729 156 205 C153.97505378 205.09676414 151.94667458 205.12186986 149.91941833 205.12025452 C148.95646012 205.12153615 148.95646012 205.12153615 147.9740482 205.12284368 C145.80745946 205.12450021 143.64094693 205.11897433 141.47436523 205.11352539 C139.92743939 205.11324353 138.38051341 205.11340123 136.83358765 205.1139679 C132.62095968 205.11425592 128.40835994 205.10835849 124.19573855 205.10139394 C119.79814212 205.09516112 115.40054511 205.09455666 111.00294495 205.09336853 C102.66959487 205.090255 94.33625785 205.08204132 86.00291353 205.07201904 C76.51818746 205.06085857 67.03346078 205.05534762 57.54872978 205.05032361 C38.03247911 205.03985873 18.5162406 205.02225887 -1 205 C-1 202.69 -1 200.38 -1 198 C0.50240234 197.94392578 0.50240234 197.94392578 2.03515625 197.88671875 C13.468369 197.73262911 13.468369 197.73262911 22.875 192 C25.07150439 188.09510331 25.13831752 184.87828034 25.17167664 180.47372437 C25.17802574 179.8078086 25.18437485 179.14189283 25.19091636 178.45579779 C25.21098998 176.21973021 25.22402364 173.98367747 25.23706055 171.74755859 C25.24991288 170.14597255 25.26316728 168.54438969 25.27679443 166.94281006 C25.3124301 162.58717658 25.34165358 158.23152257 25.36918616 153.87583113 C25.38668813 151.15320076 25.40556492 148.43058352 25.42493629 145.70796585 C25.49251655 136.20524075 25.55490903 126.70249749 25.61254883 117.19970703 C25.66636157 108.35028813 25.73146658 99.5010013 25.80188721 90.65170038 C25.86187694 83.04990558 25.91390759 75.44808291 25.95981437 67.84619009 C25.98735491 63.30807613 26.01807937 58.77003937 26.05682945 54.23200607 C26.09304299 49.95899951 26.11931081 45.68604328 26.1381073 41.41292572 C26.14664383 39.8492741 26.15865241 38.28563676 26.17449379 36.72204208 C26.81794482 23.48808536 26.81794482 23.48808536 22.1875 11.5625 C17.46820984 8.19157846 12.86601696 7.6358314 7.1875 7.375 C6.49462891 7.33632812 5.80175781 7.29765625 5.08789062 7.2578125 C3.39232985 7.16426432 1.69620288 7.08107636 0 7 C0 4.69 0 2.38 0 0 Z " fill="#000000" transform="translate(700,112)"/>
<path d="M0 0 C1.0365271 -0.00492462 1.0365271 -0.00492462 2.09399414 -0.00994873 C13.78564664 -0.02786412 24.78672086 1.30787654 36.20556641 3.81640625 C39.86720422 4.58711767 43.54582996 5.16495393 47.25 5.6875 C48.40886719 5.86023438 49.56773438 6.03296875 50.76171875 6.2109375 C53.77437675 6.59337906 53.77437675 6.59337906 56.5625 4.3125 C59.2025 4.3125 61.8425 4.3125 64.5625 4.3125 C64.5625 18.8325 64.5625 33.3525 64.5625 48.3125 C62.5825 48.3125 60.6025 48.3125 58.5625 48.3125 C58.27117187 47.47847656 57.97984375 46.64445312 57.6796875 45.78515625 C52.68138329 32.06339657 46.72932398 23.19853693 33.4375 16.5625 C17.14788407 9.66898935 -0.71738514 9.36426185 -17.296875 15.34375 C-24.13473851 18.41042818 -29.24427938 22.76156722 -32.53125 29.58203125 C-35.47932579 37.59370017 -34.92393959 44.58847734 -31.4375 52.3125 C-25.51881661 61.2802021 -15.09087271 66.29959186 -5.75 71.0625 C-4.76249756 71.57345215 -3.77499512 72.0844043 -2.75756836 72.61083984 C4.25632861 76.21240574 11.35998262 79.59512331 18.5 82.9375 C31.86712457 89.22691792 44.46133429 96.47283039 55.5625 106.3125 C56.34109375 106.99699219 57.1196875 107.68148437 57.921875 108.38671875 C67.64636552 117.47487516 74.32335237 129.18111025 74.99609375 142.64453125 C75.01912878 144.4712094 75.01996409 146.29828571 75 148.125 C74.99387695 149.0855127 74.98775391 150.04602539 74.98144531 151.03564453 C74.81249516 158.74886892 73.63318609 165.17955211 70.5625 172.3125 C70.129375 173.40498047 70.129375 173.40498047 69.6875 174.51953125 C62.99279966 189.67226817 49.32915889 199.05894726 34.5625 205.3125 C12.46755341 213.52138641 -10.63341347 211.98039136 -33.36669922 207.69824219 C-40.33216725 206.41345494 -47.35363582 205.24557825 -54.4375 206.3125 C-55.4275 207.3025 -55.4275 207.3025 -56.4375 208.3125 C-59.12589385 208.58241906 -61.72891936 208.39987357 -64.4375 208.3125 C-65.74839929 202.10339707 -67.04723571 195.89185987 -68.33764648 189.6784668 C-68.7782177 187.56427709 -69.2215652 185.45066397 -69.66772461 183.33764648 C-70.30790246 180.30338862 -70.93812437 177.26720908 -71.56640625 174.23046875 C-71.76843155 173.28350632 -71.97045685 172.33654388 -72.17860413 171.36088562 C-72.35886642 170.48019913 -72.53912872 169.59951263 -72.72485352 168.69213867 C-72.88695816 167.91714523 -73.04906281 167.14215179 -73.21607971 166.34367371 C-73.4375 164.3125 -73.4375 164.3125 -72.4375 161.3125 C-70.7875 160.9825 -69.1375 160.6525 -67.4375 160.3125 C-66.89222656 161.36308594 -66.34695313 162.41367187 -65.78515625 163.49609375 C-57.26467807 179.5230712 -46.75849838 190.13936104 -29.05615234 195.73999023 C-10.78241491 201.16840603 9.41972218 201.57886639 26.5625 192.3125 C35.52741545 187.37264863 41.44042542 179.6433031 44.25 169.9375 C45.2649476 161.41194015 44.84686534 154.02964217 39.81640625 146.8046875 C27.54570072 132.07984087 6.78098257 124.46692246 -9.98828125 116.00390625 C-21.45565777 110.18466609 -32.39338156 104.38141523 -42.4375 96.3125 C-43.26894531 95.673125 -44.10039063 95.03375 -44.95703125 94.375 C-55.22662017 85.97738044 -62.89695787 74.14207853 -64.9609375 60.97265625 C-66.51856519 45.30984445 -63.11883367 31.46419332 -53.375 19 C-39.14370689 4.26270536 -19.72924154 0.07627584 0 0 Z " fill="#000000" transform="translate(1205.4375,108.6875)"/>
<path d="M0 0 C6.51145122 5.13170133 10.30228587 10.940236 11.390625 19.21875 C11.75929658 28.84301862 10.23406411 35.53787637 3.96484375 42.875 C-2.10953979 48.89485586 -8.42616466 51.4238796 -16.94921875 51.6796875 C-24.53785494 51.28083802 -30.15557017 49.19112105 -35.8359375 44.15625 C-36.5784375 43.310625 -37.3209375 42.465 -38.0859375 41.59375 C-38.8078125 40.789375 -39.5296875 39.985 -40.2734375 39.15625 C-45.23435443 32.14253986 -44.89847983 23.83891642 -44.0859375 15.59375 C-41.75742702 7.40605734 -36.46164532 1.79629934 -29.25 -2.5 C-19.98152825 -6.72360738 -8.33239572 -5.61734543 0 0 Z " fill="#000000" transform="translate(239.0859375,199.40625)"/>
<path d="M0 0 C5.46404118 4.10546833 10.7918321 9.73034975 12.15234375 16.6171875 C13.09714266 25.91655654 12.90953991 33.95483222 7.15234375 41.6171875 C1.90797485 47.39915907 -3.44246014 51.16962762 -11.26953125 51.96484375 C-20.7621625 52.33654317 -27.75908271 51.23262991 -34.90625 44.75 C-42.07337921 37.09115507 -43.50006071 30.73742573 -43.25390625 20.34765625 C-42.44027708 12.87634989 -39.40948425 7.76745845 -33.97265625 2.6796875 C-24.14161792 -5.02522979 -11.09263149 -6.53376297 0 0 Z " fill="#000000" transform="translate(106.84765625,198.3828125)"/>
</svg>
