<?xml version="1.0" encoding="UTF-8"?>
<svg version="1.1" xmlns="http://www.w3.org/2000/svg" width="522" height="96">
<path d="M0 0 C172.26 0 344.52 0 522 0 C522 31.68 522 63.36 522 96 C349.74 96 177.48 96 0 96 C0 64.32 0 32.64 0 0 Z " fill="#FCFCFC" transform="translate(0,0)"/>
<path d="M0 0 C6.744375 -0.04125 13.48875 -0.0825 20.4375 -0.125 C22.54825928 -0.14320801 24.65901855 -0.16141602 26.83374023 -0.18017578 C28.53368883 -0.18602486 30.23364026 -0.19111943 31.93359375 -0.1953125 C33.2248114 -0.2106604 33.2248114 -0.2106604 34.54211426 -0.22631836 C43.39534002 -0.22883098 51.34469986 0.70640095 58 7 C61.95882649 12.41039621 62.96898647 18.41089203 62 25 C60.73808407 28.00840759 59.277658 30.65041596 57 33 C54.828125 33.71875 54.828125 33.71875 53 34 C53 34.66 53 35.32 53 36 C53.9075 36.226875 54.815 36.45375 55.75 36.6875 C60.20459982 38.486473 62.02388454 40.97729142 64.08203125 45.2421875 C66.07178166 51.21990574 66.25413644 58.61590456 64.0546875 64.55078125 C60.25789258 70.8907124 55.51631288 74.13176553 48.58450317 76.37149048 C44.08773716 77.46503151 39.66314872 77.36758005 35.05859375 77.29296875 C34.16338013 77.28994751 33.2681665 77.28692627 32.3458252 77.28381348 C29.04293067 77.26827011 25.74020216 77.22638771 22.4375 77.1875 C15.033125 77.125625 7.62875 77.06375 0 77 C0 51.59 0 26.18 0 0 Z " fill="#010101" transform="translate(0,0)"/>
<path d="M0 0 C4.06326097 2.04340805 6.88210417 4.70393869 10 8 C10.721875 7.236875 11.44375 6.47375 12.1875 5.6875 C16.77483999 1.30404179 19.96907233 -0.42989201 26.375 -0.4375 C32.20910434 -0.28587921 35.45830515 0.3279914 40 4 C43.73021811 8.71185445 45.13135652 12.38963422 45.11352539 18.30957031 C45.11341209 19.5704245 45.11341209 19.5704245 45.11329651 20.85675049 C45.10813522 21.75480408 45.10297394 22.65285767 45.09765625 23.578125 C45.0962413 24.5046991 45.09482635 25.43127319 45.09336853 26.38592529 C45.08777824 29.34064992 45.0752275 32.29529833 45.0625 35.25 C45.05748375 37.25520724 45.05292106 39.26041567 45.04882812 41.265625 C45.03866357 46.17713621 45.01908621 51.08848294 45 56 C38.73 56 32.46 56 26 56 C25.95101562 53.43605469 25.90203125 50.87210938 25.8515625 48.23046875 C25.79755781 45.74823146 25.74024835 43.26609097 25.68261719 40.78393555 C25.64432655 39.05842292 25.60947379 37.33283044 25.578125 35.60717773 C25.53247596 33.12715105 25.47448219 30.64767409 25.4140625 28.16796875 C25.40251129 27.39599655 25.39096008 26.62402435 25.37905884 25.82865906 C25.27478727 22.04753326 25.1465411 20.21981165 23 17 C19.54230809 16.41657647 19.54230809 16.41657647 16 17 C13.28855392 19.44480423 12.99884563 21.00979032 12.56762695 24.66699219 C12.5263778 26.12660994 12.5008061 27.58672823 12.48828125 29.046875 C12.47033005 29.81807678 12.45237885 30.58927856 12.43388367 31.3838501 C12.37984231 33.83917832 12.3459058 36.29431286 12.3125 38.75 C12.27932136 40.41799566 12.24483118 42.08596579 12.20898438 43.75390625 C12.12165676 47.83596438 12.0615399 51.91714611 12 56 C5.73 56 -0.54 56 -7 56 C-7.06058594 53.51984375 -7.12117188 51.0396875 -7.18359375 48.484375 C-7.24542939 46.07825817 -7.3087979 43.67218625 -7.37231445 41.26611328 C-7.41558489 39.59590666 -7.45726549 37.92565806 -7.49731445 36.25537109 C-7.55520851 33.85241045 -7.6188474 31.44965959 -7.68359375 29.046875 C-7.70030624 28.30193787 -7.71701874 27.55700073 -7.73423767 26.78948975 C-7.83309323 23.31794012 -8.15166747 20.39333013 -9 17 C-12.3 17 -15.6 17 -19 17 C-20.24473532 20.73420597 -20.23209785 24.27365238 -20.31640625 28.16796875 C-20.33718735 28.96278152 -20.35796844 29.7575943 -20.37937927 30.57649231 C-20.44472087 33.11340763 -20.50368808 35.65042573 -20.5625 38.1875 C-20.60569986 39.90821372 -20.64931463 41.62891708 -20.69335938 43.34960938 C-20.80116677 47.56630247 -20.9003542 51.78307451 -21 56 C-27.6 56 -34.2 56 -41 56 C-41 37.85 -41 19.7 -41 1 C-35.06 1 -29.12 1 -23 1 C-22.67 3.31 -22.34 5.62 -22 8 C-21.46375 7.236875 -20.9275 6.47375 -20.375 5.6875 C-14.82110968 -0.59716537 -8.00162575 -1.09847352 0 0 Z " fill="#020202" transform="translate(256,21)"/>
<path d="M0 0 C6.6 0 13.2 0 20 0 C20.33 8.58 20.66 17.16 21 26 C22.65 24.68 24.3 23.36 26 22 C32.09452457 19.96849181 39.33294851 20.17563863 45.4375 22.0625 C52.63153429 27.50189178 56.53045 34.09166595 58 43 C58.72383839 53.62093641 57.9337566 63.48138475 51 72 C46.15771275 76.8021578 41.92314636 79.0566578 35.125 79.375 C29.1306548 79.25886515 25.52192248 77.27786547 21.0625 73.25 C20.711875 72.8375 20.36125 72.425 20 72 C19.67 73.65 19.34 75.3 19 77 C12.73 77 6.46 77 0 77 C0 51.59 0 26.18 0 0 Z " fill="#050505" transform="translate(307,0)"/>
<path d="M0 0 C2.79543013 1.79071563 3.79095524 3.04083448 4.84765625 6.2109375 C5.50765625 6.2109375 6.16765625 6.2109375 6.84765625 6.2109375 C6.84765625 4.2309375 6.84765625 2.2509375 6.84765625 0.2109375 C12.78765625 0.2109375 18.72765625 0.2109375 24.84765625 0.2109375 C24.92216592 7.4334084 24.9764286 14.65565237 25.01245117 21.87841797 C25.02747849 24.33223369 25.04790605 26.78602283 25.07397461 29.23974609 C25.11062445 32.77968942 25.1274438 36.31927564 25.140625 39.859375 C25.15610886 40.94519867 25.17159271 42.03102234 25.18754578 43.14974976 C25.18948166 52.03767456 24.21183268 61.07974132 17.7421875 67.73828125 C9.12804217 74.43422514 -1.80460932 74.05945172 -12.15234375 73.2109375 C-17.91272685 72.10968779 -22.06732462 69.29595663 -26.15234375 65.2109375 C-28.47005665 61.42533976 -29.15234375 59.696739 -29.15234375 55.2109375 C-26.23468484 55.10287606 -23.3210325 55.02360873 -20.40234375 54.9609375 C-19.16484375 54.91066406 -19.16484375 54.91066406 -17.90234375 54.859375 C-11.68250508 54.75905502 -11.68250508 54.75905502 -8.82421875 57.1953125 C-8.2725 57.86046875 -7.72078125 58.525625 -7.15234375 59.2109375 C-4.40442962 59.94085219 -1.93222654 59.75779969 0.84765625 59.2109375 C3.51432292 57.87760417 3.51432292 57.87760417 4.84765625 55.2109375 C5.16350538 52.45252176 5.03392195 50.00492296 4.84765625 47.2109375 C4.08453125 47.8503125 3.32140625 48.4896875 2.53515625 49.1484375 C-2.75148561 53.20562777 -8.73701339 52.93459327 -15.15234375 52.2109375 C-21.77186287 49.64200979 -25.64006649 45.07346232 -28.90234375 38.8984375 C-31.4571016 31.52894369 -31.49013028 20.9511761 -28.90234375 13.5859375 C-22.9033995 2.01654501 -13.55088381 -4.96783762 0 0 Z " fill="#020202" transform="translate(497.15234375,21.7890625)"/>
<path d="M0 0 C6.08317111 6.256976 9.43811889 13.60258075 9.625 22.375 C9.46731687 31.00815137 6.82749037 38.72097476 1.0625 45.25 C-5.97034801 51.44921301 -14.60099816 52.96412019 -23.73828125 52.62890625 C-31.85141304 51.62893956 -38.52042569 47.41641702 -43.8125 41.25 C-49.05209366 33.41604443 -49.96912318 25.49227598 -48.8125 16.25 C-47.02722305 9.19435758 -43.85686538 2.91725172 -37.6328125 -1.1875 C-25.32362733 -8.29050521 -12.00304417 -7.46856082 0 0 Z " fill="#040404" transform="translate(141.8125,26.75)"/>
<path d="M0 0 C7.54363987 7.97470501 8.6343998 16.30163219 8.46484375 26.8046875 C8.24961446 32.01944686 7.17178901 35.99362212 4.1875 40.3125 C3.75179687 40.95445313 3.31609375 41.59640625 2.8671875 42.2578125 C-1.37582815 47.79923731 -6.97661317 50.9801869 -13.8125 52.3125 C-24.46024157 53.18199429 -31.73796109 51.7544609 -40.125 45.125 C-45.25399368 40.39447396 -48.45473167 33.49428396 -49.05078125 26.52734375 C-49.26130771 17.23093843 -47.74794411 10.75760108 -42.625 3 C-30.47692762 -8.60815806 -13.93875518 -8.36325311 0 0 Z " fill="#030303" transform="translate(201.8125,26.6875)"/>
<path d="M0 0 C7.85834615 5.68574457 12.21891793 12.92174854 13.9921875 22.44140625 C13.9921875 25.41140625 13.9921875 28.38140625 13.9921875 31.44140625 C1.7821875 31.44140625 -10.4278125 31.44140625 -23.0078125 31.44140625 C-22.3478125 34.08140625 -21.6878125 36.72140625 -21.0078125 39.44140625 C-17.38078224 40.65041634 -13.76763887 41.228011 -10.0078125 40.44140625 C-9.46511719 39.78011719 -8.92242187 39.11882813 -8.36328125 38.4375 C-4.67361975 35.31077193 -0.92485657 36.0121697 3.7421875 36.19140625 C4.63035156 36.20945313 5.51851563 36.2275 6.43359375 36.24609375 C8.62089598 36.29313251 10.80598566 36.35883616 12.9921875 36.44140625 C12.5294737 37.71999724 12.06249959 38.99704696 11.59375 40.2734375 C11.33416504 40.9847583 11.07458008 41.6960791 10.80712891 42.42895508 C8.22638572 48.80195272 3.05263541 51.78421155 -3.0078125 54.44140625 C-12.33468083 56.82560571 -21.60246074 56.22424951 -30.0078125 51.44140625 C-37.21090539 46.63103626 -40.31360436 41.08876673 -42.7578125 32.94140625 C-43.79260287 22.59350256 -42.48183145 13.48748571 -35.75390625 5.19921875 C-26.85099856 -3.76344 -11.2169689 -6.07409448 0 0 Z " fill="#030303" transform="translate(410.0078125,23.55859375)"/>
<path d="M0 0 C6.6 0 13.2 0 20 0 C20 25.41 20 50.82 20 77 C13.4 77 6.8 77 0 77 C0 51.59 0 26.18 0 0 Z " fill="#000000" transform="translate(69,0)"/>
<path d="M0 0 C0 5.61 0 11.22 0 17 C-1.546875 17.0825 -3.09375 17.165 -4.6875 17.25 C-9.26009045 17.70919932 -11.80654871 18.50716265 -15 22 C-17.30253849 25.56581483 -17.30763462 28.76696171 -17.4140625 32.953125 C-17.43342865 33.61334656 -17.4527948 34.27356812 -17.4727478 34.95379639 C-17.53229349 37.05240153 -17.57882722 39.15106228 -17.625 41.25 C-17.66320294 42.6771066 -17.70225602 44.10419072 -17.7421875 45.53125 C-17.83956786 49.02071305 -17.91932976 52.50995085 -18 56 C-24.6 56 -31.2 56 -38 56 C-38 37.85 -38 19.7 -38 1 C-31.73 1 -25.46 1 -19 1 C-18.67 3.64 -18.34 6.28 -18 9 C-17.61328125 8.51789062 -17.2265625 8.03578125 -16.828125 7.5390625 C-16.30734375 6.90742188 -15.7865625 6.27578125 -15.25 5.625 C-14.73953125 4.99851562 -14.2290625 4.37203125 -13.703125 3.7265625 C-9.24803328 -0.78983782 -6.92058806 0 0 0 Z " fill="#050505" transform="translate(465,21)"/>
<path d="M0 0 C5.04748994 5.04748994 6.17885093 8.70911963 6.375 15.6875 C6.32368539 21.19526827 5.93647374 25.18495379 2.55859375 29.625 C1 31 1 31 -2.5 32.3125 C-6 32 -6 32 -8.875 29.75 C-12.34383647 25.26091751 -12.2429103 21.14797209 -12.3125 15.6875 C-12.34150391 14.94048828 -12.37050781 14.19347656 -12.40039062 13.42382812 C-12.46062802 8.14610595 -11.49699666 5.18471771 -8 1 C-5.074084 -0.462958 -3.24382653 -0.44523109 0 0 Z " fill="#F5F5F5" transform="translate(185,34)"/>
<path d="M0 0 C4.88674711 4.88674711 6.1618428 8.4237846 6.3125 15.1875 C6.27154075 21.30408102 5.36117251 24.91022449 2 30 C-1.24826674 32.16551116 -2.23094157 32.55156953 -6 32 C-8.88794657 29.68964274 -10.68696357 27.4375632 -12 24 C-12.2446335 21.16111358 -12.3701245 18.46254244 -12.375 15.625 C-12.39949219 14.8825 -12.42398438 14.14 -12.44921875 13.375 C-12.47701808 8.13019282 -11.46256407 5.15765129 -8 1 C-5.074084 -0.462958 -3.24382653 -0.44523109 0 0 Z " fill="#F6F6F6" transform="translate(125,34)"/>
<path d="M0 0 C3.76912144 3.47918903 4.81185959 6.60482789 5.203125 11.5859375 C5.31513158 18.25032898 4.56628638 22.3338766 0.6875 27.875 C-1.98773553 29.65849035 -3.86427568 29.4390014 -7 29 C-10.1648881 27.12983885 -11.6680703 25.66385941 -13.3125 22.375 C-14.82024201 14.9733574 -14.74292678 8.65409205 -11 2 C-7.34307497 -0.43795002 -4.25319464 -0.84892393 0 0 Z " fill="#F8F8F8" transform="translate(340,35)"/>
<path d="M0 0 C4.84615484 1.03846175 5.78321665 2.67482498 8.5 6.75 C10.25041553 12.00124658 10.01760245 16.17080087 7.625 21.125 C5.81853786 24.59073107 5.81853786 24.59073107 3.5 25.75 C-0.92005359 26.33378066 -2.81555454 26.25969342 -6.4375 23.5625 C-9.94939436 18.67384972 -9.38640064 12.4359358 -8.5 6.75 C-6.77071706 2.50678152 -4.52939269 0.97058415 0 0 Z " fill="#F6F6F6" transform="translate(494.5,34.25)"/>
<path d="M0 0 C2.72977064 -0.08126109 5.4571017 -0.14061663 8.1875 -0.1875 C9.34088867 -0.22520508 9.34088867 -0.22520508 10.51757812 -0.26367188 C15.2172263 -0.32418237 18.13604564 0.02137887 22 3 C23.87643761 4.87643761 23.17984987 7.49805701 23.23046875 9.9921875 C23 12 23 12 21 15 C18.23434618 15.92188461 16.61716298 16.11785222 13.76953125 16.09765625 C12.96708984 16.09443359 12.16464844 16.09121094 11.33789062 16.08789062 C10.50451172 16.07951172 9.67113281 16.07113281 8.8125 16.0625 C7.96751953 16.05798828 7.12253906 16.05347656 6.25195312 16.04882812 C4.16793845 16.03705403 2.08396023 16.0191189 0 16 C0 10.72 0 5.44 0 0 Z " fill="#F7F7F7" transform="translate(21,44)"/>
<path d="M0 0 C2.77109307 -0.05392397 5.54113818 -0.09363455 8.3125 -0.125 C9.09818359 -0.14175781 9.88386719 -0.15851562 10.69335938 -0.17578125 C11.45068359 -0.18222656 12.20800781 -0.18867188 12.98828125 -0.1953125 C13.68477783 -0.20578613 14.38127441 -0.21625977 15.09887695 -0.22705078 C17 0 17 0 20 2 C20.68029361 9.14308293 20.68029361 9.14308293 18.72583008 11.60498047 C16.62194407 13.30558942 15.65882919 13.35320667 12.98828125 13.29296875 C12.23095703 13.28330078 11.47363281 13.27363281 10.69335938 13.26367188 C9.51483398 13.2259668 9.51483398 13.2259668 8.3125 13.1875 C7.11657227 13.16719727 7.11657227 13.16719727 5.89648438 13.14648438 C3.93070033 13.11117089 1.96526418 13.05736447 0 13 C0 8.71 0 4.42 0 0 Z " fill="#FAFAFA" transform="translate(21,17)"/>
<path d="M0 0 C0.33 0 0.66 0 1 0 C1 7.26 1 14.52 1 22 C-9.89 22 -20.78 22 -32 22 C-32 21.67 -32 21.34 -32 21 C-31.18917969 20.97421875 -30.37835938 20.9484375 -29.54296875 20.921875 C-20.47926207 20.45761063 -12.0344924 19.53018085 -5 13.375 C-2.46198386 9.09209777 -1.17056265 4.81548536 0 0 Z " fill="#F0F0F0" transform="translate(521,74)"/>
<path d="M0 0 C3 2.1875 3 2.1875 5 5 C5 6.65 5 8.3 5 10 C-0.94 10 -6.88 10 -13 10 C-10.6296747 1.70386145 -9.20344881 -1.91589304 0 0 Z " fill="#F2F2F2" transform="translate(399,34)"/>
</svg>
