<?xml version="1.0" encoding="UTF-8"?>
<svg version="1.1" xmlns="http://www.w3.org/2000/svg" width="1280" height="609">
<path d="M0 0 C2.65756055 0.0037414 5.31511022 0.00668176 7.97267151 0.00857544 C14.18390113 0.01471455 20.39505769 0.03101914 26.60625559 0.05127442 C34.39439059 0.07610383 42.18253824 0.08683179 49.97070312 0.09765625 C63.81516062 0.11695848 77.65945944 0.15705056 91.50390625 0.1953125 C91.50390625 24.6153125 91.50390625 49.0353125 91.50390625 74.1953125 C82.95226562 74.24429688 74.400625 74.29328125 65.58984375 74.34375 C59.4342625 74.38370677 53.27869771 74.42483746 47.12313652 74.46764374 C39.17797943 74.52274083 31.23283601 74.57519879 23.28759766 74.6171875 C16.99029852 74.65047623 10.69308141 74.6904998 4.39587367 74.73810256 C1.07186105 74.76300815 -2.25204805 74.78388095 -5.57612991 74.79865646 C-25.58458534 74.89066812 -45.56249422 75.38027047 -65.24609375 79.3203125 C-66.31553223 79.53204102 -67.3849707 79.74376953 -68.48681641 79.96191406 C-124.243454 91.53481417 -172.56297225 122.90112993 -204.49609375 170.1953125 C-208.47669781 176.35764255 -212.06630005 182.71276837 -215.49609375 189.1953125 C-215.92374023 190.00129883 -216.35138672 190.80728516 -216.79199219 191.63769531 C-230.30800697 217.5340113 -238.53676104 246.15255893 -241.49609375 275.1953125 C-241.60695313 276.15953125 -241.7178125 277.12375 -241.83203125 278.1171875 C-247.46832274 335.69876005 -231.30596245 397.35471206 -194.73828125 442.66796875 C-192.49646301 445.37891192 -190.19507439 448.03262224 -187.85791016 450.66162109 C-186.51017087 452.1794587 -185.18076333 453.71202165 -183.8515625 455.24609375 C-145.06341005 499.41633434 -85.89012962 520.06323231 -28.58041573 523.98915672 C-20.73902733 524.43085505 -12.88014512 524.36091677 -5.02905273 524.37231445 C-3.10721722 524.37859433 -1.18538288 524.38524242 0.7364502 524.39222717 C6.99356268 524.41306995 13.25067489 524.42360344 19.5078125 524.43359375 C21.67382252 524.43764722 23.83983243 524.4417643 26.00584221 524.44594383 C36.17676512 524.46494344 46.34768097 524.47919134 56.51861817 524.4875558 C68.21962769 524.49734137 79.92044873 524.5237174 91.62139183 524.56405669 C100.69781224 524.59426549 109.77417866 524.60902875 118.85064834 524.61233681 C124.25842868 524.61467956 129.6660064 524.62354091 135.07373238 524.64879799 C140.15876302 524.67217086 145.2434588 524.67627503 150.32852936 524.66603661 C152.18559576 524.66554356 154.04267923 524.67179501 155.89969444 524.68559265 C171.32415088 524.79371677 185.02633719 523.31747272 196.69140625 512.08984375 C207.44238916 500.6076359 208.80637112 489.14838333 208.75546265 473.93676758 C208.75760282 472.37638872 208.76062944 470.81601088 208.76446307 469.25563526 C208.77248639 464.97933075 208.76820427 460.70311396 208.76194429 456.42680979 C208.75740463 451.81052399 208.76445371 447.19425475 208.77024841 442.57797241 C208.77887582 434.58195397 208.78069091 426.58595765 208.77830124 418.5899353 C208.77520262 407.02035457 208.78684564 395.45082273 208.80285104 383.88125432 C208.82880611 365.09824944 208.84882903 346.31524452 208.86230469 327.53222656 C208.86311506 326.40839667 208.86392543 325.28456679 208.86476035 324.12668145 C208.87598572 308.17243546 208.88126401 292.21819296 208.88414748 276.26394355 C208.88435147 275.14011366 208.88455546 274.01628378 208.88476562 272.85839844 C208.88506553 271.17470946 208.88506553 271.17470946 208.88537149 269.45700657 C208.88910357 250.74368277 208.9081817 232.03041205 208.93985999 213.31711483 C208.95877984 201.77594816 208.96473284 190.23491757 208.95404281 178.69373965 C208.94772703 170.7874657 208.95575486 162.88128939 208.97509693 154.97503686 C208.98578589 150.41301036 208.98991848 145.85122097 208.97662544 141.28919601 C208.96457555 137.11191421 208.9709242 132.93507702 208.99181743 128.75783384 C208.9961201 127.24785016 208.99368418 125.73782884 208.98377626 124.22787154 C208.88430361 107.87984932 208.88430361 107.87984932 215.44921875 101.22265625 C219.34617701 99.27417712 223.27086861 99.61746927 227.50390625 100.1953125 C236.7565601 104.28783247 241.81841166 116.86088633 246.87890625 125.1328125 C247.57980497 126.27534553 248.28089976 127.41775831 248.98217773 128.56005859 C250.4350574 130.92707437 251.88710706 133.29459575 253.33837891 135.66259766 C262.44965508 150.52825673 271.59375903 165.37175439 280.85302734 180.14575195 C285.50493085 187.57596051 290.10577818 195.03655156 294.69140625 202.5078125 C299.24964395 209.93346933 303.83286495 217.34005819 308.50390625 224.6953125 C313.17494846 232.05056824 317.75807794 239.45721015 322.31640625 246.8828125 C329.97816364 259.36290121 337.72703628 271.78672061 345.50390625 284.1953125 C353.28077722 296.60390599 361.02949753 309.02781556 368.69140625 321.5078125 C374.21804488 330.50860277 379.80626341 339.46597473 385.4609375 348.38671875 C394.31409608 362.35879286 403.0368659 376.4120359 411.69140625 390.5078125 C416.74292318 398.73474139 421.83339027 406.93348709 427.00341797 415.08642578 C432.91075515 424.40283428 438.74378914 433.76555881 444.58496094 443.12353516 C446.46438632 446.13205044 448.34687821 449.13862229 450.23046875 452.14453125 C455.75463385 460.96429695 461.26608985 469.79040326 466.69882202 478.66685486 C482.32857379 507.88024202 482.32857379 507.88024202 509.140625 524.84375 C518.38539664 526.21900529 526.63129949 524.59189824 534.25390625 519.0703125 C543.03654974 511.68420243 546.89189937 502.33496114 548.50390625 491.1953125 C548.59190195 488.97980492 548.63045207 486.7620254 548.6313982 484.54477119 C548.63304203 483.8986629 548.63468587 483.25255461 548.63637951 482.58686727 C548.64068627 480.42500582 548.63792193 478.26321206 548.63520813 476.10134888 C548.63691095 474.53444742 548.63906094 472.96754639 548.64161938 471.40064609 C548.64621189 467.99545535 548.64763813 464.59028277 548.64665413 461.18508911 C548.64506001 455.64445279 548.65026632 450.10383446 548.65628052 444.5632019 C548.66439056 436.51913585 548.66933629 428.47507296 548.67257118 420.43100357 C548.67806955 407.71724361 548.69496837 395.00351045 548.71391296 382.2897644 C548.72026953 377.9397984 548.72657797 373.58983233 548.73289013 369.23986626 C548.73447389 368.15279162 548.73605765 367.06571698 548.73768941 365.94570068 C548.75562351 353.57334014 548.77185167 341.20097771 548.78686523 328.82861328 C548.78824111 327.69767116 548.78961698 326.56672904 548.79103454 325.40151595 C548.81297176 307.06823419 548.8237228 288.73495934 548.83123598 270.40166678 C548.83930492 251.57992063 548.86258691 232.75823373 548.89918965 213.93652141 C548.92122153 202.32639888 548.93087719 190.71639813 548.92468932 179.10625575 C548.9215165 171.1513663 548.9328331 163.19658092 548.95558373 155.24172367 C548.96825956 150.65136261 548.97441157 146.0612334 548.96316719 141.47086334 C548.95300324 137.26758907 548.96123844 133.06476505 548.98403015 128.861544 C548.98902661 127.34208251 548.98729236 125.82258063 548.97809748 124.30313875 C548.88652378 107.87759793 548.88652378 107.87759793 555.44921875 101.22265625 C557.90740996 99.99356064 559.6344848 99.7620873 562.37890625 99.7578125 C563.20132813 99.73847656 564.02375 99.71914062 564.87109375 99.69921875 C569.62969553 100.59586923 572.31506516 102.61013261 575.15966797 106.40307617 C577.01316321 109.23227531 578.76858644 112.10462978 580.50390625 115.0078125 C581.15617188 116.07515625 581.8084375 117.1425 582.48046875 118.2421875 C584.50033703 121.55274382 586.50289335 124.87333391 588.50390625 128.1953125 C589.69018005 130.14788091 590.87762848 132.09973631 592.06640625 134.05078125 C593.79209524 136.88343302 595.51682689 139.71661754 597.23681641 142.55273438 C602.00547927 150.4101447 606.86751962 158.20663578 611.7512207 165.99291992 C616.43891386 173.47299781 621.0743024 180.98398943 625.69140625 188.5078125 C630.24958093 195.9335073 634.83286556 203.34005916 639.50390625 210.6953125 C644.17494846 218.05056824 648.75807794 225.45721015 653.31640625 232.8828125 C660.97816364 245.36290121 668.72703628 257.78672061 676.50390625 270.1953125 C684.28077722 282.60390599 692.02949753 295.02781556 699.69140625 307.5078125 C705.21804488 316.50860277 710.80626341 325.46597473 716.4609375 334.38671875 C725.31409608 348.35879286 734.0368659 362.4120359 742.69140625 376.5078125 C747.74292318 384.73474139 752.83339027 392.93348709 758.00341797 401.08642578 C763.91075515 410.40283428 769.74378914 419.76555881 775.58496094 429.12353516 C777.46438632 432.13205044 779.34687821 435.13862229 781.23046875 438.14453125 C787.762019 448.57197328 794.25341277 459.02231383 800.69140625 469.5078125 C807.21441239 480.12262247 813.75658434 490.72125748 820.50390625 501.1953125 C820.91721191 501.84371094 821.33051758 502.49210937 821.75634766 503.16015625 C828.70921375 514.00516181 835.89869822 521.05767699 848.484375 524.78125 C856.621653 526.44962808 864.20564555 525.05237051 871.50390625 521.1953125 C881.10012005 514.48343077 885.73486062 506.40528224 888.50390625 495.1953125 C888.77449072 492.32815113 888.77916111 489.48177756 888.76561928 486.60337925 C888.76961534 485.75955737 888.7736114 484.91573548 888.77772856 484.04634324 C888.78870001 481.21797478 888.78550192 478.38980205 888.78237915 475.56141663 C888.78738216 473.51359681 888.79325797 471.46577897 888.79993188 469.41796392 C888.8157452 463.78999024 888.8191633 458.16206645 888.82058048 452.53407323 C888.82427219 446.46527709 888.83942653 440.3965084 888.85319519 434.32772827 C888.87547902 423.81289569 888.89055487 413.29807018 888.90056229 402.78322029 C888.91108772 391.75582926 888.92572322 380.72845628 888.94584274 369.70107841 C888.94771604 368.6724377 888.94771604 368.6724377 888.94962719 367.62301636 C888.95599098 364.14035673 888.96242815 360.65769724 888.96889357 357.17503779 C889.01455094 332.51017458 889.05100087 307.84530551 889.08203125 283.18041992 C889.1121971 259.21947369 889.14653652 235.25853937 889.18652344 211.29760742 C889.18836994 210.18965193 889.18836994 210.18965193 889.19025375 209.0593135 C889.20262065 201.64158775 889.21507237 194.22386214 889.22758623 186.80613663 C889.25307627 171.6955012 889.2780002 156.58486484 889.30258179 141.47422791 C889.30427815 140.43209392 889.30427815 140.43209392 889.30600878 139.36890673 C889.38145848 92.9777222 889.44325838 46.58651848 889.50390625 0.1953125 C913.92390625 0.1953125 938.34390625 0.1953125 963.50390625 0.1953125 C963.55465113 48.95853597 963.60304446 97.72175824 963.63093567 146.48500061 C963.63155693 147.5683878 963.63155693 147.5683878 963.63219073 148.6736616 C963.64117045 164.37207034 963.64948085 180.07047937 963.65710224 195.76888883 C963.66084409 203.46791488 963.66473378 211.16694086 963.66870117 218.8659668 C963.66909345 219.63209304 963.66948573 220.39821928 963.66988989 221.18756146 C963.68266308 245.99867625 963.7051889 270.80977048 963.73279791 295.62087283 C963.76112932 321.12761828 963.77957037 346.63435235 963.78565122 372.14111327 C963.78651562 375.74769149 963.78749253 379.35426968 963.78853798 382.96084785 C963.78874025 383.67064101 963.78894252 384.38043417 963.78915092 385.11173621 C963.79268951 396.5155882 963.80658595 407.91940494 963.82440235 419.32324258 C963.8421118 430.80119323 963.84855624 442.27909541 963.84441038 453.75706177 C963.84249177 459.9707009 963.84540219 466.18423694 963.86152267 472.39785767 C963.87619481 478.09502033 963.87681133 483.79201125 963.86660293 489.48918206 C963.86534251 491.54196432 963.8690857 493.59475759 963.8785558 495.64751839 C963.94494095 510.93572977 962.91479317 525.76368644 957.81640625 540.3203125 C957.56294434 541.05765625 957.30948242 541.795 957.04833984 542.5546875 C952.8437033 554.2984114 946.9338754 564.94147202 938.50390625 574.1953125 C937.63121094 575.16082031 936.75851562 576.12632812 935.859375 577.12109375 C919.60953837 594.51161063 896.61499568 606.2821909 872.58007812 607.32177734 C833.98308535 608.2123899 801.94502577 597.60079141 773.66455078 570.69360352 C758.45495192 555.82612001 748.27773523 537.34188633 737.50390625 519.1953125 C736.91041382 518.19588623 736.91041382 518.19588623 736.30493164 517.17626953 C733.04303425 511.68178751 729.78287303 506.1862671 726.52856445 500.68728638 C721.28224736 491.82236176 715.9584806 483.01687237 710.49511719 474.28344727 C705.10724988 465.63356664 699.94055741 456.854378 694.75488281 448.08251953 C689.91711064 439.90239023 685.04466674 431.7526939 680.00390625 423.6953125 C674.09633383 414.25237938 668.42572965 404.67534084 662.75790405 395.08755493 C657.41179792 386.04751703 651.9983723 377.06039702 646.42358398 368.15881348 C641.87116465 360.85937806 637.48403589 353.46514409 633.109375 346.05859375 C632.36740609 344.80418281 631.62534123 343.54982862 630.88317871 342.29553223 C629.08898475 339.262777 627.29607847 336.22926299 625.50390625 333.1953125 C625.5005961 334.06000845 625.49728596 334.9247044 625.4938755 335.81560326 C625.41239513 356.92698722 625.32022237 378.03830139 625.21637917 399.14958763 C625.16641349 409.3591502 625.11996976 419.56870538 625.08203125 429.77832031 C625.04892665 438.68461728 625.00899583 447.59085404 624.96111619 456.49708426 C624.93603331 461.20594266 624.91420001 465.91476207 624.90056229 470.62366867 C624.88757442 475.07075837 624.86534682 479.51771306 624.83652306 483.9647274 C624.82757603 485.58260942 624.82178789 487.2005131 624.81969261 488.8184185 C624.78415246 512.12733217 622.01792062 534.16158819 611.50390625 555.1953125 C610.98054687 556.24332031 610.4571875 557.29132812 609.91796875 558.37109375 C598.07941106 580.17136462 577.92270325 595.52071879 554.50390625 603.1953125 C522.80745613 612.36055109 490.35790801 607.15904047 461.65869141 591.78979492 C454.71957989 587.91827355 448.53609608 583.34889656 442.50390625 578.1953125 C441.99520996 577.76492676 441.48651367 577.33454102 440.96240234 576.89111328 C426.90817916 564.87709112 417.00249936 550.96394081 407.50390625 535.1953125 C406.93687988 534.2563916 406.36985352 533.3174707 405.78564453 532.35009766 C402.66974883 527.18375261 399.56922202 522.00840764 396.4765625 516.828125 C392.78619406 510.6534506 389.0515465 504.50644183 385.30847168 498.36361694 C378.22758331 486.74211607 371.25486341 475.0599353 364.32531738 463.34762573 C359.78139825 455.67069041 355.2105613 448.02113097 350.42138672 440.49389648 C345.8543555 433.26065924 341.54483818 425.87062995 337.19140625 418.5078125 C331.8762086 409.51854346 326.54382303 400.54872327 321.00390625 391.6953125 C314.6490913 381.53960269 308.5551428 371.23270945 302.4765625 360.91015625 C298.47185968 354.12132036 294.40161579 347.38270801 290.21166992 340.70629883 C289.75581261 339.9784745 289.29995529 339.25065018 288.83028412 338.50077057 C287.72220799 336.73183553 286.61316082 334.96350881 285.50390625 333.1953125 C285.50032372 334.40178908 285.50032372 334.40178908 285.49666882 335.63263893 C285.43725279 355.30173491 285.36153579 374.97070825 285.26819134 394.63967323 C285.22343227 404.15186065 285.18397313 413.66401228 285.1574707 423.17626953 C285.13432807 431.47761289 285.10075263 439.77884108 285.05520469 448.08009279 C285.03148912 452.46604642 285.01261986 456.85188756 285.00629234 461.23790359 C284.94127375 501.06991302 282.21466439 540.43393978 252.50390625 570.1953125 C251.75753906 570.95328125 251.01117187 571.71125 250.2421875 572.4921875 C226.70549719 595.0562873 194.14644833 600.51668272 162.78759766 600.4699707 C160.83747667 600.47432759 158.88735739 600.47951396 156.9372406 600.48545837 C151.67367268 600.4987681 146.41017693 600.49943504 141.14659548 600.49689507 C136.72253396 600.4958179 132.2984866 600.50072869 127.87442815 600.5055005 C117.40781094 600.51657231 106.9412296 600.51704901 96.47460938 600.51098633 C85.76285623 600.50497555 75.05123541 600.51718891 64.33950484 600.5385564 C55.07934263 600.55633296 45.81922188 600.56214802 36.55904329 600.55891865 C31.05736786 600.5571278 25.55578636 600.55951504 20.05412674 600.57363319 C-67.51384882 600.778852 -153.50272918 583.21175482 -220.04296875 522.42578125 C-221.64115933 520.97264937 -223.25518631 519.53668807 -224.88671875 518.12109375 C-246.19099748 499.53139247 -263.76397265 475.82147258 -277.49609375 451.1953125 C-277.95483887 450.37353516 -278.41358398 449.55175781 -278.88623047 448.70507812 C-293.84186585 421.62418477 -304.38306274 392.89210834 -310.80859375 362.6328125 C-311.15422363 361.0235791 -311.15422363 361.0235791 -311.50683594 359.38183594 C-315.38808788 340.03256964 -317.00464568 320.60770361 -316.88720703 300.89306641 C-316.87109321 297.69520465 -316.88720079 294.49860595 -316.90625 291.30078125 C-316.92588539 272.2509066 -315.15821914 253.29779087 -311.24609375 234.6328125 C-311.03702393 233.61727295 -310.8279541 232.6017334 -310.61254883 231.55541992 C-308.20105644 220.24975053 -305.04537697 209.19230259 -301.49609375 198.1953125 C-301.20395996 197.28749023 -300.91182617 196.37966797 -300.61083984 195.44433594 C-288.41566549 158.28642757 -268.06221191 124.50090718 -241.75 95.671875 C-240.22187415 93.99279045 -238.70923517 92.29950427 -237.2109375 90.59375 C-233.21478121 86.05609054 -229.18049465 81.83643349 -224.55078125 77.9453125 C-223.14966953 76.7519702 -221.78041048 75.52044767 -220.44140625 74.2578125 C-206.11860838 60.77753215 -189.39631766 50.12134224 -172.49609375 40.1953125 C-171.84785645 39.81181641 -171.19961914 39.42832031 -170.53173828 39.03320312 C-138.25709278 20.17610688 -100.73752742 9.66157487 -64.05859375 3.8828125 C-63.12740723 3.73553711 -62.1962207 3.58826172 -61.23681641 3.43652344 C-40.85888319 0.46727673 -20.56091848 -0.08644305 0 0 Z " fill="#EC1B2D" transform="translate(316.49609375,1.8046875)"/>
<path d="M0 0 C0.64001953 0.20898926 1.28003906 0.41797852 1.93945312 0.63330078 C48.1531285 16.32385435 73.09950284 56.40285482 96.07226562 96.62841797 C99.22109866 102.13568548 102.39170567 107.63035641 105.5625 113.125 C106.18358643 114.20209229 106.80467285 115.27918457 107.44458008 116.38891602 C112.17997 124.59540172 116.95006247 132.78124669 121.73071289 140.96142578 C126.01244941 148.2931252 130.2621376 155.6428655 134.5 163 C141.62086408 175.36022518 148.80183378 187.68467327 156 200 C164.87822438 215.18973453 173.71158757 230.40425056 182.49304199 245.65014648 C185.91479969 251.58869151 189.34069182 257.52485272 192.76586914 263.46142578 C193.469141 264.68038322 194.17241097 265.89934175 194.87567902 267.11830139 C196.58376752 270.07887826 198.29187505 273.03944416 200 276 C200.00331015 275.13107211 200.00662029 274.26214422 200.01003075 273.36688519 C200.0915311 252.14666323 200.18371008 230.92651055 200.28752708 209.70638561 C200.33748084 199.44416455 200.38392454 189.18195079 200.421875 178.91967773 C200.45499218 169.96685972 200.49492954 161.01410145 200.54279006 152.06134969 C200.56786069 147.32842615 200.58969733 142.59554122 200.60334396 137.86256981 C200.6163433 133.39167508 200.63858218 128.92091418 200.66738319 124.45009422 C200.67632155 122.82456934 200.68211622 121.19902299 200.68421364 119.57347488 C200.7066592 104.79658286 201.14748023 89.47484093 205.25 75.1875 C205.46688477 74.40673096 205.68376953 73.62596191 205.90722656 72.8215332 C213.75251429 45.5778509 231.26652755 23.22890624 255.65234375 8.8125 C278.67761932 -3.65392691 306.68481218 -8.42022123 332.40234375 -2.1015625 C377.17360019 11.60690038 404.57499048 42.65565381 427.31591797 82.08349609 C429.01505074 85.02606497 430.72620208 87.96130458 432.44140625 90.89453125 C435.37759518 95.9158339 438.30690978 100.94109651 441.23388672 105.96777344 C444.15328022 110.9800581 447.07681168 115.98992787 450 121 C453.46590232 126.94078976 456.93138086 132.88182426 460.39453125 138.82421875 C468.84852341 153.32803464 477.33293399 167.81386996 485.82666016 182.29443359 C489.03234269 187.75984483 492.23637859 193.22622131 495.44052124 198.6925354 C497.21027838 201.71173078 498.98014478 204.73086211 500.75 207.75 C501.45833386 208.95833303 502.16666719 210.16666636 502.875 211.375 C503.225625 211.973125 503.57625 212.57125 503.9375 213.1875 C505 215 506.0625 216.8125 507.125 218.625 C507.47554947 219.22299408 507.82609894 219.82098816 508.18727112 220.43710327 C508.8963747 221.64675475 509.60547096 222.85641052 510.31455994 224.06607056 C512.0735488 227.06677132 513.83266034 230.06740003 515.59204102 233.06787109 C518.92099855 238.74542375 522.24861842 244.4237499 525.57223511 250.10443115 C527.14731141 252.79636814 528.72304355 255.48792093 530.29882812 258.17944336 C531.05192403 259.46619749 531.80469631 260.75314109 532.55712891 262.0402832 C533.59847245 263.82160257 534.64091553 265.60227414 535.68359375 267.3828125 C536.27712646 268.39746582 536.87065918 269.41211914 537.48217773 270.45751953 C538.60383154 272.33638437 539.78620235 274.17930353 541 276 C541.495 138.39 541.495 138.39 542 -2 C566.75 -2 591.5 -2 617 -2 C617.03381747 44.19259354 617.06608035 90.3851869 617.08468628 136.57778931 C617.08496239 137.26154118 617.08523851 137.94529306 617.08552299 138.64976468 C617.09150892 153.50981965 617.09704926 168.36987476 617.10213066 183.22993007 C617.10462531 190.51738179 617.10721842 197.80483348 617.10986328 205.09228516 C617.11025556 206.18006409 617.11025556 206.18006409 617.11065576 207.28981836 C617.11917724 230.7918051 617.13419895 254.29378221 617.15259444 277.79576312 C617.1714651 301.9487064 617.18377216 326.10164436 617.18782998 350.25459489 C617.18840628 353.66665402 617.18905756 357.07871314 617.18975449 360.49077225 C617.18988933 361.16230915 617.19002418 361.83384605 617.19016311 362.52573256 C617.19252581 373.33214567 617.20179995 384.1385423 617.21366407 394.9449487 C617.22544613 405.81113772 617.22977224 416.67730965 617.22700275 427.54350476 C617.22572032 433.43018714 617.22770234 439.31682121 617.23841095 445.20349503 C617.24814487 450.59370912 617.24863391 455.98384241 617.24179779 461.37406023 C617.2409529 463.32308287 617.24348871 465.27211055 617.24976636 467.22112326 C617.32627933 492.44457929 617.32627933 492.44457929 612 499 C608.57234748 501.57073939 605.16028704 501.43037452 601 501 C591.6196505 496.70067315 586.40827022 484.57247275 581.3125 476.0625 C576.96016308 468.85374305 572.57581708 461.67170186 568.0625 454.5625 C563.57713612 447.49583699 559.12055293 440.41211959 554.6875 433.3125 C553.74209351 431.79861694 553.74209351 431.79861694 552.77758789 430.25415039 C551.49271656 428.19636522 550.20796786 426.13850348 548.92333984 424.08056641 C546.40647182 420.04936042 543.88768205 416.01935739 541.36865234 411.98950195 C540.12010416 409.99205323 538.87173253 407.99449413 537.62353516 405.99682617 C534.51351445 401.01957977 531.40146862 396.04362237 528.28515625 391.0703125 C521.06149487 379.53653632 513.89650603 367.96882157 506.77636719 356.37084961 C502.35612495 349.17957201 497.88201732 342.025472 493.35986328 334.89794922 C489.76436466 329.22602281 486.21638511 323.52608532 482.6875 317.8125 C478.02102376 310.25758636 473.33348167 302.71631217 468.625 295.1875 C467.68454834 293.68352661 467.68454834 293.68352661 466.72509766 292.14916992 C463.57794086 287.11766406 460.42846657 282.08761656 457.27734375 277.05859375 C450.05448776 265.52481819 442.88930511 253.95771079 435.76977539 242.35986328 C431.88890781 236.04569693 427.97321817 229.75642725 424 223.5 C418.62702147 215.03944036 413.37548916 206.50661922 408.1328125 197.96484375 C403.6224928 190.62166671 399.07650167 183.30209221 394.5 176 C387.89221583 165.4540497 381.36255308 154.8613303 374.84765625 144.2578125 C370.82564421 137.71240113 366.78762223 131.17700875 362.73754883 124.64892578 C359.98451529 120.21093097 357.24210824 115.76686551 354.515625 111.3125 C353.93772217 110.37124268 353.35981934 109.42998535 352.7644043 108.46020508 C351.66895462 106.67552253 350.57643105 104.88903889 349.48754883 103.1003418 C341.92775405 90.80608086 334.39781056 80.8325182 320.1171875 76.41796875 C310.0877308 74.43798376 301.48752345 76.18176169 292.81640625 81.28515625 C283.3525458 87.70770049 279.43054746 97.120155 277 108 C276.4704142 113.33292729 276.46348375 118.62295198 276.50120544 123.97370911 C276.49747082 125.55078118 276.49197505 127.12784988 276.48488861 128.70491046 C276.47053939 133.00422014 276.48074528 137.30316356 276.49517167 141.60245979 C276.50634245 146.25207159 276.49427399 150.90163117 276.48498535 155.55123901 C276.47192711 163.59739836 276.47303602 171.6434537 276.48357964 179.68961525 C276.4985513 191.33154564 276.4885811 202.97335458 276.47206045 214.61527809 C276.44563189 233.51752917 276.43473942 252.41975292 276.43579102 271.32202148 C276.43584934 272.45199571 276.43590766 273.58196993 276.43596775 274.7461858 C276.43623362 279.32502942 276.43655091 283.90387303 276.43693101 288.48271664 C276.43789804 301.09842279 276.43656809 313.71412811 276.43383789 326.32983398 C276.433598 327.45994067 276.43335811 328.59004735 276.43311094 329.75439969 C276.42870516 348.59443007 276.41247739 367.43443507 276.3886171 386.27445048 C276.37454722 397.88887357 276.37166577 409.50320022 276.38323999 421.11762663 C276.39055996 429.07055252 276.38750707 437.02342978 276.37628155 444.976351 C276.37020654 449.56470945 276.36912532 454.15293185 276.38115883 458.74128151 C276.39211062 462.94234201 276.38929653 467.14316125 276.37561537 471.34421166 C276.37312188 472.86279836 276.37569643 474.38140374 276.38388925 475.89997039 C276.47090045 493.14344394 276.47090045 493.14344394 270.75 499.5 C267.10776281 501.48667483 265.10375175 501.63678906 261 501 C254.0721511 497.09896128 250.87109201 491.73093075 246.875 485 C246.22466797 483.93201172 245.57433594 482.86402344 244.90429688 481.76367188 C243.56710361 479.56713337 242.23538923 477.36725008 240.90917969 475.1640625 C238.14591429 470.58453314 235.32277488 466.04298545 232.5 461.5 C231.43469265 459.77746939 230.36959077 458.0548117 229.3046875 456.33203125 C223.86915456 447.55193164 218.38511109 438.80204965 212.90722656 430.04833984 C209.14340047 424.03257786 205.38342367 418.01440893 201.62329102 411.99633789 C198.51329371 407.01929057 195.40137241 402.04346883 192.28515625 397.0703125 C185.75014935 386.63608768 179.25404372 376.17972182 172.8125 365.6875 C167.28586137 356.68670973 161.69764284 347.72933777 156.04296875 338.80859375 C146.49328697 323.73726522 137.10469579 308.56652531 127.77050781 293.36108398 C123.88941675 287.04649768 119.97347264 280.75682795 116 274.5 C111.32895779 267.14474426 106.74582831 259.73810235 102.1875 252.3125 C94.52574261 239.83241129 86.77686997 227.40859189 79 215 C70.60584352 201.60648019 62.25506774 188.1886436 53.98510742 174.71801758 C49.4843833 167.39333115 44.94240035 160.09576422 40.375 152.8125 C35.4854648 145.01264898 30.65175348 137.1819292 25.875 129.3125 C16.04511387 113.08975281 16.04511387 113.08975281 6 97 C5.61118652 96.38608398 5.22237305 95.77216797 4.82177734 95.13964844 C-0.85521411 86.31690814 -8.13644892 79.36014278 -18.45703125 76.4375 C-30.05540159 74.44208145 -39.55833674 76.1227696 -49.25 82.6875 C-57.54092399 89.35373787 -61.24888631 98.76526256 -63 109 C-63.09063077 111.16061211 -63.1283281 113.32371676 -63.13028526 115.48622799 C-63.13572178 117.46547076 -63.13572178 117.46547076 -63.14126813 119.48469824 C-63.14027156 120.94755747 -63.13918944 122.41041664 -63.13803101 123.87327576 C-63.14044942 125.42836535 -63.1433118 126.9834543 -63.14658034 128.53854233 C-63.15433296 132.8140585 -63.15595272 137.08955862 -63.15663147 141.36508095 C-63.15847124 145.97524448 -63.16607806 150.58539862 -63.17311096 155.19555664 C-63.18463677 163.18507711 -63.19288091 171.17459547 -63.19923019 179.16412163 C-63.20955347 191.78903979 -63.23011564 204.41393162 -63.25234985 217.03883362 C-63.25982948 221.35730258 -63.2672432 225.67577165 -63.27463722 229.99424076 C-63.27741307 231.61306728 -63.27741307 231.61306728 -63.280245 233.26459737 C-63.3011722 245.54952394 -63.32000119 257.83445342 -63.33789062 270.11938477 C-63.33952881 271.24244516 -63.34116699 272.36550556 -63.34285481 273.5225981 C-63.36915249 291.73119426 -63.38778935 309.93979246 -63.40448253 328.14839958 C-63.42189252 346.83675584 -63.45072482 365.52507221 -63.4893719 384.21339661 C-63.51279011 395.74436138 -63.5267681 407.27526112 -63.52869953 418.80624986 C-63.5308061 426.70505418 -63.54371175 434.60379375 -63.56517886 442.50256901 C-63.57722655 447.06225986 -63.58434676 451.62182215 -63.57846642 456.18152809 C-63.57318109 460.35444833 -63.58161309 464.52710605 -63.60102279 468.69998241 C-63.60560723 470.21069006 -63.6051157 471.72142328 -63.59907441 473.23212581 C-63.59159904 475.28437613 -63.60252678 477.33574395 -63.61803246 479.38793087 C-63.61938898 480.5281787 -63.62074551 481.66842653 -63.62214315 482.84322733 C-64.28971683 488.42041444 -66.71739437 492.22419521 -70.9375 495.8125 C-71.60652344 496.39644531 -72.27554687 496.98039062 -72.96484375 497.58203125 C-77.20376494 500.53544467 -81.81502495 500.14629517 -86.81617737 500.14044189 C-87.60908816 500.14341302 -88.40199895 500.14638414 -89.21893734 500.1494453 C-91.87977423 500.15812603 -94.54056608 500.15964013 -97.20141602 500.16113281 C-99.10891313 500.16576214 -101.01640931 500.17078696 -102.92390442 500.17617798 C-108.11539718 500.18930974 -113.30687698 500.19575071 -118.49838376 500.20018864 C-121.75232633 500.20312357 -125.00626541 500.20722961 -128.26020622 500.21169281 C-138.46963788 500.22538178 -148.6790615 500.23503649 -158.8885017 500.2388947 C-170.61603765 500.24335196 -182.34345567 500.26078449 -194.07095581 500.2898953 C-203.16522849 500.3116723 -212.25946844 500.32160775 -221.35376686 500.32293582 C-226.76880964 500.32397427 -232.18374182 500.32967146 -237.59875679 500.34775543 C-291.99176075 500.51887868 -345.6177087 495.20114119 -391 462 C-391.55494141 461.60441895 -392.10988281 461.20883789 -392.68164062 460.80126953 C-414.02512616 445.48936853 -430.79670475 425.53960597 -444 403 C-444.38542969 402.34580078 -444.77085937 401.69160156 -445.16796875 401.01757812 C-472.99244903 353.10819142 -477.53176146 294.04922043 -464 241 C-457.91771068 218.69948003 -448.48005827 196.85236668 -435 178 C-434.28457031 176.98292969 -433.56914062 175.96585938 -432.83203125 174.91796875 C-426.01433732 165.51799782 -418.20100224 157.20100224 -410 149 C-409.40960938 148.35160156 -408.81921875 147.70320312 -408.2109375 147.03515625 C-383.81856033 120.82632546 -347.24108604 105.65962756 -312.6875 98.8125 C-311.91929932 98.65749023 -311.15109863 98.50248047 -310.35961914 98.34277344 C-291.3830543 94.81385892 -272.37237491 94.7263788 -253.140625 94.8046875 C-250.41152048 94.80955568 -247.6824161 94.81136806 -244.95330811 94.81326294 C-238.56135833 94.81941598 -232.16947907 94.83574069 -225.77756 94.85596192 C-217.76708491 94.88073953 -209.75659774 94.89150808 -201.74609375 94.90234375 C-187.49734126 94.92167812 -173.24874207 94.96176545 -159 95 C-159 119.09 -159 143.18 -159 168 C-169.94800781 168.09087891 -169.94800781 168.09087891 -181.1171875 168.18359375 C-185.77474465 168.22414671 -190.43229699 168.26494964 -195.08984375 168.30664062 C-202.46270972 168.37261375 -209.83557542 168.43772236 -217.20849609 168.49731445 C-223.1607943 168.54548264 -229.11304304 168.59783484 -235.06528091 168.65294075 C-237.32233554 168.67312966 -239.57940359 168.69187728 -241.836483 168.70907402 C-252.2306193 168.78911553 -262.61508764 168.88898436 -272.99658203 169.44165039 C-273.68943235 169.47758773 -274.38228268 169.51352507 -275.09612846 169.55055141 C-308.69176404 171.57041134 -340.40594547 186.16648849 -363.53125 210.68359375 C-365.81013619 213.38375291 -367.92672809 216.13888476 -370 219 C-370.40702148 219.56058105 -370.81404297 220.12116211 -371.23339844 220.69873047 C-383.69703552 238.06385087 -391.21627805 256.93387241 -395 278 C-395.185625 279.01320313 -395.37125 280.02640625 -395.5625 281.0703125 C-399.27452392 314.41224162 -392.39628388 348.41970824 -371.390625 375.10546875 C-370.60171875 376.06066406 -369.8128125 377.01585937 -369 378 C-368.19046875 378.98613281 -367.3809375 379.97226562 -366.546875 380.98828125 C-348.98825524 401.25429298 -324.72532922 413.66334125 -299.0625 420.25 C-298.11052734 420.49645264 -297.15855469 420.74290527 -296.17773438 420.99682617 C-278.76354154 425.24895817 -261.51430823 425.3393843 -243.6875 425.37109375 C-241.06152297 425.38007643 -238.4355464 425.38919854 -235.80957031 425.39845276 C-230.33641918 425.41569437 -224.86331201 425.42265945 -219.39013672 425.42553711 C-213.08226694 425.42918875 -206.77487866 425.45924201 -200.46715641 425.50094169 C-194.3599523 425.53988262 -188.25298275 425.55113047 -182.1456604 425.55226326 C-179.5621171 425.55646155 -176.97857325 425.56887992 -174.39511108 425.58978081 C-170.78901829 425.6166671 -167.18426717 425.61187951 -163.578125 425.59936523 C-162.51928604 425.61419952 -161.46044708 425.62903381 -160.36952209 425.64431763 C-154.67043559 425.58806395 -150.60351288 424.86536498 -145.73358154 421.85392857 C-139.56624202 415.25844595 -139.42640569 408.14430601 -139.49447632 399.47967529 C-139.48534114 397.60398798 -139.48534114 397.60398798 -139.47602141 395.69040799 C-139.4596924 392.23526368 -139.46803744 388.7805591 -139.48051262 385.32541513 C-139.48959482 381.59231896 -139.47553412 377.85930085 -139.46424866 374.1262207 C-139.44776314 367.65915107 -139.44560554 361.19220511 -139.45301437 354.72512054 C-139.46355351 345.35312115 -139.45010966 335.98127228 -139.43054982 326.60929289 C-139.39921786 311.37396821 -139.38420593 296.13867537 -139.38085938 280.90332031 C-139.38065539 279.99198118 -139.3804514 279.08064205 -139.38024123 278.14168659 C-139.38003786 277.22928906 -139.37983449 276.31689153 -139.37962496 275.3768456 C-139.37671128 262.47160314 -139.36991987 249.56637059 -139.35839844 236.66113281 C-139.35719049 235.30125563 -139.35719049 235.30125563 -139.35595815 233.91390619 C-139.3421594 218.74877881 -139.32033485 203.5836688 -139.2945286 188.41855741 C-139.27915632 179.08239188 -139.27185637 169.74628356 -139.27532353 160.41010562 C-139.27737802 153.99793396 -139.27263944 147.5857906 -139.26278017 141.17362627 C-139.25739639 137.48508292 -139.25518972 133.79661309 -139.26195335 130.10807037 C-139.32942526 90.31972455 -134.73088586 54.73566115 -106 25 C-78.97355113 -1.83283706 -36.23859524 -11.90618499 0 0 Z " fill="#EC1B2E" transform="translate(567,4)"/>
</svg>
