<?xml version="1.0" encoding="UTF-8"?>
<svg version="1.1" xmlns="http://www.w3.org/2000/svg" width="900" height="500">
<path d="M0 0 C297 0 594 0 900 0 C900 165 900 330 900 500 C603 500 306 500 0 500 C0 335 0 170 0 0 Z " fill="#FEFEFE" transform="translate(0,0)"/>
<path d="M0 0 C0.07444309 15.61133592 -0.15520393 31.20527117 -0.5 46.8125 C-0.54838083 49.07746962 -0.59655894 51.34244357 -0.64453125 53.60742188 C-0.76069459 59.07166659 -0.87931934 64.53585328 -1 70 C-0.20335937 69.66009033 0.59328125 69.32018066 1.4140625 68.9699707 C2.47367187 68.52226318 3.53328125 68.07455566 4.625 67.61328125 C5.66914062 67.17024658 6.71328125 66.72721191 7.7890625 66.27075195 C22.43018067 60.47642257 41.11076455 59.29284329 56 65 C71.88910802 71.91058405 82.97030944 85.30793781 89.55859375 101.05078125 C97.90033932 122.80601068 95.93892174 148.98141318 87.6875 170.375 C79.25671006 189.13286698 65.12617934 203.25297784 46 211 C25.62790325 217.83874632 3.25102781 217.55815291 -17.82958984 214.32958984 C-20.30665388 213.95343276 -22.78750117 213.61134097 -25.26953125 213.26953125 C-27.07571483 213.01439045 -28.88170833 212.75789997 -30.6875 212.5 C-31.94506104 212.32247192 -31.94506104 212.32247192 -33.22802734 212.14135742 C-34.02289551 212.02252197 -34.81776367 211.90368652 -35.63671875 211.78125 C-36.68412231 211.6275293 -36.68412231 211.6275293 -37.75268555 211.47070312 C-40.58742294 210.87696345 -43.25946297 209.93018831 -46 209 C-45.99861731 207.76423532 -45.99861731 207.76423532 -45.99720669 206.50350571 C-45.97508406 186.42074454 -45.95855562 166.33798549 -45.94818783 146.25521469 C-45.94304027 136.54318554 -45.93602701 126.83116454 -45.92456055 117.11914062 C-45.91456656 108.65022725 -45.90813537 100.18131978 -45.90591151 91.71240067 C-45.90461239 87.23175973 -45.90157738 82.75113569 -45.89426994 78.27050018 C-45.88743522 74.04510256 -45.88539807 69.81972865 -45.88689232 65.59432602 C-45.88661932 64.05131018 -45.88465872 62.50829347 -45.88079453 60.96528244 C-45.45887308 44.69836467 -45.45887308 44.69836467 -48.75 28.9375 C-49.05421875 28.05964844 -49.3584375 27.18179688 -49.671875 26.27734375 C-51.82232147 22.58996054 -54.64615299 21.36959035 -58.67578125 20.26953125 C-59.54589844 20.11871094 -60.41601562 19.96789062 -61.3125 19.8125 C-62.19550781 19.65394531 -63.07851563 19.49539062 -63.98828125 19.33203125 C-64.98408203 19.16767578 -64.98408203 19.16767578 -66 19 C-66 16.69 -66 14.38 -66 12 C-65.38705078 11.89453857 -64.77410156 11.78907715 -64.14257812 11.68041992 C-42.24109424 8.01235998 -42.24109424 8.01235998 -20.49609375 3.5390625 C-16.86345154 2.75454822 -13.21428297 2.06413717 -9.5625 1.375 C-8.8509375 1.23964844 -8.139375 1.10429687 -7.40625 0.96484375 C-2.2438386 0 -2.2438386 0 0 0 Z " fill="#010101" transform="translate(509,141)"/>
<path d="M0 0 C14.6129822 12.39535711 23.65891319 30.68486513 25.5559082 49.67480469 C27.41241473 74.30679321 25.43974768 97.36799943 8.86328125 116.87890625 C8.16589844 117.66136719 7.46851563 118.44382812 6.75 119.25 C5.75033203 120.40822266 5.75033203 120.40822266 4.73046875 121.58984375 C-6.62359576 133.91290078 -23.68775242 141.26164932 -40.31201172 142.47314453 C-62.64990453 143.25485234 -82.66840255 141.48569695 -100.625 127 C-116.27693284 111.99456004 -124.15171471 92.07120771 -124.75590515 70.68920898 C-125.17311317 48.0094741 -121.94160021 27.69881281 -106.25 10.25 C-105.45980469 9.35539062 -104.66960937 8.46078125 -103.85546875 7.5390625 C-78.33070165 -19.74216735 -29.50840864 -22.27727654 0 0 Z " fill="#010101" transform="translate(297.25,214.75)"/>
<path d="M0 0 C57.42 0 114.84 0 174 0 C174.61606828 19.71418487 175.14488579 39.29553315 175 59 C171.7 59.66 168.4 60.32 165 61 C164.50693359 59.61941406 164.50693359 59.61941406 164.00390625 58.2109375 C159.10605124 44.99816024 152.07798771 30.08486961 139.8125 22.3125 C138.95269531 21.75175781 138.09289062 21.19101563 137.20703125 20.61328125 C129.47547143 16.72395822 121.97604658 15.54845719 113.3984375 15.48828125 C112.435961 15.47033005 111.4734845 15.45237885 110.48184204 15.43388367 C107.44627092 15.38025521 104.41085263 15.34603867 101.375 15.3125 C99.30076019 15.27928494 97.22654043 15.24479149 95.15234375 15.20898438 C90.1016737 15.12455663 85.05104522 15.05752103 80 15 C80.01160156 15.92039063 80.02320312 16.84078125 80.03515625 17.7890625 C80.07912192 23.95681822 80.0613306 30.04500611 79.53515625 36.1953125 C78.58750282 48.05852945 78.62733976 59.98095767 78.4375 71.875 C78.39422604 74.41276634 78.35060919 76.95052685 78.30664062 79.48828125 C78.20047072 85.65879255 78.09854495 91.82936246 78 98 C81.98427467 97.95549154 85.96723428 97.88529685 89.95068359 97.79248047 C91.9629854 97.75076728 93.97566395 97.72871469 95.98828125 97.70703125 C105.00217305 97.48055156 111.15500221 96.84499779 117.75 90.25 C122.15678622 83.88464213 124.69807812 77.36615 127 70 C129.97 70 132.94 70 136 70 C136 93.43 136 116.86 136 141 C133.36 141 130.72 141 128 141 C127.76925781 140.39414062 127.53851563 139.78828125 127.30078125 139.1640625 C126.23549478 136.4271605 125.1282707 133.71154893 124 131 C123.63777344 130.12730469 123.27554688 129.25460937 122.90234375 128.35546875 C119.75064244 121.40035841 115.58295543 115.78005121 108.27075195 112.93994141 C104.89168903 111.96887384 102.01567502 111.68616214 98.5078125 111.5859375 C96.70957031 111.52792969 96.70957031 111.52792969 94.875 111.46875 C93.6375 111.4378125 92.4 111.406875 91.125 111.375 C89.86429687 111.33632813 88.60359375 111.29765625 87.3046875 111.2578125 C84.20326863 111.16383011 81.10185114 111.07816589 78 111 C78.39482043 127.68036077 78.90667175 144.34547405 79.9375 161 C80.01210449 162.27302979 80.08670898 163.54605957 80.16357422 164.85766602 C80.84778224 179.67654107 80.84778224 179.67654107 87.38671875 192.47265625 C92.77421385 197.12734345 97.27956924 198.37376983 104.25 199.125 C105.36761719 199.25455078 105.36761719 199.25455078 106.5078125 199.38671875 C108.33777846 199.59786867 110.16879879 199.79984545 112 200 C112 202.97 112 205.94 112 209 C75.04 209 38.08 209 0 209 C0 206.03 0 203.06 0 200 C1.41152344 199.72736328 1.41152344 199.72736328 2.8515625 199.44921875 C4.71941406 199.07216797 4.71941406 199.07216797 6.625 198.6875 C7.85476562 198.44386719 9.08453125 198.20023438 10.3515625 197.94921875 C16.46122961 196.35965868 20.54363522 194.36332465 24 189 C27.31166897 181.79265961 27.99658557 174.57433018 28.66796875 166.734375 C28.73089804 166.02915459 28.79382732 165.32393417 28.85866356 164.59734344 C30.52754394 145.4575885 30.41461696 126.29091419 30.3225708 107.09454346 C30.3091226 103.29603943 30.31442248 99.49765202 30.31941414 95.69913483 C30.33659525 78.61221038 30.26622967 61.54124569 29.16796875 44.484375 C29.09910965 43.35944641 29.03025055 42.23451782 28.95930481 41.07550049 C28.23966947 31.53915321 27.28528559 21.77700985 20 15 C15.63209388 12.49775075 11.54919681 11.28804842 6.625 10.3125 C5.37976563 10.06113281 4.13453125 9.80976563 2.8515625 9.55078125 C1.91054688 9.36902344 0.96953125 9.18726563 0 9 C0 6.03 0 3.06 0 0 Z " fill="#020202" transform="translate(19,145)"/>
<path d="M0 0 C14.87976396 12.82738272 22.86329308 29.40718037 24.41796875 48.99609375 C24.41796875 52.62609375 24.41796875 56.25609375 24.41796875 59.99609375 C-6.27203125 59.99609375 -36.96203125 59.99609375 -68.58203125 59.99609375 C-68.11868163 72.52500131 -68.11868163 72.52500131 -65.58203125 83.99609375 C-65.32679688 84.83140625 -65.0715625 85.66671875 -64.80859375 86.52734375 C-60.50569285 99.61993111 -52.95909071 110.91011303 -40.58203125 117.37109375 C-32.78950959 121.16147793 -25.68623065 122.32882207 -17.14453125 122.24609375 C-16.34982422 122.25382813 -15.55511719 122.2615625 -14.73632812 122.26953125 C-2.59609199 122.23001868 8.12316026 118.26249892 18.41796875 111.99609375 C19.98046875 113.74609375 19.98046875 113.74609375 21.41796875 115.99609375 C20.87536443 121.78387318 15.56111388 125.46803739 11.41796875 128.99609375 C3.94339424 134.26783396 -4.03447427 138.72572412 -12.58203125 141.99609375 C-13.40960937 142.31578125 -14.2371875 142.63546875 -15.08984375 142.96484375 C-33.12896674 148.64480084 -56.12704964 146.16789644 -73.14453125 138.18359375 C-78.40026814 135.29837543 -83.02722662 131.87831975 -87.58203125 127.99609375 C-88.28199219 127.42890625 -88.98195313 126.86171875 -89.703125 126.27734375 C-102.87296896 115.32322023 -111.52003368 97.96103554 -113.58203125 80.99609375 C-115.49330122 58.08218528 -112.08568912 35.9212615 -98.20703125 17.12109375 C-97.02344843 15.724732 -95.81373296 14.3502006 -94.58203125 12.99609375 C-93.86660156 12.17753906 -93.15117188 11.35898438 -92.4140625 10.515625 C-84.4981644 1.97988497 -73.94938877 -4.99135567 -62.58203125 -8.00390625 C-61.54304687 -8.27976563 -60.5040625 -8.555625 -59.43359375 -8.83984375 C-39.74190345 -13.41637732 -16.61361558 -12.89377427 0 0 Z " fill="#020202" transform="translate(729.58203125,212.00390625)"/>
<path d="M0 0 C1.91135742 0.01305176 1.91135742 0.01305176 3.86132812 0.02636719 C12.80590171 0.16591169 21.00534709 0.8547575 29.625 3.375 C31.47738281 3.89707031 31.47738281 3.89707031 33.3671875 4.4296875 C42.31631098 7.06631098 42.31631098 7.06631098 43.625 8.375 C43.78510481 11.11201178 43.88446828 13.8266759 43.94140625 16.56640625 C43.96218735 17.38624496 43.98296844 18.20608368 44.00437927 19.05076599 C44.06996494 21.67958901 44.12880126 24.30851504 44.1875 26.9375 C44.23067667 28.71550561 44.27429067 30.49350065 44.31835938 32.27148438 C44.42565543 36.63921634 44.52689704 41.00705227 44.625 45.375 C41.53690305 47.13962683 40.39187864 47.375 36.625 47.375 C36.27308594 46.40820312 35.92117188 45.44140625 35.55859375 44.4453125 C30.64329479 31.32433577 24.30916023 19.63804871 11.375 12.9375 C4.82695984 10.30922091 -2.89451818 10.01824561 -9.4375 12.8125 C-10.406875 13.328125 -11.37625 13.84375 -12.375 14.375 C-13.365 14.705 -14.355 15.035 -15.375 15.375 C-16.50016085 17.20784443 -16.50016085 17.20784443 -17.375 19.375 C-17.7153125 19.92027344 -18.055625 20.46554688 -18.40625 21.02734375 C-20.85182126 26.95390957 -20.38749548 35.93148745 -18.60546875 41.9921875 C-15.44763367 47.72761941 -10.03038215 50.46771466 -4.375 53.375 C-3.65957031 53.77074219 -2.94414063 54.16648438 -2.20703125 54.57421875 C2.67054161 57.17271332 7.70965666 59.21848247 12.8527832 61.21899414 C26.79361335 66.64849942 41.43839906 72.46065361 49.0625 86.3125 C54.36843501 98.62033099 54.04700461 112.87948698 49.625 125.375 C44.69672826 137.15862409 36.03580958 144.8663333 24.625 150.375 C-3.21840174 161.28272439 -36.01700116 158.03465538 -63.375 147.375 C-63.98471292 132.70459363 -64.5614066 118.05969801 -64.375 103.375 C-60.91 102.385 -60.91 102.385 -57.375 101.375 C-57.03674194 102.14408691 -57.03674194 102.14408691 -56.69165039 102.92871094 C-49.78287987 118.47649081 -42.85851199 133.12933364 -26.75 140.75 C-19.06195626 143.56934424 -10.13328937 143.81673518 -2.4375 140.875 C3.17730301 137.8685663 7.43149676 133.76316828 9.5703125 127.69140625 C11.19611759 120.2723843 10.46963842 115.06427685 7.0625 108.25 C-0.63463759 99.17132489 -12.84632533 95.22621136 -23.8125 91.5 C-37.5210626 86.58675411 -51.06176066 79.40856953 -57.9375 66.0625 C-62.57613719 56.00992932 -63.28606615 43.26733993 -59.46875 32.734375 C-53.19746144 19.20630969 -43.36704592 9.85635617 -29.54296875 4.13232422 C-19.7789499 0.72151493 -10.279504 -0.11724633 0 0 Z " fill="#020202" transform="translate(828.375,200.625)"/>
<path d="M0 0 C0.33 9.9 0.66 19.8 1 30 C3.31 26.04 5.62 22.08 8 18 C14.92989996 10.03061504 25.33155465 1.18429823 36.19262695 -0.29956055 C38.5943524 -0.43767171 40.96959472 -0.45863375 43.375 -0.4375 C44.17421875 -0.45748047 44.9734375 -0.47746094 45.796875 -0.49804688 C51.97036778 -0.49305214 56.5654553 1.13461637 62 4 C56.66666667 17.33333333 51.33333333 30.66666667 46 44 C44.66598223 43.56459142 43.33283226 43.12652414 42 42.6875 C41.2575 42.44386719 40.515 42.20023438 39.75 41.94921875 C38.22887831 41.42417248 36.71304897 40.87693598 35.23413086 40.24267578 C29.94266787 38.03366328 25.27496829 37.45815671 19.5625 37.5 C18.31170654 37.50205444 18.31170654 37.50205444 17.03564453 37.50415039 C10.2734318 37.67304013 4.90912244 39.09087756 0 44 C-0.25399444 46.71554545 -0.43342574 49.40222368 -0.5625 52.125 C-0.6251001 53.43355957 -0.6251001 53.43355957 -0.68896484 54.76855469 C-5.00063338 99.09457603 -5.00063338 99.09457603 6 140 C9.98275811 143.20459934 13.86348622 143.52174356 18.8125 143.6875 C19.50537109 143.72166016 20.19824219 143.75582031 20.91210938 143.79101562 C22.60752849 143.87286344 24.30373458 143.93812365 26 144 C26 146.97 26 149.94 26 153 C-4.36 153 -34.72 153 -66 153 C-66 150.03 -66 147.06 -66 144 C-65.26394531 143.91363281 -64.52789062 143.82726562 -63.76953125 143.73828125 C-57.48496555 142.83564499 -57.48496555 142.83564499 -52 139.8125 C-47.02855784 132.82140946 -46.32582371 126.39553656 -45.8125 118 C-45.73427002 116.77249023 -45.65604004 115.54498047 -45.57543945 114.28027344 C-44.13485659 89.42806596 -43.40998059 63.76988368 -46.1875 39 C-46.28828857 38.04770508 -46.38907715 37.09541016 -46.49291992 36.11425781 C-47.32090279 30.14386016 -49.00355858 26.54706224 -53 22 C-55.82405792 20.04067299 -58.35604852 19.67446631 -61.75 19.375 C-62.54921875 19.30023438 -63.3484375 19.22546875 -64.171875 19.1484375 C-64.77515625 19.09945312 -65.3784375 19.05046875 -66 19 C-66 16.69 -66 14.38 -66 12 C-57.69037693 10.4332674 -49.38039157 8.86847668 -41.06993294 7.30618286 C-37.21131667 6.58073304 -33.35283001 5.85460794 -29.49462891 5.12695312 C-25.77318305 4.42511577 -22.0514108 3.72503455 -18.32940292 3.02618408 C-16.90748128 2.75887941 -15.4856796 2.49093575 -14.06399918 2.22235107 C-12.07699911 1.84707748 -10.08953567 1.47425986 -8.10205078 1.1015625 C-6.96953888 0.88838379 -5.83702698 0.67520508 -4.67019653 0.45556641 C-2 0 -2 0 0 0 Z " fill="#020202" transform="translate(391,201)"/>
<path d="M0 0 C3.4375 1.5625 3.4375 1.5625 6 4 C6.72896484 4.67675781 6.72896484 4.67675781 7.47265625 5.3671875 C22.79990323 21.12563581 23.41946703 47.86782823 23.3125 68.625 C23.31067719 69.36368317 23.30885437 70.10236633 23.30697632 70.86343384 C23.2240201 90.91641036 22.64058312 114.89250292 9 131 C4.52868944 135.3595278 0.33197186 136.73239667 -5.8125 137.4375 C-11.75662865 137.24428741 -16.61584893 134.38415107 -20.76171875 130.23828125 C-27.88673171 121.39034325 -30.60369484 109.89308063 -33 99 C-33.18240234 98.19199951 -33.36480469 97.38399902 -33.55273438 96.55151367 C-35.31302867 87.62866961 -35.30425568 78.77565735 -35.26074219 69.71899414 C-35.25003394 67.07089265 -35.26068394 64.42347144 -35.2734375 61.77539062 C-35.28161483 52.33609928 -34.87269736 43.28867978 -33 34 C-32.85401367 33.23534424 -32.70802734 32.47068848 -32.55761719 31.68286133 C-30.1975474 19.99167254 -27.07216662 8.95536754 -16.734375 2.0234375 C-11.52972373 -1.04777564 -5.90858971 -0.50500767 0 0 Z " fill="#FCFCFC" transform="translate(254,211)"/>
<path d="M0 0 C4.36882285 3.46935932 7.15875225 7.54430789 9.875 12.375 C10.24367188 13.01695312 10.61234375 13.65890625 10.9921875 14.3203125 C16.93240389 26.06260072 18.23069247 39.30623323 18.25 52.25 C18.25161133 53.2709375 18.25322266 54.291875 18.25488281 55.34375 C17.96029051 75.61170065 13.10310383 99.71172613 -1.0625 115.0625 C-6.97059803 120.35901757 -13.01440118 122.95966374 -20.97265625 122.58203125 C-24.05040144 122.28598679 -27.07616159 121.89395122 -30.125 121.375 C-31.77808579 115.73988089 -31.5025352 109.81916215 -31.671875 103.9921875 C-31.69256798 103.30445126 -31.71326096 102.61671501 -31.73458099 101.90813828 C-32.28962215 83.10070509 -32.3474324 64.28748472 -32.36523438 45.47314453 C-32.37084191 40.41618458 -32.3952133 35.35947758 -32.42320633 30.30259895 C-32.44172985 26.37197059 -32.44703155 22.44140672 -32.44857025 18.51073837 C-32.4515929 16.64234828 -32.45960834 14.77395922 -32.47275543 12.90561295 C-32.48968664 10.32764985 -32.48797449 7.75035833 -32.48144531 5.17236328 C-32.4906601 4.40696228 -32.49987488 3.64156128 -32.5093689 2.85296631 C-32.49249268 0.74099731 -32.49249268 0.74099731 -32.125 -2.625 C-22.40577235 -9.1044851 -9.07812204 -6.16627157 0 0 Z " fill="#FBFBFB" transform="translate(539.125,224.625)"/>
<path d="M0 0 C5.2363961 2.50353244 8.11832335 7.0009942 10.15625 12.2890625 C14.13804533 25.08242343 14 36.23925632 14 50 C-0.85 50 -15.7 50 -31 50 C-31 34.71281389 -29.96877213 17.68828183 -18.90625 5.73828125 C-12.80084799 0.28544939 -8.25922862 -1.16359298 0 0 Z " fill="#FBFBFB" transform="translate(694,211)"/>
</svg>
