<?xml version="1.0" encoding="UTF-8"?>
<svg version="1.1" xmlns="http://www.w3.org/2000/svg" width="3840" height="3069">
<path d="M0 0 C1.18722656 0.25265625 2.37445312 0.5053125 3.59765625 0.765625 C22.40843908 4.80074561 40.75330367 9.91083756 59 16 C60.07588379 16.35819824 61.15176758 16.71639648 62.26025391 17.08544922 C78.96036038 22.713975 95.04380239 29.53286221 111 37 C111.96534668 37.45101074 112.93069336 37.90202148 113.92529297 38.36669922 C149.19961018 55.01904186 182.87658738 77.33775031 211.59375 103.8046875 C212.91428589 105.00946213 214.24261741 106.2065332 215.60375977 107.36523438 C221.76707015 112.62759841 227.49093371 118.30481418 233.2175293 124.03222656 C234.92543056 125.73794598 236.64118045 127.43549027 238.35742188 129.1328125 C244.30095902 135.04633287 249.87505118 141.04273643 255.09790039 147.60986328 C256.7014609 149.6248623 258.34002273 151.57678697 260.046875 153.50390625 C277.33599471 173.03003656 292.12214609 195.34901586 305 218 C305.65186279 219.143479 305.65186279 219.143479 306.31689453 220.31005859 C343.68196956 286.30568434 366.34397963 359.43890273 373 435 C373.14139404 436.46252197 373.14139404 436.46252197 373.28564453 437.95458984 C374.3425263 450.27605403 374.24283305 462.6422794 374.25 475 C374.25100708 476.20319885 374.25201416 477.40639771 374.25305176 478.64605713 C374.2426876 496.95982383 373.68693146 514.85895218 371 533 C370.85014648 534.05622559 370.70029297 535.11245117 370.54589844 536.20068359 C368.50563571 550.33307672 365.51604426 564.16638323 362 578 C362.52464844 577.48953125 363.04929687 576.9790625 363.58984375 576.453125 C419.18210818 524.28334607 504.85663847 499.88069366 579 492 C579.95551758 491.89558594 580.91103516 491.79117187 581.89550781 491.68359375 C669.98949769 482.48712834 758.16819317 500.28963413 837 540 C837.9163623 540.45761719 838.83272461 540.91523437 839.77685547 541.38671875 C871.05544606 557.07125791 900.60430632 577.46267302 927 600.40234375 C929.02426614 602.15512628 931.05286712 603.87352485 933.125 605.56640625 C940.97929579 612.04127375 948.24553388 619.05713815 955.4375 626.25 C955.91017303 626.72176666 956.38284607 627.19353333 956.86984253 627.67959595 C962.46670948 633.27768001 967.87017103 638.97169885 973 645 C973.96145018 646.10615538 974.92366147 647.21164978 975.88671875 648.31640625 C1024.45064419 704.45907866 1061.2226357 769.97354808 1080 842 C1080.27827637 843.06508789 1080.55655273 844.13017578 1080.84326172 845.22753906 C1091.95867846 888.57565191 1095.84322955 933.93112202 1093.25 978.5625 C1093.20709839 979.30745728 1093.16419678 980.05241455 1093.11999512 980.81994629 C1087.32351649 1078.84207763 1051.9526048 1176.27868759 969 1280 C967.72189453 1281.43472656 967.72189453 1281.43472656 966.41796875 1282.8984375 C952.48093791 1298.47526719 934.85296137 1315.57351931 916 1325 C916.89686523 1324.93071289 917.79373047 1324.86142578 918.71777344 1324.79003906 C930.56344094 1323.95474858 942.37705011 1323.75716335 954.25 1323.75 C955.77001617 1323.74898788 955.77001617 1323.74898788 957.32073975 1323.74795532 C973.73628685 1323.76524301 989.75342954 1324.46687942 1006 1327 C1007.12889648 1327.17160645 1008.25779297 1327.34321289 1009.42089844 1327.52001953 C1069.04737759 1336.80502234 1126.55205679 1358.59975513 1178 1390 C1178.76086914 1390.45858398 1179.52173828 1390.91716797 1180.30566406 1391.38964844 C1199.63287323 1403.0424295 1217.6962176 1416.53290324 1235 1431 C1235.78213867 1431.65258789 1235.78213867 1431.65258789 1236.58007812 1432.31835938 C1251.56058548 1444.85812291 1266.47776603 1458.06980025 1279.203125 1472.92578125 C1281.1746243 1475.20157718 1283.21134395 1477.40922667 1285.25 1479.625 C1290.29687123 1485.22600405 1294.91946515 1491.11232435 1299.515625 1497.08300781 C1301.01735046 1499.0224072 1302.53822153 1500.94548037 1304.0625 1502.8671875 C1350.82085984 1562.27993499 1379.51409086 1635.34074826 1391.75 1709.5625 C1391.93651123 1710.68180908 1392.12302246 1711.80111816 1392.31518555 1712.9543457 C1392.94066287 1716.96228317 1393.4898971 1720.97610049 1394 1725 C1394.12634827 1725.99146027 1394.25269653 1726.98292053 1394.38287354 1728.00442505 C1396.66825233 1746.46258738 1397.50241808 1764.69206843 1397.38692474 1783.28394318 C1397.37475611 1785.35398854 1397.36736776 1787.42400909 1397.36090088 1789.49407959 C1397.28912546 1809.47220379 1396.88637231 1829.19735945 1394 1849 C1393.79877401 1850.44067955 1393.598117 1851.88143866 1393.39794922 1853.32226562 C1385.84172434 1907.06054334 1370.40897835 1958.00222444 1347 2007 C1346.40783691 2008.25804443 1346.40783691 2008.25804443 1345.80371094 2009.54150391 C1331.7189346 2039.37194104 1313.47601853 2067.19036565 1293 2093 C1292.57493164 2093.53689453 1292.14986328 2094.07378906 1291.71191406 2094.62695312 C1287.11568163 2100.40486088 1282.31703919 2105.96929238 1277.3359375 2111.41796875 C1276.07459517 2112.81219497 1274.81907332 2114.21231127 1273.59960938 2115.64331055 C1268.47729223 2121.63464778 1262.96555524 2127.22057669 1257.39501953 2132.7902832 C1255.76172552 2134.42575882 1254.1366153 2136.06907708 1252.51171875 2137.71289062 C1245.98420426 2144.27496677 1239.25316092 2150.23912692 1232 2156 C1230.90991991 2156.92308078 1229.82529516 2157.85270653 1228.75 2158.79296875 C1214.50234957 2171.19894845 1199.06753574 2182.08687717 1183 2192 C1182.33355469 2192.41169434 1181.66710938 2192.82338867 1180.98046875 2193.24755859 C1168.66173368 2200.7972688 1155.89018792 2207.48547742 1143 2214 C1142.25282715 2214.37898438 1141.5056543 2214.75796875 1140.73583984 2215.1484375 C1094.66025937 2238.30046471 1042.6266537 2250.96341287 991.4375 2255.8125 C990.26469482 2255.92432617 989.09188965 2256.03615234 987.88354492 2256.15136719 C960.28113958 2258.51141714 932.55482452 2258.14536472 904.87980373 2258.12997987 C898.68236393 2258.12765807 892.48492681 2258.13119351 886.28748757 2258.13394669 C875.40125238 2258.13798565 864.51502284 2258.13836575 853.62878731 2258.13624074 C841.89602435 2258.13397017 830.16326437 2258.13391707 818.43050143 2258.13647345 C817.68426484 2258.13663465 816.93802825 2258.13679584 816.16917843 2258.13696192 C812.3584224 2258.13779453 808.54766638 2258.13866137 804.73691037 2258.13953945 C776.95743757 2258.14586338 749.17796621 2258.14725364 721.39849281 2258.14612198 C693.25090549 2258.14498894 665.10331947 2258.14602552 636.95573235 2258.14969444 C635.15920211 2258.14992644 633.36267187 2258.15015841 631.56614164 2258.15039036 C624.3221682 2258.15132993 617.07819476 2258.15228623 609.83422133 2258.15326155 C589.41634736 2258.15600653 568.99847335 2258.15838607 548.58059931 2258.16051352 C547.64506372 2258.16061107 546.70952813 2258.16070862 545.74564298 2258.16080913 C492.56932705 2258.16631135 439.39301104 2258.16661864 386.21669487 2258.16702999 C378.08944895 2258.16709324 369.96220303 2258.16715976 361.83495711 2258.16723054 C359.79785597 2258.16724823 357.76075484 2258.16726561 355.7236537 2258.16728266 C309.98331511 2258.16767062 264.24297667 2258.16984988 218.50263815 2258.17241292 C208.29075321 2258.17298448 198.07886828 2258.17353845 187.86698334 2258.17409355 C186.85330166 2258.17414867 185.83961999 2258.17420379 184.79522068 2258.17426058 C178.64191132 2258.17459509 172.48860196 2258.17492886 166.33529259 2258.17526215 C163.25275776 2258.17542923 160.17022292 2258.17559674 157.08768809 2258.17576428 C109.16144413 2258.17836605 61.23520015 2258.18059639 13.30895615 2258.18244648 C12.26474888 2258.18248685 11.22054162 2258.18252722 10.14469171 2258.18256881 C-56.38678989 2258.18513158 -122.91827141 2258.18603135 -189.44975306 2258.18576848 C-192.7208142 2258.18575573 -195.99187535 2258.18574376 -199.2629365 2258.18573207 C-222.24283777 2258.18564973 -245.22273904 2258.18554702 -268.20264032 2258.18543919 C-274.79130706 2258.18540842 -281.3799738 2258.18537836 -287.96864053 2258.18534838 C-293.46444391 2258.18532328 -298.96024728 2258.18529749 -304.45605066 2258.18527026 C-408.25123874 2258.18475888 -512.04642605 2258.18617608 -615.84161377 2258.19561768 C-616.93429804 2258.19571703 -618.02698232 2258.19581639 -619.15277824 2258.19591876 C-653.29374671 2258.19903014 -687.43471515 2258.20239662 -721.57568359 2258.20581055 C-756.60805638 2258.20931206 -791.64042917 2258.21278258 -826.67280197 2258.21607494 C-827.75151939 2258.21617647 -828.8302368 2258.216278 -829.94164262 2258.2163826 C-897.5169079 2258.22273344 -965.09217295 2258.22665394 -1032.66743851 2258.22793293 C-1033.71137857 2258.22795296 -1034.75531862 2258.22797299 -1035.83089323 2258.22799362 C-1081.68165382 2258.22886901 -1127.53241439 2258.22918869 -1173.38317498 2258.22890273 C-1191.82977444 2258.22878846 -1210.2763739 2258.22873239 -1228.72297337 2258.22869941 C-1231.78141205 2258.22869301 -1234.83985074 2258.22868394 -1237.89828943 2258.22867426 C-1284.65498402 2258.22853784 -1331.41167789 2258.22987944 -1378.16837215 2258.23571944 C-1379.17594853 2258.23584511 -1380.1835249 2258.23597079 -1381.22163389 2258.23610027 C-1397.42851367 2258.23812915 -1413.63539343 2258.24027321 -1429.84227319 2258.24242707 C-1475.87242283 2258.24853939 -1521.90257151 2258.25357789 -1567.93272161 2258.2514559 C-1568.86758293 2258.25141319 -1569.80244425 2258.25137048 -1570.7656347 2258.25132647 C-1591.16599447 2258.2503729 -1611.56635416 2258.24885683 -1631.96671385 2258.24678975 C-1640.10411576 2258.24597349 -1648.24151768 2258.24522984 -1656.3789196 2258.24450874 C-1657.26654495 2258.24442809 -1658.1541703 2258.24434744 -1659.06869339 2258.24426434 C-1687.17243781 2258.24174502 -1715.27617692 2258.2453476 -1743.37992041 2258.25252656 C-1771.07773741 2258.25957571 -1798.77554703 2258.2604977 -1826.47336404 2258.25263963 C-1830.27766513 2258.25156117 -1834.08196622 2258.25055225 -1837.88626733 2258.24958507 C-1839.00329776 2258.24929704 -1839.00329776 2258.24929704 -1840.14289446 2258.2490032 C-1851.82443484 2258.24617171 -1863.50596282 2258.24995763 -1875.18750121 2258.25666567 C-1886.65273399 2258.26311122 -1898.11794187 2258.26214795 -1909.58317487 2258.2540718 C-1915.67192035 2258.24998359 -1921.76062131 2258.24885774 -1927.84936398 2258.25682249 C-1949.28694614 2258.2829384 -1970.68772713 2258.23536202 -1992.09978318 2257.08991319 C-1992.85456554 2257.04972384 -1993.60934791 2257.00953449 -1994.38700246 2256.96812728 C-2054.60439277 2253.65688832 -2113.70504642 2238.88417663 -2169 2215 C-2169.96969727 2214.58395508 -2170.93939453 2214.16791016 -2171.93847656 2213.73925781 C-2185.24540826 2207.99069979 -2198.00130578 2201.44531727 -2210.62890625 2194.33398438 C-2212.65276121 2193.19535757 -2214.68320151 2192.07063659 -2216.71875 2190.953125 C-2234.68167037 2180.94521222 -2251.68256064 2169.49180155 -2268 2157 C-2268.64404785 2156.50902832 -2269.2880957 2156.01805664 -2269.95166016 2155.51220703 C-2287.49394756 2142.09261194 -2303.73707104 2127.32810085 -2319.375 2111.75 C-2320.21949707 2110.91017578 -2321.06399414 2110.07035156 -2321.93408203 2109.20507812 C-2326.82920722 2104.29734413 -2331.50181956 2099.27253983 -2336 2094 C-2336.845625 2093.03578125 -2337.69125 2092.0715625 -2338.5625 2091.078125 C-2404.25258427 2014.86078364 -2442.84790191 1913.28485249 -2443.203125 1812.57421875 C-2443.21010403 1811.22635874 -2443.21714499 1809.87849904 -2443.22424316 1808.53063965 C-2443.24351167 1804.24958891 -2443.24841843 1799.96858939 -2443.25 1795.6875 C-2443.25058914 1794.9590601 -2443.25117828 1794.23062019 -2443.25178528 1793.48010635 C-2443.26414956 1771.83363235 -2442.89655778 1750.49078941 -2440 1729 C-2439.70642138 1726.60424132 -2439.41345916 1724.20840703 -2439.12109375 1721.8125 C-2428.15283635 1635.83589255 -2392.27102139 1550.21841165 -2336 1484 C-2335.09236424 1482.91803894 -2334.18481745 1481.83600324 -2333.27734375 1480.75390625 C-2320.01491745 1465.02750744 -2305.96387725 1449.18431135 -2290.22265625 1435.8828125 C-2288.37400172 1434.31681693 -2286.55696541 1432.72628072 -2284.74609375 1431.1171875 C-2276.4964486 1423.81756153 -2267.99940883 1417.01753651 -2259.09765625 1410.53125 C-2256.94275458 1408.95821191 -2254.79929719 1407.37039016 -2252.65625 1405.78125 C-2173.03653524 1347.08228959 -2076.4342171 1317.3160344 -1968 1318 C-1968.7019751 1317.56719727 -1969.4039502 1317.13439453 -1970.12719727 1316.68847656 C-1976.01931875 1313.00608815 -1981.59526619 1309.18991329 -1986.9375 1304.75 C-1987.6186084 1304.18917725 -1988.2997168 1303.62835449 -1989.00146484 1303.05053711 C-1995.19841496 1297.90871192 -2001.19585673 1292.58380249 -2007 1287 C-2007.56992676 1286.4519873 -2008.13985352 1285.90397461 -2008.72705078 1285.33935547 C-2015.52013437 1278.76640961 -2022.00639445 1272.11827923 -2027.87109375 1264.6875 C-2030.11635885 1261.8531103 -2032.45908438 1259.12002994 -2034.8125 1256.375 C-2050.46715607 1237.59425936 -2063.23330066 1216.36324838 -2075 1195 C-2075.49113281 1194.11103027 -2075.98226562 1193.22206055 -2076.48828125 1192.30615234 C-2096.04084709 1156.63819665 -2110.08681437 1118.39201836 -2120 1079 C-2120.27537598 1077.91879883 -2120.55075195 1076.83759766 -2120.83447266 1075.72363281 C-2130.63059416 1036.83438855 -2135.23400137 996.81782153 -2135.1875 956.75 C-2135.18689575 955.78334412 -2135.1862915 954.81668823 -2135.18566895 953.82073975 C-2135.15860148 937.80241362 -2134.70925945 921.94054892 -2133 906 C-2132.87641113 904.83533203 -2132.75282227 903.67066406 -2132.62548828 902.47070312 C-2126.24004324 844.73080007 -2108.88603976 789.92247688 -2083 738 C-2082.57750977 737.15099121 -2082.15501953 736.30198242 -2081.71972656 735.42724609 C-2072.01264231 716.07956447 -2060.6389009 697.56764954 -2048 680 C-2047.46407227 679.25298828 -2046.92814453 678.50597656 -2046.37597656 677.73632812 C-2038.72349392 667.11103278 -2030.76382029 656.79727344 -2022.41064453 646.71484375 C-2021.16276956 645.19787009 -2019.93707342 643.66271117 -2018.71484375 642.125 C-2010.35998982 631.6306788 -2001.01252373 621.93516838 -1991.49780273 612.49072266 C-1990.21540448 611.21438627 -1988.94970044 609.92131396 -1987.6875 608.625 C-1978.40249625 599.55592657 -1968.37639405 591.76546132 -1958 584 C-1956.83573486 583.12239014 -1956.83573486 583.12239014 -1955.64794922 582.22705078 C-1944.7226646 573.99764484 -1933.62897928 566.20306293 -1922 559 C-1921.24170898 558.52884766 -1920.48341797 558.05769531 -1919.70214844 557.57226562 C-1854.09313808 517.01002975 -1781.91094497 492.50962752 -1705 486 C-1704.18128418 485.92797363 -1703.36256836 485.85594727 -1702.51904297 485.78173828 C-1606.02958507 477.63104914 -1505.58335324 503.78028027 -1415 559 C-1413.77506836 559.76352783 -1413.77506836 559.76352783 -1412.52539062 560.54248047 C-1410.68233675 561.69297575 -1408.84094694 562.84613634 -1407 564 C-1407.2582959 563.09411133 -1407.5165918 562.18822266 -1407.78271484 561.25488281 C-1410.30584442 552.14728574 -1412.18480671 543.10064939 -1413.625 533.75 C-1413.78325256 532.74169128 -1413.78325256 532.74169128 -1413.94470215 531.7130127 C-1415.65121918 520.83903212 -1417.1573678 509.97692428 -1418 499 C-1418.05639648 498.30277832 -1418.11279297 497.60555664 -1418.17089844 496.88720703 C-1425.16303993 406.50653785 -1403.75605278 315.42491508 -1327 177 C-1326.24332031 175.9584375 -1325.48664063 174.916875 -1324.70703125 173.84375 C-1315.97021791 162.00369695 -1306.70170989 150.57549016 -1296.6328125 139.84375 C-1294.60868426 137.65745125 -1292.6509642 135.44718825 -1290.70703125 133.19140625 C-1286.84027404 128.75354262 -1282.7345513 124.58701997 -1278.5625 120.4375 C-1277.85029297 119.72142578 -1277.13808594 119.00535156 -1276.40429688 118.26757812 C-1271.76652766 113.63823356 -1266.96972076 109.26840397 -1262 105 C-1260.95185787 104.0743495 -1259.90490653 103.14734819 -1258.859375 102.21875 C-1235.68907131 81.85505296 -1209.86836749 65.03738417 -1183 50 C-1181.68612305 49.26354248 -1181.68612305 49.26354248 -1180.34570312 48.51220703 C-1125.62643013 18.14405878 -1061.33529395 0.2636096 -999 -5 C-997.39995117 -5.13716431 -997.39995117 -5.13716431 -995.76757812 -5.27709961 C-981.75994126 -6.30090364 -967.72594286 -6.24580019 -953.6875 -6.25 C-953.01047153 -6.25044186 -952.33344307 -6.25088371 -951.63589859 -6.25133896 C-929.96057862 -6.25874588 -908.51704521 -5.82558099 -887 -3 C-886.33319214 -2.91278687 -885.66638428 -2.82557373 -884.97937012 -2.73571777 C-856.06495449 1.08284379 -827.77927337 7.07795102 -800 16 C-798.90945313 16.34933594 -797.81890625 16.69867187 -796.6953125 17.05859375 C-775.35869808 23.97652218 -754.78059938 32.65000411 -734.88916016 43.01855469 C-732.90536212 44.04916571 -730.91209795 45.05985344 -728.91796875 46.0703125 C-703.02854388 59.32598646 -679.30037191 76.41876629 -657 95 C-655.98921387 95.83837402 -654.97842773 96.67674805 -653.93701172 97.54052734 C-645.37362523 104.71819589 -637.37151557 112.34635806 -629.51098633 120.28320312 C-627.54505282 122.26761113 -625.5710152 124.2436814 -623.59570312 126.21875 C-617.52409489 132.30685717 -611.50732807 138.38862374 -606 145 C-605.46415283 145.6290625 -604.92830566 146.258125 -604.3762207 146.90625 C-585.44854868 169.19433997 -568.40941585 193.5489576 -554 219 C-553.5683252 219.75796875 -553.13665039 220.5159375 -552.69189453 221.296875 C-546.20946484 232.74519235 -540.22445774 244.4088612 -534.5 256.25 C-534.20267975 256.86329163 -533.9053595 257.47658325 -533.59902954 258.10845947 C-524 277.95833948 -524 277.95833948 -524 282 C-523.34 282 -522.68 282 -522 282 C-521.91878906 281.36707031 -521.83757812 280.73414063 -521.75390625 280.08203125 C-520.68211006 275.70043958 -518.81449321 271.7784224 -516.9375 267.6875 C-516.53265381 266.79812744 -516.12780762 265.90875488 -515.71069336 264.99243164 C-511.99884147 256.89364795 -508.07836659 248.91935803 -504 241 C-503.62262695 240.25927246 -503.24525391 239.51854492 -502.85644531 238.75537109 C-484.26489537 202.31075621 -460.60548275 167.68064959 -432.59765625 137.80859375 C-430.63562969 135.68724473 -428.74596998 133.54417217 -426.8671875 131.3515625 C-422.62778127 126.48660424 -418.08264519 121.93216959 -413.51196289 117.3815918 C-412.06475615 115.93974779 -410.62297974 114.49262884 -409.18164062 113.04492188 C-403.95805078 107.81730347 -398.63314096 102.78395539 -393 98 C-392.03578125 97.154375 -391.0715625 96.30875 -390.078125 95.4375 C-369.70290857 77.87653998 -347.39691138 62.27258417 -324 49 C-322.74340576 48.28360352 -322.74340576 48.28360352 -321.46142578 47.55273438 C-287.56799331 28.36258717 -251.72472845 14.49599155 -214 5 C-213.04254883 4.75556152 -212.08509766 4.51112305 -211.09863281 4.25927734 C-194.60170275 0.09796974 -177.83896134 -2.65500075 -161 -5 C-159.2363208 -5.25209229 -159.2363208 -5.25209229 -157.43701172 -5.50927734 C-106.6464373 -12.40182471 -50.01131631 -10.92000867 0 0 Z " fill="#FEFEFE" transform="translate(2443,8)"/>
<path d="M0 0 C1.96410169 0.33593558 3.9282048 0.67186306 5.89237976 1.00737 C22.59726002 3.88922933 38.878765 7.7492642 55 13 C56.04994141 13.33902344 57.09988281 13.67804688 58.18164062 14.02734375 C78.84606505 20.76332926 98.79785095 28.96048162 118.07861328 39.00244141 C120.0759144 40.03941375 122.08241284 41.05701313 124.08984375 42.07421875 C151.23034177 55.96790702 176.28763461 74.09785883 198.62890625 94.8125 C200.69456213 96.71821218 202.79732579 98.5543201 204.9375 100.375 C213.24475965 107.60539266 220.88161925 115.60889421 228 124 C228.85722656 124.96808594 229.71445313 125.93617188 230.59765625 126.93359375 C261.33889072 161.80679809 284.23145933 203.43121019 300 247 C300.36432129 248.00224609 300.72864258 249.00449219 301.10400391 250.03710938 C311.14414895 278.17401514 317.66385743 308.34261233 321 338 C321.14663086 339.2384668 321.29326172 340.47693359 321.44433594 341.75292969 C327.04386343 390.55913387 324.43268355 439.56894754 317.06387329 488.01219177 C315.58133054 497.76803999 314.26203983 507.53884997 312.99410629 517.32440186 C311.13430721 531.67190685 309.17185703 545.99946816 307.0625 560.3125 C306.87510569 561.58469894 306.87510569 561.58469894 306.68392563 562.88259888 C305.66578113 569.78701156 304.64035393 576.69033892 303.61462402 583.59362793 C302.71884956 589.62441885 301.82599644 595.65563233 300.9375 601.6875 C300.74953165 602.96293639 300.74953165 602.96293639 300.55776596 604.26413918 C298.76041059 616.48906245 297.0896018 628.72592065 295.5078125 640.98046875 C293.80214639 654.19150012 291.95998875 667.37619291 289.9921875 680.55078125 C289.86451241 681.40589169 289.73683731 682.26100212 289.60529327 683.14202499 C288.56823728 690.07880523 287.52315106 697.0143712 286.47729492 703.9498291 C285.56153164 710.02454174 284.64893252 716.0997155 283.7421875 722.17578125 C283.61673931 723.01629847 283.49129112 723.85681568 283.36204147 724.72280312 C281.94920354 734.21850659 280.61172107 743.70967692 279.53125 753.25 C278.26815899 764.39333043 276.66993482 775.47999815 275.0390625 786.57421875 C274.90250118 787.50352518 274.76593987 788.43283161 274.62524033 789.39029884 C273.62970144 796.15670594 272.62782979 802.92217027 271.625 809.6875 C270.48844348 817.35752322 269.35456778 825.02793287 268.2265625 832.69921875 C268.08739662 833.64517788 267.94823074 834.59113701 267.80484772 835.56576157 C265.79915993 849.22724728 263.92875394 862.90110972 262.1606636 876.59519005 C260.57579367 888.85188453 258.86399433 901.08578143 257.0625 913.3125 C256.87462984 914.58800437 256.87462984 914.58800437 256.68296432 915.8892765 C255.66514109 922.79146339 254.64002341 929.69256336 253.61462402 936.59362793 C252.71884957 942.62441881 251.82594672 948.65562502 250.9375 954.6875 C250.81222931 955.53768707 250.68695862 956.38787415 250.55789185 957.26382446 C248.75998624 969.49553448 247.08493414 981.73899027 245.5 994 C243.80374133 1007.12221342 241.99126154 1020.22238198 240.0625 1033.3125 C239.93730988 1034.16244537 239.81211975 1035.01239075 239.68313599 1035.88809204 C238.66525543 1042.79067374 237.64008205 1049.69216874 236.61462402 1056.59362793 C235.71884956 1062.62441885 234.82599644 1068.65563233 233.9375 1074.6875 C233.81218777 1075.53779093 233.68687553 1076.38808186 233.55776596 1077.26413918 C231.76041059 1089.48906245 230.0896018 1101.72592065 228.5078125 1113.98046875 C226.80214639 1127.19150012 224.95998875 1140.37619291 222.9921875 1153.55078125 C222.86451241 1154.40589169 222.73683731 1155.26100212 222.60529327 1156.14202499 C221.56823728 1163.07880523 220.52315106 1170.0143712 219.47729492 1176.9498291 C218.56153164 1183.02454173 217.64891824 1189.09971338 216.7421875 1195.17578125 C216.61657314 1196.01746164 216.49095879 1196.85914204 216.36153793 1197.7263279 C214.9597868 1207.14813701 213.6305815 1216.5647284 212.5625 1226.03125 C211.23547853 1237.75975203 209.5331773 1249.4284169 207.8203125 1261.10546875 C207.67276394 1262.11168589 207.52521538 1263.11790302 207.37319565 1264.15461159 C206.29495256 1271.49957138 205.21043033 1278.84359947 204.125 1286.1875 C202.89477744 1294.51378661 201.66718333 1302.8404521 200.4453125 1311.16796875 C200.22020367 1312.70142756 200.22020367 1312.70142756 199.99054718 1314.26586533 C197.91545496 1328.42792394 195.9632822 1342.60061841 194.13196182 1356.79610252 C192.5573395 1368.98594037 190.85406558 1381.15266304 189.0625 1393.3125 C188.87456186 1394.58848022 188.87456186 1394.58848022 188.682827 1395.89023781 C187.6650497 1402.79210427 186.63997584 1409.69288353 185.61462402 1416.59362793 C184.71884956 1422.62441885 183.82599644 1428.65563233 182.9375 1434.6875 C182.81218777 1435.53779093 182.68687553 1436.38808186 182.55776596 1437.26413918 C180.76041059 1449.48906245 179.0896018 1461.72592065 177.5078125 1473.98046875 C175.80214639 1487.19150012 173.95998875 1500.37619291 171.9921875 1513.55078125 C171.86451241 1514.40589169 171.73683731 1515.26100212 171.60529327 1516.14202499 C170.56823728 1523.07880523 169.52315106 1530.0143712 168.47729492 1536.9498291 C167.56153164 1543.02454174 166.64893252 1549.0997155 165.7421875 1555.17578125 C165.61673931 1556.01629847 165.49129112 1556.85681568 165.36204147 1557.72280312 C163.94920354 1567.21850659 162.61172107 1576.70967692 161.53125 1586.25 C160.26815899 1597.39333043 158.66993482 1608.47999815 157.0390625 1619.57421875 C156.90250118 1620.50352518 156.76593987 1621.43283161 156.62524033 1622.39029884 C155.62970144 1629.15670594 154.62782979 1635.92217027 153.625 1642.6875 C152.48844348 1650.35752322 151.35456778 1658.02793287 150.2265625 1665.69921875 C150.01781368 1667.11815744 150.01781368 1667.11815744 149.80484772 1668.56576157 C147.79915993 1682.22724728 145.92875394 1695.90110972 144.1606636 1709.59519005 C142.57579367 1721.85188453 140.86399433 1734.08578143 139.0625 1746.3125 C138.93725323 1747.16283625 138.81200645 1748.01317249 138.68296432 1748.8892765 C137.66514109 1755.79146339 136.64002341 1762.69256336 135.61462402 1769.59362793 C134.71884957 1775.62441882 133.82597136 1781.65562866 132.9375 1787.6875 C132.81422333 1788.52406128 132.69094666 1789.36062256 132.56393433 1790.22253418 C129.83487152 1808.78761781 127.38593653 1827.38809376 125 1846 C122.26429759 1844.63214879 122.1173186 1843.28396404 120.98828125 1840.45703125 C120.36457642 1838.91885742 120.36457642 1838.91885742 119.72827148 1837.34960938 C119.0274646 1835.59874023 119.0274646 1835.59874023 118.3125 1833.8125 C117.23208473 1831.15007782 116.14407926 1828.4907916 115.0546875 1825.83203125 C114.74963791 1825.0867215 114.44458832 1824.34141174 114.1302948 1823.57351685 C109.51429957 1812.3341027 104.71003102 1801.17355343 99.9375 1790 C97.91861462 1785.26981107 95.90050342 1780.5392923 93.8828125 1775.80859375 C93.38348206 1774.63793365 92.88415161 1773.46727356 92.36968994 1772.26113892 C87.65690032 1761.20631288 82.97989715 1750.13655151 78.3125 1739.0625 C71.90506489 1723.86211056 65.46567434 1708.6757085 59 1693.5 C52.076307 1677.2491008 45.18579736 1660.98460775 38.32275391 1644.70800781 C32.24388293 1630.2930473 26.13189096 1615.89248177 20 1601.5 C13.07632952 1585.24909114 6.1857974 1568.98460785 -0.67724609 1552.70800781 C-7.17356701 1537.30313907 -13.71021692 1521.91575152 -20.26327515 1506.53494263 C-26.30728086 1492.34735454 -32.32206301 1478.14778389 -38.3125 1463.9375 C-45.33671629 1447.27526833 -52.40737422 1430.63322168 -59.5 1414 C-66.9834592 1396.45021804 -74.43748569 1378.8885432 -81.84863281 1361.30810547 C-87.86980984 1347.02619821 -93.92487631 1332.75903956 -100 1318.5 C-106.923693 1302.2491008 -113.81420264 1285.98460775 -120.67724609 1269.70800781 C-127.17356701 1254.30313907 -133.71021692 1238.91575152 -140.26327515 1223.53494263 C-146.30728086 1209.34735454 -152.32206301 1195.14778389 -158.3125 1180.9375 C-165.33671629 1164.27526833 -172.40737422 1147.63322168 -179.5 1131 C-186.9834592 1113.45021804 -194.43748569 1095.8885432 -201.84863281 1078.30810547 C-207.86980984 1064.02619821 -213.92487631 1049.75903956 -220 1035.5 C-226.923693 1019.2491008 -233.81420264 1002.98460775 -240.67724609 986.70800781 C-246.75611707 972.2930473 -252.86810904 957.89248177 -259 943.5 C-265.92367048 927.24909114 -272.8142026 910.98460785 -279.67724609 894.70800781 C-286.17356701 879.30313907 -292.71021692 863.91575152 -299.26327515 848.53494263 C-305.30728086 834.34735454 -311.32206301 820.14778389 -317.3125 805.9375 C-324.33671629 789.27526833 -331.40737422 772.63322168 -338.5 756 C-345.9834592 738.45021804 -353.43748569 720.8885432 -360.84863281 703.30810547 C-366.86980984 689.02619821 -372.92487631 674.75903956 -379 660.5 C-386.31616396 643.32791524 -393.60196889 626.1433744 -400.84008789 608.93823242 C-404.92001011 599.24754859 -409.03765256 589.57497066 -413.21484375 579.92578125 C-431.02834528 538.71472578 -445.1136048 498.30541266 -453 454 C-453.17692383 453.02844971 -453.35384766 452.05689941 -453.53613281 451.0559082 C-460.46111637 411.63025572 -461.69536826 370.62770068 -456 331 C-455.7914846 329.37779425 -455.5843454 327.7554107 -455.37890625 326.1328125 C-450.4098904 289.08780554 -438.32248269 252.52407447 -422 219 C-421.52095215 218.01290039 -421.0419043 217.02580078 -420.54833984 216.00878906 C-410.44035519 195.42339087 -398.52445721 175.78575058 -384.35693359 157.73779297 C-383.03783631 156.04845608 -381.74373212 154.3430025 -380.45703125 152.62890625 C-365.73441863 133.07348031 -348.96166061 113.7517791 -330.2421875 97.90625 C-328.43131772 96.3666952 -326.65363477 94.80355711 -324.8828125 93.21875 C-302.74643188 73.52120107 -277.95815653 56.28267748 -252 42 C-251.1136084 41.50967285 -250.2272168 41.0193457 -249.31396484 40.51416016 C-232.67946817 31.39056925 -215.64690181 23.89232747 -198 17 C-197.19191895 16.67950684 -196.38383789 16.35901367 -195.55126953 16.02880859 C-190.75920022 14.14458602 -185.92502207 12.50137666 -181 11 C-179.9908252 10.6911084 -178.98165039 10.3822168 -177.94189453 10.06396484 C-122.29524236 -6.61328178 -57.05123377 -10.37794339 0 0 Z " fill="#CC004C" transform="translate(1556,78)"/>
<path d="M0 0 C1.02383789 0.20077148 2.04767578 0.40154297 3.10253906 0.60839844 C71.93500942 14.43454306 133.64222128 51.0776658 185 98 C186.00484479 98.90014558 187.01007228 99.79986407 188.015625 100.69921875 C205.41928407 116.37421364 221.05797368 134.19745075 235 153 C235.48936035 153.65274902 235.9787207 154.30549805 236.48291016 154.97802734 C277.42076556 209.71057585 304.50519641 274.94618243 312 343 C312.10296387 343.85190918 312.20592773 344.70381836 312.31201172 345.58154297 C315.68794161 374.00228607 315.95866735 404.62955063 312 433 C311.90763062 433.66735168 311.81526123 434.33470337 311.72009277 435.02227783 C307.94190786 462.15535407 302.74514306 488.27199086 294.125 514.3125 C293.76084991 515.41467865 293.76084991 515.41467865 293.38934326 516.53912354 C287.12220405 535.38176191 279.37416453 553.6404507 271.6875 571.9375 C270.90616999 573.8007477 270.12492211 575.66402984 269.34375 577.52734375 C263.35557477 591.80320079 257.33354911 606.06474415 251.30627441 620.3241272 C245.49175994 634.08070343 239.70115975 647.84703833 233.9375 661.625 C233.56769012 662.50899475 233.19788025 663.3929895 232.81686401 664.30377197 C230.21022105 670.53542099 227.6049466 676.76764172 225 683 C222.02178788 690.12539941 219.04294506 697.25053426 216.0625 704.375 C215.69277069 705.25883362 215.32304138 706.14266724 214.94210815 707.05328369 C208.76064344 721.82645812 202.53848381 736.58221829 196.30252075 751.3324585 C190.50655051 765.04314925 184.74051859 778.76600414 179 792.5 C172.86416149 807.17978535 166.69556222 821.84532196 160.5 836.5 C154.28685481 851.1976572 148.09557996 865.9041814 141.9375 880.625 C141.56769012 881.50899475 141.19788025 882.3929895 140.81686401 883.30377197 C138.21022105 889.53542099 135.6049466 895.76764172 133 902 C130.02178788 909.12539941 127.04294506 916.25053426 124.0625 923.375 C123.69277069 924.25883362 123.32304138 925.14266724 122.94210815 926.05328369 C116.76093175 940.8257691 110.53851189 955.58060244 104.30352783 970.33044434 C98.48994249 984.08492012 92.70027348 997.84915695 86.9375 1011.625 C86.56769012 1012.50899475 86.19788025 1013.3929895 85.81686401 1014.30377197 C83.21022105 1020.53542099 80.6049466 1026.76764172 78 1033 C75.02178788 1040.12539941 72.04294506 1047.25053426 69.0625 1054.375 C68.69277069 1055.25883362 68.32304138 1056.14266724 67.94210815 1057.05328369 C61.76064344 1071.82645812 55.53848381 1086.58221829 49.30252075 1101.3324585 C43.50655051 1115.04314925 37.74051859 1128.76600414 32 1142.5 C25.86416149 1157.17978535 19.69556222 1171.84532196 13.5 1186.5 C7.28685481 1201.1976572 1.09557996 1215.9041814 -5.0625 1230.625 C-5.43230988 1231.50899475 -5.80211975 1232.3929895 -6.18313599 1233.30377197 C-8.78977895 1239.53542099 -11.3950534 1245.76764172 -14 1252 C-16.97821212 1259.12539941 -19.95705494 1266.25053426 -22.9375 1273.375 C-23.30722931 1274.25883362 -23.67695862 1275.14266724 -24.05789185 1276.05328369 C-30.23935656 1290.82645812 -36.46151619 1305.58221829 -42.69747925 1320.3324585 C-48.49344949 1334.04314925 -54.25948141 1347.76600414 -60 1361.5 C-66.13583851 1376.17978535 -72.30443778 1390.84532196 -78.5 1405.5 C-84.71314519 1420.1976572 -90.90442004 1434.9041814 -97.0625 1449.625 C-97.43230988 1450.50899475 -97.80211975 1451.3929895 -98.18313599 1452.30377197 C-100.78977895 1458.53542099 -103.3950534 1464.76764172 -106 1471 C-108.97821212 1478.12539941 -111.95705494 1485.25053426 -114.9375 1492.375 C-115.30722931 1493.25883362 -115.67695862 1494.14266724 -116.05789185 1495.05328369 C-122.23906825 1509.8257691 -128.46148811 1524.58060244 -134.69647217 1539.33044434 C-140.51005751 1553.08492012 -146.29972652 1566.84915695 -152.0625 1580.625 C-152.43230988 1581.50899475 -152.80211975 1582.3929895 -153.18313599 1583.30377197 C-155.78977895 1589.53542099 -158.3950534 1595.76764172 -161 1602 C-163.97821212 1609.12539941 -166.95705494 1616.25053426 -169.9375 1623.375 C-170.30722931 1624.25883362 -170.67695862 1625.14266724 -171.05789185 1626.05328369 C-177.23935656 1640.82645812 -183.46151619 1655.58221829 -189.69747925 1670.3324585 C-195.49344949 1684.04314925 -201.25948141 1697.76600414 -207 1711.5 C-213.13583845 1726.17978519 -219.30439839 1740.84533868 -225.5 1755.5 C-238.094946 1785.29347718 -250.58124609 1815.13265711 -263 1845 C-263.66 1845 -264.32 1845 -265 1845 C-266.68042525 1833.83535651 -268.34769695 1822.66884198 -270 1811.5 C-271.1590486 1803.6655081 -272.32201363 1795.83166763 -273.5 1788 C-274.85399263 1778.99818085 -276.18730282 1769.99334412 -277.51953125 1760.98828125 C-278.5059301 1754.32444172 -279.49802022 1747.66151389 -280.5 1741 C-281.85399263 1731.99818085 -283.18730282 1722.99334412 -284.51953125 1713.98828125 C-285.5059301 1707.32444172 -286.49802022 1700.66151389 -287.5 1694 C-288.67798645 1686.16833187 -289.84074993 1678.33446236 -291 1670.5 C-291.34631827 1668.1627551 -291.69267182 1665.82551542 -292.0390625 1663.48828125 C-292.59825127 1659.71511961 -293.15585341 1655.94173608 -293.7109375 1652.16796875 C-294.9077463 1644.07521978 -296.15667637 1635.99204941 -297.44921875 1627.9140625 C-297.7163226 1626.23999247 -297.98341226 1624.56592017 -298.25048828 1622.8918457 C-298.77739042 1619.59023886 -299.30897915 1616.28943316 -299.84326172 1612.98901367 C-301.18109902 1604.65501297 -302.35808483 1596.33062081 -303.2973175 1587.94212341 C-303.87387637 1582.86151476 -304.6386494 1577.83959634 -305.51757812 1572.80371094 C-306.35699004 1567.92526638 -307.03999657 1563.023644 -307.75 1558.125 C-308.95569075 1549.87138094 -310.20738675 1541.62727 -311.5234375 1533.390625 C-311.65544556 1532.56299652 -311.78745361 1531.73536804 -311.92346191 1530.88265991 C-312.57534869 1526.80004816 -313.23146588 1522.71817631 -313.89355469 1518.63720703 C-315.21446163 1510.42777257 -316.36829228 1502.22777321 -317.29415894 1493.9642334 C-317.87203623 1488.87627869 -318.63736973 1483.8469283 -319.51757812 1478.80371094 C-320.35699004 1473.92526638 -321.03999657 1469.023644 -321.75 1464.125 C-322.95569075 1455.87138094 -324.20738675 1447.62727 -325.5234375 1439.390625 C-325.65544556 1438.56299652 -325.78745361 1437.73536804 -325.92346191 1436.88265991 C-326.57534869 1432.80004816 -327.23146588 1428.71817631 -327.89355469 1424.63720703 C-329.21446163 1416.42777257 -330.36829228 1408.22777321 -331.29415894 1399.9642334 C-331.87203623 1394.87627869 -332.63736973 1389.8469283 -333.51757812 1384.80371094 C-334.35699004 1379.92526638 -335.03999657 1375.023644 -335.75 1370.125 C-336.95569075 1361.87138094 -338.20738675 1353.62727 -339.5234375 1345.390625 C-339.65544556 1344.56299652 -339.78745361 1343.73536804 -339.92346191 1342.88265991 C-340.57534869 1338.80004816 -341.23146588 1334.71817631 -341.89355469 1330.63720703 C-343.21446163 1322.42777257 -344.36829228 1314.22777321 -345.29415894 1305.9642334 C-345.87203623 1300.87627869 -346.63736973 1295.8469283 -347.51757812 1290.80371094 C-348.35699004 1285.92526638 -349.03999657 1281.023644 -349.75 1276.125 C-350.95569075 1267.87138094 -352.20738675 1259.62727 -353.5234375 1251.390625 C-353.65544556 1250.56299652 -353.78745361 1249.73536804 -353.92346191 1248.88265991 C-354.57534869 1244.80004816 -355.23146588 1240.71817631 -355.89355469 1236.63720703 C-357.21446163 1228.42777257 -358.36829228 1220.22777321 -359.29415894 1211.9642334 C-359.87203623 1206.87627869 -360.63736973 1201.8469283 -361.51757812 1196.80371094 C-362.35699004 1191.92526638 -363.03999657 1187.023644 -363.75 1182.125 C-364.95569075 1173.87138094 -366.20738675 1165.62727 -367.5234375 1157.390625 C-367.65544556 1156.56299652 -367.78745361 1155.73536804 -367.92346191 1154.88265991 C-368.57534869 1150.80004816 -369.23146588 1146.71817631 -369.89355469 1142.63720703 C-371.21446163 1134.42777257 -372.36829228 1126.22777321 -373.29415894 1117.9642334 C-373.87203623 1112.87627869 -374.63736973 1107.8469283 -375.51757812 1102.80371094 C-376.35699004 1097.92526638 -377.03999657 1093.023644 -377.75 1088.125 C-378.95569075 1079.87138094 -380.20738675 1071.62727 -381.5234375 1063.390625 C-381.65544556 1062.56299652 -381.78745361 1061.73536804 -381.92346191 1060.88265991 C-382.57534869 1056.80004816 -383.23146588 1052.71817631 -383.89355469 1048.63720703 C-385.21446163 1040.42777257 -386.36829228 1032.22777321 -387.29415894 1023.9642334 C-387.87203623 1018.87627869 -388.63736973 1013.8469283 -389.51757812 1008.80371094 C-390.35699004 1003.92526638 -391.03999657 999.023644 -391.75 994.125 C-392.95569075 985.87138094 -394.20738675 977.62727 -395.5234375 969.390625 C-395.65544556 968.56299652 -395.78745361 967.73536804 -395.92346191 966.88265991 C-396.57534869 962.80004816 -397.23146588 958.71817631 -397.89355469 954.63720703 C-399.21446163 946.42777257 -400.36829228 938.22777321 -401.29415894 929.9642334 C-401.87203623 924.87627869 -402.63736973 919.8469283 -403.51757812 914.80371094 C-404.35699004 909.92526638 -405.03999657 905.023644 -405.75 900.125 C-406.95569075 891.87138094 -408.20738675 883.62727 -409.5234375 875.390625 C-409.65544556 874.56299652 -409.78745361 873.73536804 -409.92346191 872.88265991 C-410.57534869 868.80004816 -411.23146588 864.71817631 -411.89355469 860.63720703 C-413.21446163 852.42777257 -414.36829228 844.22777321 -415.29415894 835.9642334 C-415.87203623 830.87627869 -416.63736973 825.8469283 -417.51757812 820.80371094 C-418.35699004 815.92526638 -419.03999657 811.023644 -419.75 806.125 C-420.95569075 797.87138094 -422.20738675 789.62727 -423.5234375 781.390625 C-423.65544556 780.56299652 -423.78745361 779.73536804 -423.92346191 778.88265991 C-424.57534869 774.80004816 -425.23146588 770.71817631 -425.89355469 766.63720703 C-427.21454461 758.42725682 -428.36810761 750.22672735 -429.29443359 741.96272278 C-429.87060001 736.89155623 -430.63154631 731.87866888 -431.50878906 726.85205078 C-432.39125122 721.72833163 -433.12195982 716.58155007 -433.875 711.4375 C-434.22253597 709.07289899 -434.57019602 706.70831621 -434.91796875 704.34375 C-435.09505371 703.13847656 -435.27213867 701.93320312 -435.45458984 700.69140625 C-436.0012953 696.99123322 -436.55604498 693.29235072 -437.11328125 689.59375 C-437.2932666 688.39435791 -437.47325195 687.19496582 -437.65869141 685.95922852 C-438.00159369 683.67558796 -438.34621499 681.3922046 -438.69287109 679.10913086 C-438.84965332 678.06120361 -439.00643555 677.01327637 -439.16796875 675.93359375 C-439.37329224 674.5731897 -439.37329224 674.5731897 -439.58276367 673.18530273 C-440.67810918 664.82311847 -441.16871883 656.60233111 -441.203125 648.16796875 C-441.21167511 646.49931511 -441.21167511 646.49931511 -441.22039795 644.79695129 C-441.22979764 642.44968602 -441.23636177 640.10240785 -441.24023438 637.75512695 C-441.24986836 634.23559275 -441.28091157 630.71666149 -441.3125 627.19726562 C-441.522175 582.66359064 -429.58149253 539.64451542 -397.75 507.25 C-381.93607685 491.71036502 -363.34931422 481.11332284 -343.62890625 471.30078125 C-342.79564819 470.88610092 -341.96239014 470.47142059 -341.10388184 470.04417419 C-336.91119363 467.96220201 -332.71194167 465.89512503 -328.50146484 463.84936523 C-319.52979475 459.46168988 -311.11310385 454.84760702 -303 449 C-304.06442669 443.0498609 -306.47912453 439.98716101 -311 436 C-317.34950274 431.75377004 -324.4083131 429.36799788 -331.6875 427.25 C-332.35628174 427.05124268 -333.02506348 426.85248535 -333.71411133 426.64770508 C-350.11577647 422.22041308 -367.32533559 422.66686838 -384.16015625 422.5859375 C-386.64693314 422.56718885 -389.13370392 422.54761281 -391.62046814 422.5272522 C-398.10902268 422.47631515 -404.59759775 422.43648576 -411.08624268 422.39910889 C-417.73007263 422.35882594 -424.37381506 422.30784547 -431.01757812 422.2578125 C-444.0116594 422.16150928 -457.00578836 422.0765968 -470 422 C-470.02576632 415.51197172 -470.0430374 409.02395704 -470.05493164 402.53588867 C-470.05990034 400.33764147 -470.06667759 398.13939746 -470.07543945 395.94116211 C-470.14927566 376.91313679 -469.69111154 358.18345695 -467.125 339.3125 C-467.03563171 338.64245941 -466.94626343 337.97241882 -466.85418701 337.28207397 C-465.64895477 328.24631472 -464.39278319 319.24251428 -462.4921875 310.32226562 C-461.86408524 307.35871963 -461.26219944 304.39002841 -460.65625 301.421875 C-458.12627246 289.17457729 -455.53927675 277.01150665 -451.68164062 265.10644531 C-450.93272661 262.79210789 -450.20956334 260.47031245 -449.484375 258.1484375 C-432.88606127 205.88952917 -405.07971405 158.91957436 -368.25 118.47265625 C-366.65518191 116.72001762 -365.0730813 114.95576815 -363.5 113.18359375 C-359.28872039 108.46516309 -355.08229531 103.99319987 -350.23828125 99.92578125 C-347.93739037 97.94613168 -345.72935015 95.88164501 -343.52197266 93.79882812 C-336.35496517 87.05890884 -328.87030525 80.89875404 -321 75 C-320.31808594 74.48824219 -319.63617187 73.97648437 -318.93359375 73.44921875 C-297.32231031 57.32900551 -274.31471033 43.62877451 -250 32 C-249.19643066 31.61344238 -248.39286133 31.22688477 -247.56494141 30.82861328 C-221.06945118 18.17082839 -193.59884536 9.38889284 -165 3 C-164.0728418 2.78843262 -163.14568359 2.57686523 -162.19042969 2.35888672 C-109.75978956 -9.47074283 -52.73193817 -10.4714698 0 0 Z " fill="#6460AA" transform="translate(2431,77)"/>
<path d="M0 0 C1.42300042 1.28737406 2.85253781 2.56804613 4.30883789 3.81762695 C10.0138137 8.71773358 15.34023717 13.94516017 20.64453125 19.2734375 C21.93327148 20.55637695 21.93327148 20.55637695 23.24804688 21.86523438 C28.23449828 26.8593045 33.02450135 31.94801312 37.58203125 37.3359375 C38.11852295 37.9657251 38.65501465 38.5955127 39.20776367 39.24438477 C72.98766916 79.15319798 98.39837858 124.25846378 118.58203125 172.3359375 C120.3101269 176.44055584 122.03953009 180.54462195 123.76953125 184.6484375 C124.41825195 186.18999512 124.41825195 186.18999512 125.08007812 187.76269531 C130.49129866 200.57129158 136.12086101 213.2844506 141.72239685 226.01060486 C142.11177933 226.89526932 142.5011618 227.77993378 142.90234375 228.69140625 C143.29329727 229.57957535 143.68425079 230.46774445 144.08705139 231.38282776 C148.108559 240.52378119 152.09694575 249.67906142 156.08203125 258.8359375 C161.97243649 272.36837663 167.89260914 285.88744309 173.83203125 299.3984375 C179.46269477 312.20730421 185.0609492 325.02899537 190.61035156 337.87329102 C195.22682173 348.54545841 199.90203043 359.19150123 204.58203125 369.8359375 C210.32000291 382.88765886 216.03109901 395.94996508 221.69067383 409.03588867 C226.03521757 419.07998769 230.39738967 429.11632024 234.76953125 439.1484375 C235.12439606 439.96273224 235.47926086 440.77702698 235.84487915 441.61599731 C241.86618763 455.4293672 247.92163008 469.22761588 253.98544312 483.02236938 C259.23085249 494.95690826 264.43989551 506.90608051 269.61035156 518.87329102 C274.22682173 529.54545841 278.90203043 540.19150123 283.58203125 550.8359375 C289.32000291 563.88765886 295.03109901 576.94996508 300.69067383 590.03588867 C305.03521757 600.07998769 309.39738967 610.11632024 313.76953125 620.1484375 C314.12439606 620.96273224 314.47926086 621.77702698 314.84487915 622.61599731 C320.86618763 636.4293672 326.92163008 650.22761588 332.98544312 664.02236938 C338.23085249 675.95690826 343.43989551 687.90608051 348.61035156 699.87329102 C353.22682138 710.5454576 357.90192016 721.19155034 362.58203125 731.8359375 C368.29590892 744.83151067 373.9789858 757.83911875 379.609375 770.87109375 C384.22622819 781.54396882 388.90170774 792.19076728 393.58203125 802.8359375 C399.32000291 815.88765886 405.03109901 828.94996508 410.69067383 842.03588867 C415.03521757 852.07998769 419.39738967 862.11632024 423.76953125 872.1484375 C424.12439606 872.96273224 424.47926086 873.77702698 424.84487915 874.61599731 C430.86618763 888.4293672 436.92163008 902.22761588 442.98544312 916.02236938 C448.23085249 927.95690826 453.43989551 939.90608051 458.61035156 951.87329102 C463.22682173 962.54545841 467.90203043 973.19150123 472.58203125 983.8359375 C478.32000291 996.88765886 484.03109901 1009.94996508 489.69067383 1023.03588867 C494.03521757 1033.07998769 498.39738967 1043.11632024 502.76953125 1053.1484375 C503.12439606 1053.96273224 503.47926086 1054.77702698 503.84487915 1055.61599731 C509.86618763 1069.4293672 515.92163008 1083.22761588 521.98544312 1097.02236938 C527.23085249 1108.95690826 532.43989551 1120.90608051 537.61035156 1132.87329102 C542.22682138 1143.5454576 546.90192016 1154.19155034 551.58203125 1164.8359375 C557.29590892 1177.83151067 562.9789858 1190.83911875 568.609375 1203.87109375 C573.22622819 1214.54396882 577.90170774 1225.19076728 582.58203125 1235.8359375 C588.32000291 1248.88765886 594.03109901 1261.94996508 599.69067383 1275.03588867 C604.03521757 1285.07998769 608.39738967 1295.11632024 612.76953125 1305.1484375 C613.12439606 1305.96273224 613.47926086 1306.77702698 613.84487915 1307.61599731 C619.10454619 1319.68209999 624.38858934 1331.73737044 629.6847229 1343.7875061 C632.63956755 1350.51185067 635.59068358 1357.23783191 638.54125977 1363.96405029 C639.56141688 1366.28895796 640.58242406 1368.6134909 641.60351562 1370.93798828 C643.15186749 1374.46420191 644.69544901 1377.99246591 646.23522949 1381.52243042 C646.79071337 1382.79404968 647.34770998 1384.06500942 647.90637207 1385.3352356 C650.51142819 1391.26070675 653.04810303 1397.03587515 654.58203125 1403.3359375 C647.68902268 1399.13056989 641.05526238 1394.60986935 634.45703125 1389.9609375 C626.63231838 1384.44786752 618.75357669 1379.02146764 610.83203125 1373.6484375 C609.7637207 1372.92382324 608.69541016 1372.19920898 607.59472656 1371.45263672 C606.55155273 1370.74510254 605.50837891 1370.03756836 604.43359375 1369.30859375 C599.05267083 1365.65891679 593.68908978 1361.98496139 588.33496094 1358.29614258 C583.25800807 1354.79861251 578.17132063 1351.31548957 573.08203125 1347.8359375 C563.92479659 1341.57399821 554.78227591 1335.29086657 545.64355469 1329.00195312 C536.98757955 1323.0458075 528.32253867 1317.10315452 519.64916992 1311.17236328 C513.97349594 1307.29048966 508.30524112 1303.39798534 502.640625 1299.5 C497.46035225 1295.93663147 492.2721689 1292.38491873 487.08203125 1288.8359375 C477.92484066 1282.57393351 468.78227613 1276.29086673 459.64355469 1270.00195312 C450.98757955 1264.0458075 442.32253867 1258.10315452 433.64916992 1252.17236328 C427.97349594 1248.29048966 422.30524112 1244.39798534 416.640625 1240.5 C411.46035225 1236.93663147 406.2721689 1233.38491873 401.08203125 1229.8359375 C391.92484066 1223.57393351 382.78227613 1217.29086673 373.64355469 1211.00195312 C365.79691687 1205.60270962 357.94426757 1200.21244766 350.08203125 1194.8359375 C340.92486271 1188.57390114 331.78227624 1182.2908668 322.64355469 1176.00195312 C313.98757955 1170.0458075 305.32253867 1164.10315452 296.64916992 1158.17236328 C290.97349594 1154.29048966 285.30524112 1150.39798534 279.640625 1146.5 C274.46035225 1142.93663147 269.2721689 1139.38491873 264.08203125 1135.8359375 C254.92484066 1129.57393351 245.78227613 1123.29086673 236.64355469 1117.00195312 C227.98757955 1111.0458075 219.32253867 1105.10315452 210.64916992 1099.17236328 C204.97349594 1095.29048966 199.30524112 1091.39798534 193.640625 1087.5 C188.46035225 1083.93663147 183.2721689 1080.38491873 178.08203125 1076.8359375 C168.92484066 1070.57393351 159.78227613 1064.29086673 150.64355469 1058.00195312 C141.98757955 1052.0458075 133.32253867 1046.10315452 124.64916992 1040.17236328 C118.97349594 1036.29048966 113.30524112 1032.39798534 107.640625 1028.5 C102.46035225 1024.93663147 97.2721689 1021.38491873 92.08203125 1017.8359375 C82.92484066 1011.57393351 73.78227613 1005.29086673 64.64355469 999.00195312 C55.98757955 993.0458075 47.32253867 987.10315452 38.64916992 981.17236328 C32.97349594 977.29048966 27.30524112 973.39798534 21.640625 969.5 C16.46035225 965.93663147 11.2721689 962.38491873 6.08203125 958.8359375 C-3.07515934 952.57393351 -12.21772387 946.29086673 -21.35644531 940.00195312 C-29.20308313 934.60270962 -37.05573243 929.21244766 -44.91796875 923.8359375 C-54.07513729 917.57390114 -63.21772376 911.2908668 -72.35644531 905.00195312 C-81.01242045 899.0458075 -89.67746133 893.10315452 -98.35083008 887.17236328 C-104.02650406 883.29048966 -109.69475888 879.39798534 -115.359375 875.5 C-120.53964775 871.93663147 -125.7278311 868.38491873 -130.91796875 864.8359375 C-140.07515934 858.57393351 -149.21772387 852.29086673 -158.35644531 846.00195312 C-167.01242045 840.0458075 -175.67746133 834.10315452 -184.35083008 828.17236328 C-190.02650406 824.29048966 -195.69475888 820.39798534 -201.359375 816.5 C-206.53964775 812.93663147 -211.7278311 809.38491873 -216.91796875 805.8359375 C-226.07515934 799.57393351 -235.21772387 793.29086673 -244.35644531 787.00195312 C-253.01242045 781.0458075 -261.67746133 775.10315452 -270.35083008 769.17236328 C-276.02650406 765.29048966 -281.69475888 761.39798534 -287.359375 757.5 C-292.53964775 753.93663147 -297.7278311 750.38491873 -302.91796875 746.8359375 C-312.07515934 740.57393351 -321.21772387 734.29086673 -330.35644531 728.00195312 C-339.01242045 722.0458075 -347.67746133 716.10315452 -356.35083008 710.17236328 C-362.02650406 706.29048966 -367.69475888 702.39798534 -373.359375 698.5 C-378.53964775 694.93663147 -383.7278311 691.38491873 -388.91796875 687.8359375 C-398.07515934 681.57393351 -407.21772387 675.29086673 -416.35644531 669.00195312 C-418.31431638 667.65474903 -420.2723637 666.30780149 -422.23046875 664.9609375 C-422.88370117 664.51145752 -423.53693359 664.06197754 -424.20996094 663.59887695 C-427.81869858 661.11732264 -431.43196127 658.64261271 -435.05078125 656.17578125 C-449.71118 646.17964659 -464.34083557 636.14583155 -478.41796875 625.3359375 C-478.95454102 624.92553223 -479.49111328 624.51512695 -480.04394531 624.09228516 C-498.27081254 610.11485182 -515.14796075 594.65645887 -531.41796875 578.4609375 C-532.11196777 577.77161133 -532.8059668 577.08228516 -533.52099609 576.37207031 C-538.02277408 571.85615973 -542.26756647 567.17509188 -546.41796875 562.3359375 C-547.26359375 561.37171875 -548.10921875 560.4075 -548.98046875 559.4140625 C-589.62251366 512.25886937 -619.71716416 455.17789913 -633.41796875 394.3359375 C-633.74280931 393.02164387 -634.06970667 391.70785725 -634.3984375 390.39453125 C-636.68604803 381.01697382 -638.21344462 371.58189129 -639.54296875 362.0234375 C-639.78080078 360.31861206 -639.78080078 360.31861206 -640.0234375 358.5793457 C-642.39009838 340.85300598 -643.80448911 323.28723124 -643.73046875 305.3984375 C-643.72864594 304.47116852 -643.72682312 303.54389954 -643.72494507 302.58853149 C-643.47619983 226.79091521 -621.09325254 150.3623568 -580.41796875 86.3359375 C-579.97259766 85.63388184 -579.52722656 84.93182617 -579.06835938 84.20849609 C-557.59655009 50.66082432 -531.24023042 19.42291772 -499.41796875 -4.6640625 C-498.70753418 -5.20434082 -497.99709961 -5.74461914 -497.26513672 -6.30126953 C-481.22445609 -18.45582377 -464.50675232 -29.50953749 -447.12988281 -39.65966797 C-445.47664544 -40.62963639 -443.83379924 -41.61724924 -442.19140625 -42.60546875 C-395.87312563 -69.96531231 -342.61337624 -86.01345065 -289.41796875 -92.6640625 C-288.60602051 -92.77830566 -287.79407227 -92.89254883 -286.95751953 -93.01025391 C-196.01110706 -105.77565803 -98.6755408 -75.90016978 0 0 Z " fill="#F37021" transform="translate(1021.41796875,662.6640625)"/>
<path d="M0 0 C1.15186798 -0.00358521 2.30373596 -0.00717041 3.49050903 -0.01086426 C61.85533553 -0.10844434 119.68293385 12.83300219 172.6875 37.3125 C174.38406698 38.07432478 176.08068267 38.83604108 177.77734375 39.59765625 C208.33784003 53.53099579 236.4261166 72.24663114 261.6875 94.3125 C262.50089844 95.01375 263.31429687 95.715 264.15234375 96.4375 C269.5915456 101.21603341 274.74495501 106.26962716 279.875 111.375 C280.87333862 112.36632935 280.87333862 112.36632935 281.8918457 113.37768555 C285.76415845 117.26251603 289.44103728 121.25963964 293.02368164 125.41235352 C295.04011471 127.71519997 297.14484658 129.91978945 299.26367188 132.12792969 C306.47494846 139.68021872 312.86410422 147.70668182 319.05810547 156.10498047 C320.68499429 158.30910524 322.3284077 160.50021431 323.97265625 162.69140625 C346.03871608 192.37109393 362.74394484 225.77086092 375.6875 260.3125 C375.97222168 261.06208984 376.25694336 261.81167969 376.55029297 262.58398438 C386.46163831 288.79357787 392.55740902 316.12153436 396.4375 343.8125 C396.59813934 344.95025375 396.59813934 344.95025375 396.76202393 346.11099243 C399.0758891 362.66915524 399.87419052 379.02738538 399.87280273 395.73632812 C399.87499138 398.67592825 399.89322848 401.61515317 399.91210938 404.5546875 C399.9466206 415.97766155 399.29389091 427.00863705 397.6875 438.3125 C397.38698644 440.72236604 397.08872496 443.13251423 396.79296875 445.54296875 C394.86759217 460.36627564 392.343794 474.82056185 388.6875 489.3125 C388.39359375 490.54613281 388.0996875 491.77976562 387.796875 493.05078125 C369.87330542 564.98947188 328.74274775 627.19321486 276.9375 679.1875 C276.0501416 680.07953125 275.1627832 680.9715625 274.24853516 681.890625 C269.22140067 686.90552343 264.08922625 691.70544381 258.6875 696.3125 C257.60434265 697.2617374 256.52226171 698.21220486 255.44140625 699.1640625 C246.49800508 706.96433262 237.19462688 714.21446926 227.6875 721.3125 C227.04135742 721.79605957 226.39521484 722.27961914 225.72949219 722.77783203 C216.86257974 729.39714908 207.8176106 735.73123382 198.67285156 741.95947266 C195.48499019 744.13201665 192.3045067 746.31525361 189.125 748.5 C188.48095215 748.94230957 187.8369043 749.38461914 187.17333984 749.84033203 C181.22378424 753.93199134 175.29943717 758.05959015 169.375 762.1875 C161.57311293 767.62324622 153.7471489 773.02094359 145.89135742 778.37841797 C139.63120713 782.65335444 133.40621401 786.9775589 127.1875 791.3125 C117.77265331 797.87464736 108.31727079 804.37458679 98.83837891 810.84375 C87.97955649 818.25880967 77.17639626 825.75215323 66.38769531 833.26879883 C59.57959631 838.00771483 52.74438561 842.70480576 45.89135742 847.37841797 C39.63120713 851.65335444 33.40621401 855.9775589 27.1875 860.3125 C17.77265331 866.87464736 8.31727079 873.37458679 -1.16162109 879.84375 C-11.01813476 886.57437272 -20.83197275 893.36486582 -30.625 900.1875 C-40.10308995 906.79016186 -49.62073923 913.33227981 -59.16162109 919.84375 C-70.02044351 927.25880967 -80.82360374 934.75215323 -91.61230469 942.26879883 C-98.42040369 947.00771483 -105.25561439 951.70480576 -112.10864258 956.37841797 C-118.36879287 960.65335444 -124.59378599 964.9775589 -130.8125 969.3125 C-140.22734669 975.87464736 -149.68272921 982.37458679 -159.16162109 988.84375 C-169.01813476 995.57437272 -178.83197275 1002.36486582 -188.625 1009.1875 C-198.10308995 1015.79016186 -207.62073923 1022.33227981 -217.16162109 1028.84375 C-228.02044351 1036.25880967 -238.82360374 1043.75215323 -249.61230469 1051.26879883 C-256.42040369 1056.00771483 -263.25561439 1060.70480576 -270.10864258 1065.37841797 C-276.36879287 1069.65335444 -282.59378599 1073.9775589 -288.8125 1078.3125 C-298.22734669 1084.87464736 -307.68272921 1091.37458679 -317.16162109 1097.84375 C-327.01813476 1104.57437272 -336.83197275 1111.36486582 -346.625 1118.1875 C-356.10308995 1124.79016186 -365.62073923 1131.33227981 -375.16162109 1137.84375 C-386.02044351 1145.25880967 -396.82360374 1152.75215323 -407.61230469 1160.26879883 C-414.42040369 1165.00771483 -421.25561439 1169.70480576 -428.10864258 1174.37841797 C-434.36879287 1178.65335444 -440.59378599 1182.9775589 -446.8125 1187.3125 C-456.22734669 1193.87464736 -465.68272921 1200.37458679 -475.16162109 1206.84375 C-486.02044351 1214.25880967 -496.82360374 1221.75215323 -507.61230469 1229.26879883 C-514.42040369 1234.00771483 -521.25561439 1238.70480576 -528.10864258 1243.37841797 C-534.36879287 1247.65335444 -540.59378599 1251.9775589 -546.8125 1256.3125 C-556.22734669 1262.87464736 -565.68272921 1269.37458679 -575.16162109 1275.84375 C-585.01813476 1282.57437272 -594.83197275 1289.36486582 -604.625 1296.1875 C-614.10308995 1302.79016186 -623.62073923 1309.33227981 -633.16162109 1315.84375 C-644.02044351 1323.25880967 -654.82360374 1330.75215323 -665.61230469 1338.26879883 C-672.42040369 1343.00771483 -679.25561439 1347.70480576 -686.10864258 1352.37841797 C-692.36879287 1356.65335444 -698.59378599 1360.9775589 -704.8125 1365.3125 C-714.22734669 1371.87464736 -723.68272921 1378.37458679 -733.16162109 1384.84375 C-743.01813476 1391.57437272 -752.83197275 1398.36486582 -762.625 1405.1875 C-772.10308995 1411.79016186 -781.62073923 1418.33227981 -791.16162109 1424.84375 C-802.02044351 1432.25880967 -812.82360374 1439.75215323 -823.61230469 1447.26879883 C-830.41522973 1452.00411339 -837.24474297 1456.69838691 -844.09326172 1461.36743164 C-850.5071136 1465.74628795 -856.88052054 1470.18191722 -863.25 1474.625 C-870.8789933 1479.94570795 -878.5268304 1485.22251385 -886.3125 1490.3125 C-887.3125 1488.3125 -887.3125 1488.3125 -886.68312073 1486.32284546 C-886.14883705 1485.09061752 -886.14883705 1485.09061752 -885.60375977 1483.83349609 C-885.19968399 1482.89097992 -884.79560822 1481.94846375 -884.37928772 1480.97738647 C-883.92541183 1479.94070831 -883.47153595 1478.90403015 -883.00390625 1477.8359375 C-882.53540756 1476.74890533 -882.06690887 1475.66187317 -881.58421326 1474.54190063 C-880.2927608 1471.54899911 -878.99447464 1468.55917108 -877.69342041 1465.57043457 C-876.31641429 1462.40236545 -874.94852586 1459.23036676 -873.58007812 1456.05859375 C-871.5840808 1451.43410161 -869.58563606 1446.81068303 -867.5839901 1442.18863297 C-862.61997014 1430.72508621 -857.70168748 1419.24209273 -852.78704834 1407.7572937 C-850.7994475 1403.1139228 -848.80926286 1398.47166123 -846.8190918 1393.82939148 C-842.80503757 1384.4661861 -838.79372079 1375.10181644 -834.78684998 1365.73553467 C-824.50140541 1341.69308576 -814.18112525 1317.66714422 -803.75 1293.6875 C-795.07619779 1273.7468036 -786.51170772 1253.76167834 -778.00537109 1233.74902344 C-777.04526927 1231.49022508 -776.08514552 1229.23143604 -775.125 1226.97265625 C-774.6481778 1225.85087982 -774.17135559 1224.72910339 -773.68008423 1223.57333374 C-765.77721734 1204.98967596 -757.80439803 1186.43587774 -749.84268188 1167.87738037 C-746.31497064 1159.65330415 -742.7930074 1151.42678198 -739.2734375 1143.19921875 C-729.49090204 1120.33620786 -719.66966849 1097.49137928 -709.75 1074.6875 C-701.07619779 1054.7468036 -692.51170772 1034.76167834 -684.00537109 1014.74902344 C-683.04526927 1012.49022508 -682.08514552 1010.23143604 -681.125 1007.97265625 C-680.6481778 1006.85087982 -680.17135559 1005.72910339 -679.68008423 1004.57333374 C-671.77721734 985.98967596 -663.80439803 967.43587774 -655.84268188 948.87738037 C-652.31497064 940.65330415 -648.7930074 932.42678198 -645.2734375 924.19921875 C-635.49090204 901.33620786 -625.66966849 878.49137928 -615.75 855.6875 C-607.07619779 835.7468036 -598.51170772 815.76167834 -590.00537109 795.74902344 C-589.04526927 793.49022508 -588.08514552 791.23143604 -587.125 788.97265625 C-586.6481778 787.85087982 -586.17135559 786.72910339 -585.68008423 785.57333374 C-577.77721734 766.98967596 -569.80439803 748.43587774 -561.84268188 729.87738037 C-558.31497064 721.65330415 -554.7930074 713.42678198 -551.2734375 705.19921875 C-541.49090204 682.33620786 -531.66966849 659.49137928 -521.75 636.6875 C-513.07619779 616.7468036 -504.51170772 596.76167834 -496.00537109 576.74902344 C-495.04526927 574.49022508 -494.08514552 572.23143604 -493.125 569.97265625 C-492.6481778 568.85087982 -492.17135559 567.72910339 -491.68008423 566.57333374 C-483.77721734 547.98967596 -475.80439803 529.43587774 -467.84268188 510.87738037 C-464.31497064 502.65330415 -460.7930074 494.42678198 -457.2734375 486.19921875 C-447.49090204 463.33620786 -437.66966849 440.49137928 -427.75 417.6875 C-420.0516027 399.98921731 -412.42625961 382.26156773 -404.875 364.5 C-404.40513672 363.39483032 -403.93527344 362.28966064 -403.45117188 361.15100098 C-402.5002124 358.91407752 -401.54926436 356.6771492 -400.59832764 354.44021606 C-400.12502014 353.32685883 -399.65171265 352.21350159 -399.1640625 351.06640625 C-398.68930481 349.94958466 -398.21454712 348.83276306 -397.72540283 347.68209839 C-389.16103048 327.5425119 -380.53947368 307.4273861 -371.89453125 287.32226562 C-370.30717002 283.62996332 -368.72303121 279.93633342 -367.14453125 276.24023438 C-355.20572613 248.29075983 -342.12788827 221.30129791 -326.3125 195.3125 C-325.85004883 194.54776367 -325.38759766 193.78302734 -324.91113281 192.99511719 C-309.46641552 167.53033723 -291.52537436 143.7403138 -271.4921875 121.7109375 C-270.00887637 120.0787636 -268.53524608 118.43775082 -267.0703125 116.7890625 C-260.24540146 109.11398953 -253.19156894 101.79486553 -245.38671875 95.109375 C-243.11092282 93.1378757 -240.90327333 91.10115605 -238.6875 89.0625 C-232.48631131 83.47669644 -225.94569409 78.37013445 -219.3125 73.3125 C-218.42884766 72.63550049 -218.42884766 72.63550049 -217.52734375 71.94482422 C-202.93727774 60.82190302 -187.37044557 51.16518927 -171.3125 42.3125 C-170.1054417 41.62374532 -168.89841133 40.9349417 -167.69140625 40.24609375 C-133.97154161 21.35955272 -95.31755284 9.4492835 -57.22460938 3.75048828 C-55.33058112 3.46562186 -53.4384405 3.16780146 -51.54882812 2.85498047 C-34.42682631 0.07040228 -17.30245889 0.02171298 0 0 Z " fill="#0089D0" transform="translate(3062.3125,571.6875)"/>
<path d="M0 0 C1.21652252 0.00270905 2.43304504 0.00541809 3.68643188 0.00820923 C22.91721656 0.07289575 41.34995428 1.18783812 60.3125 4.4375 C62.78335031 4.81838725 65.25471566 5.195947 67.7265625 5.5703125 C131.76436159 15.56450502 195.1503287 42.49362412 248.3125 79.4375 C249.40449707 80.19619385 249.40449707 80.19619385 250.51855469 80.97021484 C254.66562323 83.85764365 258.80372723 86.7576375 262.9375 89.6640625 C268.54890217 93.60815924 274.17966828 97.52409476 279.8125 101.4375 C291.14394666 109.3139951 302.45003126 117.22631846 313.75097656 125.14648438 C324.40167995 132.61006158 335.06623155 140.05322117 345.74536133 147.47607422 C352.75848898 152.35226547 359.75888256 157.2463249 366.75390625 162.1484375 C373.0972807 166.59181548 379.45304796 171.01716998 385.8125 175.4375 C397.14375279 183.31427544 408.45003 191.22631758 419.75097656 199.14648438 C429.4266399 205.9267934 439.11130013 212.69376587 448.8125 219.4375 C460.14371508 227.31432997 471.45002975 235.22631741 482.75097656 243.14648438 C492.4266399 249.9267934 502.11130013 256.69376587 511.8125 263.4375 C521.50936646 270.17822179 531.18959183 276.9423139 540.86083984 283.71972656 C545.01036427 286.62712089 549.16150414 289.53220708 553.3125 292.4375 C558.27812251 295.91295225 563.24345424 299.38881432 568.20703125 302.8671875 C578.03966687 309.75629526 587.887051 316.62375662 597.74536133 323.47607422 C604.75848898 328.35226547 611.75888256 333.2463249 618.75390625 338.1484375 C625.09728058 342.5918154 631.45302689 347.01720045 637.8125 351.4375 C645.80399836 356.99217662 653.7838625 362.56303084 661.75390625 368.1484375 C668.0972807 372.59181548 674.45304796 377.01716998 680.8125 381.4375 C692.14375279 389.31427544 703.45003 397.22631758 714.75097656 405.14648438 C724.4266399 411.9267934 734.11130013 418.69376587 743.8125 425.4375 C755.14371508 433.31432997 766.45002975 441.22631741 777.75097656 449.14648438 C787.4266399 455.9267934 797.11130013 462.69376587 806.8125 469.4375 C818.14371508 477.31432997 829.45002975 485.22631741 840.75097656 493.14648438 C850.4266399 499.9267934 860.11130013 506.69376587 869.8125 513.4375 C881.14371508 521.31432997 892.45002975 529.22631741 903.75097656 537.14648438 C913.4266399 543.9267934 923.11130013 550.69376587 932.8125 557.4375 C944.14371508 565.31432997 955.45002975 573.22631741 966.75097656 581.14648438 C977.40167995 588.61006158 988.06623155 596.05322117 998.74536133 603.47607422 C1005.75848898 608.35226547 1012.75888256 613.2463249 1019.75390625 618.1484375 C1026.0972807 622.59181548 1032.45304796 627.01716998 1038.8125 631.4375 C1050.14375279 639.31427544 1061.45003 647.22631758 1072.75097656 655.14648438 C1082.4266399 661.9267934 1092.11130013 668.69376587 1101.8125 675.4375 C1113.14371508 683.31432997 1124.45002975 691.22631741 1135.75097656 699.14648438 C1145.4266399 705.9267934 1155.11130013 712.69376587 1164.8125 719.4375 C1176.14371508 727.31432997 1187.45002975 735.22631741 1198.75097656 743.14648438 C1208.4266401 749.92679354 1218.11133245 756.69371917 1227.8125 763.4375 C1237.52880549 770.19235942 1247.23346249 776.96342878 1256.91943359 783.76171875 C1259.37610556 785.48204077 1261.83807739 787.19457664 1264.30078125 788.90625 C1265.86726587 789.99988775 1267.43367548 791.09363295 1269 792.1875 C1269.72558105 792.68926758 1270.45116211 793.19103516 1271.19873047 793.70800781 C1276.19919967 797.21089935 1276.19919967 797.21089935 1277.3125 799.4375 C1238.66455123 799.45949697 1200.01660199 799.48058405 1161.36865234 799.50097656 C1160.6122547 799.50137575 1159.85585706 799.50177494 1159.07653827 799.50218623 C1077.96457178 799.54496852 996.85260514 799.58185211 915.7406311 799.60687256 C913.93717071 799.60743036 912.13371031 799.60798817 910.33024992 799.60854598 C872.46803979 799.62023887 834.60582946 799.63110549 796.74361883 799.64101871 C777.72176409 799.64599996 758.6999094 799.65113984 739.67805474 799.65642977 C736.80883251 799.65722677 733.93961028 799.65801924 731.07038805 799.65881152 C686.93305081 799.67103912 642.79571798 799.68665098 598.65838623 799.7121582 C597.71072179 799.7127058 596.76305735 799.71325339 595.7866758 799.71381758 C580.50931236 799.72266613 565.23194908 799.73180092 549.95458583 799.74097376 C505.90517854 799.76741754 461.85577468 799.79171474 417.80636024 799.80205917 C416.89887119 799.80227331 415.99138213 799.80248745 415.0563934 799.80270808 C395.12592651 799.80737315 375.19545957 799.81095163 355.2649923 799.81350393 C347.24338947 799.81455029 339.22178667 799.81575279 331.20018387 799.81700897 C329.88336025 799.81720954 329.88336025 799.81720954 328.53993414 799.81741415 C300.34118716 799.82178651 272.1424656 799.83882491 243.94372885 799.86262883 C215.49450297 799.88658545 187.04530165 799.8978703 158.59606545 799.89199595 C154.64793965 799.89118384 150.69981384 799.89051423 146.751688 799.88993073 C145.97786932 799.8898112 145.20405063 799.88969168 144.40678289 799.88956854 C132.24570349 799.88805698 120.08467673 799.89988593 107.92361162 799.91753945 C95.91009257 799.93469602 83.89664047 799.93713039 71.88311485 799.92482725 C65.47924889 799.91885161 59.07555551 799.91878078 52.67170887 799.93703273 C12.76090611 800.04403409 -27.61048936 799.4273646 -66.6875 790.4375 C-67.79013184 790.19161133 -68.89276367 789.94572266 -70.02880859 789.69238281 C-136.0753811 774.79943663 -198.99552541 743.58322808 -249.10546875 697.7734375 C-250.53036287 696.48435024 -251.96163712 695.20182945 -253.41870117 693.94921875 C-259.06111658 689.09650112 -264.36613437 683.95134232 -269.625 678.6875 C-270.5130835 677.79861084 -271.40116699 676.90972168 -272.31616211 675.99389648 C-277.41332713 670.84873822 -282.26687279 665.70179676 -286.70703125 659.9765625 C-288.58182282 657.57298357 -290.54679592 655.27162449 -292.54980469 652.97460938 C-310.97440904 631.73639549 -325.84689676 607.37062473 -338.6875 582.4375 C-339.1525293 581.53483398 -339.61755859 580.63216797 -340.09667969 579.70214844 C-348.22306424 563.73940425 -354.56015474 547.24203497 -360.6875 530.4375 C-361.04626221 529.47811523 -361.40502441 528.51873047 -361.7746582 527.53027344 C-368.31762188 509.9344361 -372.21092713 491.74782701 -375.5 473.3125 C-375.64684235 472.49309937 -375.79368469 471.67369873 -375.94497681 470.82946777 C-379.46127363 451.05695547 -381.83716584 431.46204793 -381.85546875 411.34375 C-381.85879715 410.03579468 -381.86212555 408.72783936 -381.86555481 407.38024902 C-381.87148966 404.62718887 -381.87340077 401.87415983 -381.87280273 399.12109375 C-381.87272182 396.34628737 -381.8796187 393.57164729 -381.89331055 390.796875 C-381.9719992 374.57736721 -381.74280065 358.54745931 -379.6875 342.4375 C-379.6006192 341.73185913 -379.5137384 341.02621826 -379.42422485 340.29919434 C-378.85319737 335.70900401 -378.19718782 331.13548648 -377.5 326.5625 C-377.39623047 325.87825958 -377.29246094 325.19401917 -377.18554688 324.48904419 C-374.80643563 308.95692914 -371.52685201 293.67227517 -367.6875 278.4375 C-367.48189453 277.62087891 -367.27628906 276.80425781 -367.06445312 275.96289062 C-362.24026074 257.47301449 -353.67048716 239.4662265 -344.80664062 222.5859375 C-343.51121831 220.09908837 -342.24820371 217.59679879 -340.984375 215.09375 C-327.83623609 189.23085515 -312.11599085 164.86776104 -293.6875 142.4375 C-293.23810059 141.8904541 -292.78870117 141.3434082 -292.32568359 140.77978516 C-282.66794995 129.0870413 -272.39170496 118.04746498 -261.71179199 107.28656006 C-260.71261139 106.27933768 -259.71491559 105.27063969 -258.71887207 104.26031494 C-252.05892133 97.51509567 -245.10251221 91.35435908 -237.6875 85.4375 C-236.50893856 84.43729971 -235.3349955 83.43160392 -234.16796875 82.41796875 C-215.42793423 66.38634383 -193.92049154 52.83011235 -172.00244141 41.62353516 C-169.89902831 40.54587424 -167.81332199 39.44092601 -165.73046875 38.32421875 C-146.17218216 28.00440473 -124.86910476 19.80121576 -103.5625 13.9375 C-102.4679248 13.63489258 -101.37334961 13.33228516 -100.24560547 13.02050781 C-67.33650479 3.99915011 -34.15543242 -0.1802126 0 0 Z " fill="#FCB711" transform="translate(454.6875,1398.5625)"/>
<path d="M0 0 C0.8955661 -0.00261841 1.7911322 -0.00523682 2.71383667 -0.00793457 C20.35782924 -0.01341158 37.38853455 1.63007675 54.8125 4.3125 C56.98955966 4.62776767 59.16664173 4.94288068 61.34375 5.2578125 C95.64619797 10.41288819 128.52546245 21.48509591 159.8125 36.3125 C161.23828369 36.98514893 161.23828369 36.98514893 162.69287109 37.67138672 C198.94000464 54.91625392 231.24656204 78.30385864 260.8125 105.3125 C261.79605469 106.19164062 262.77960938 107.07078125 263.79296875 107.9765625 C292.44990632 133.75984851 316.33777658 165.15263179 335.8125 198.3125 C336.19470703 198.95977051 336.57691406 199.60704102 336.97070312 200.27392578 C361.72836608 242.44273178 379.00777463 289.09926007 385.46308899 337.68940735 C385.69982973 339.46666359 385.94159293 341.24325675 386.18791199 343.01921082 C388.60818343 360.68602678 389.30039135 378.0562742 389.1875 395.875 C389.18052094 397.84466736 389.18052094 397.84466736 389.17340088 399.85412598 C388.82704564 491.60480481 360.4783117 580.4097538 303.8125 653.3125 C303.1834375 654.12332031 302.554375 654.93414063 301.90625 655.76953125 C294.29664178 665.42188266 286.43143936 674.9828562 277.58984375 683.53515625 C275.80201951 685.32298049 274.18715432 687.1886614 272.5625 689.125 C268.21097293 694.1803048 263.23803969 698.55451099 258.27636719 702.99267578 C256.97497252 704.1660146 255.69303764 705.36085645 254.4140625 706.55859375 C246.68660973 713.74538856 238.28559792 720.04136607 229.8125 726.3125 C229.11705078 726.82748047 228.42160156 727.34246094 227.70507812 727.87304688 C185.10668134 759.18710014 135.64218352 780.30590246 83.8125 790.3125 C83.1870365 790.45150042 82.56157301 790.59050085 81.91715607 790.7337134 C50.15435784 797.58271062 17.12588728 796.89147629 -15.16721556 796.80156477 C-21.12681924 796.78906165 -27.086397 796.79589241 -33.04600414 796.80189903 C-45.35079712 796.81364259 -57.65551332 796.80681771 -69.96029663 796.7893219 C-82.40092918 796.77171166 -94.84152207 796.76304277 -107.28216743 796.76493073 C-108.07254988 796.76504549 -108.86293232 796.76516026 -109.67726574 796.76527851 C-113.7085459 796.76590414 -117.73982602 796.76667193 -121.77110615 796.76748985 C-150.83225154 796.77309679 -179.89336177 796.75947705 -208.95449638 796.73542023 C-237.70674248 796.71167631 -266.45897349 796.69630908 -295.21122932 796.69200897 C-296.10637938 796.69187132 -297.00152943 796.69173368 -297.92380525 796.69159186 C-306.10042705 796.69033894 -314.27704887 796.68918819 -322.45367071 796.68815996 C-342.77374846 796.6856034 -363.09382587 796.68176674 -383.41390324 796.67705917 C-384.33891649 796.6768459 -385.26392974 796.67663263 -386.2169737 796.6764129 C-431.14001612 796.66594377 -476.06304861 796.64072053 -520.98608398 796.61425781 C-536.56227613 796.60509061 -552.13846831 796.5959889 -567.71466064 796.5871582 C-569.16384881 796.58633651 -569.16384881 796.58633651 -570.64231351 796.58549821 C-615.61178604 796.56009019 -660.58126028 796.54520932 -705.5507381 796.53301902 C-708.47261034 796.53222677 -711.39448258 796.53143 -714.31635482 796.53063231 C-733.68084911 796.52535287 -753.04534344 796.52025433 -772.40983781 796.51527687 C-810.93559764 796.5053726 -849.46135713 796.49440594 -887.98711645 796.48270868 C-889.82153452 796.48215172 -891.65595259 796.4815955 -893.49037066 796.48104003 C-976.00066542 796.45604927 -1058.51095291 796.41870422 -1141.02124023 796.37597656 C-1141.79332364 796.37557682 -1142.56540705 796.37517708 -1143.36088692 796.37476522 C-1181.96975836 796.35476616 -1220.5786294 796.33406054 -1259.1875 796.3125 C-1256.80811553 793.87355188 -1254.37708957 791.94870316 -1251.56640625 790.01171875 C-1250.64150391 789.37169922 -1249.71660156 788.73167969 -1248.76367188 788.07226562 C-1247.76916016 787.38841797 -1246.77464844 786.70457031 -1245.75 786 C-1243.64694061 784.54585462 -1241.54407937 783.09142262 -1239.44140625 781.63671875 C-1238.3858252 780.90759277 -1237.33024414 780.1784668 -1236.24267578 779.42724609 C-1231.87862442 776.40651628 -1227.53223387 773.36091742 -1223.1875 770.3125 C-1216.0315811 765.29697716 -1208.86296074 760.30002161 -1201.6875 755.3125 C-1191.99060125 748.57182487 -1182.31040797 741.80768596 -1172.63916016 735.03027344 C-1167.65415744 731.53749519 -1162.66694619 728.0478709 -1157.68017578 724.55761719 C-1153.55040341 721.66701808 -1149.4211153 718.77573311 -1145.29296875 715.8828125 C-1135.46033313 708.99370474 -1125.612949 702.12624338 -1115.75463867 695.27392578 C-1109.55742974 690.96503858 -1103.3687148 686.64429533 -1097.1875 682.3125 C-1090.03127239 677.29741569 -1082.86296271 672.30002299 -1075.6875 667.3125 C-1065.17125687 660.0022681 -1054.67561959 652.66300432 -1044.1875 645.3125 C-1032.72653383 637.28018491 -1021.25288576 629.26667939 -1009.76123047 621.27832031 C-1000.22137386 614.64482566 -990.70277078 607.98119197 -981.1875 601.3125 C-969.72653383 593.28018491 -958.25288576 585.26667939 -946.76123047 577.27832031 C-937.22137386 570.64482566 -927.70277078 563.98119197 -918.1875 557.3125 C-906.72653383 549.28018491 -895.25288576 541.26667939 -883.76123047 533.27832031 C-874.22137386 526.64482566 -864.70277078 519.98119197 -855.1875 513.3125 C-843.72653383 505.28018491 -832.25288576 497.26667939 -820.76123047 489.27832031 C-812.04063321 483.21449382 -803.33753556 477.12591689 -794.63916016 471.03027344 C-789.65415744 467.53749519 -784.66694619 464.0478709 -779.68017578 460.55761719 C-775.55040341 457.66701808 -771.4211153 454.77573311 -767.29296875 451.8828125 C-757.46033313 444.99370474 -747.612949 438.12624338 -737.75463867 431.27392578 C-731.55742974 426.96503858 -725.3687148 422.64429533 -719.1875 418.3125 C-712.03127239 413.29741569 -704.86296271 408.30002299 -697.6875 403.3125 C-687.99060125 396.57182487 -678.31040797 389.80768596 -668.63916016 383.03027344 C-663.65415744 379.53749519 -658.66694619 376.0478709 -653.68017578 372.55761719 C-649.55040341 369.66701808 -645.4211153 366.77573311 -641.29296875 363.8828125 C-631.46249493 356.99521938 -621.61707704 350.12955622 -611.76123047 343.27832031 C-603.04063321 337.21449382 -594.33753556 331.12591689 -585.63916016 325.03027344 C-580.65415744 321.53749519 -575.66694619 318.0478709 -570.68017578 314.55761719 C-566.55040341 311.66701808 -562.4211153 308.77573311 -558.29296875 305.8828125 C-548.46033313 298.99370474 -538.612949 292.12624338 -528.75463867 285.27392578 C-522.55742974 280.96503858 -516.3687148 276.64429533 -510.1875 272.3125 C-503.03127239 267.29741569 -495.86296271 262.30002299 -488.6875 257.3125 C-478.17125687 250.0022681 -467.67561959 242.66300432 -457.1875 235.3125 C-445.72653383 227.28018491 -434.25288576 219.26667939 -422.76123047 211.27832031 C-414.04063321 205.21449382 -405.33753556 199.12591689 -396.63916016 193.03027344 C-391.65415744 189.53749519 -386.66694619 186.0478709 -381.68017578 182.55761719 C-377.55040341 179.66701808 -373.4211153 176.77573311 -369.29296875 173.8828125 C-359.46033313 166.99370474 -349.612949 160.12624338 -339.75463867 153.27392578 C-333.55742974 148.96503858 -327.3687148 144.64429533 -321.1875 140.3125 C-314.03127239 135.29741569 -306.86296271 130.30002299 -299.6875 125.3125 C-289.99060125 118.57182487 -280.31040797 111.80768596 -270.63916016 105.03027344 C-268.15963143 103.29297369 -265.67953605 101.5564862 -263.19921875 99.8203125 C-262.37252686 99.241604 -261.54583496 98.66289551 -260.6940918 98.06665039 C-259.0252591 96.89877633 -257.35615167 95.73129475 -255.68676758 94.56420898 C-251.51306176 91.64542809 -247.34495712 88.71923186 -243.1875 85.77734375 C-209.48686305 61.96872073 -174.4987805 41.83114506 -136.1875 26.3125 C-134.88570801 25.78317871 -134.88570801 25.78317871 -133.55761719 25.24316406 C-119.13609588 19.45678775 -104.18599522 15.3137136 -89.1875 11.3125 C-88.25631348 11.06226074 -87.32512695 10.81202148 -86.36572266 10.55419922 C-58.4205103 3.20130246 -28.83369021 0.0811514 0 0 Z " fill="#0DB14B" transform="translate(3377.1875,1401.6875)"/>
<path d="M0 0 C88.97625 -0.4640625 88.97625 -0.4640625 179.75 -0.9375 C198.48749023 -1.07406006 217.22498047 -1.21062012 236.53027344 -1.35131836 C259.39111328 -1.41906738 259.39111328 -1.41906738 270.0894165 -1.43165588 C277.5704413 -1.44564558 285.04978618 -1.5006661 292.53033447 -1.58363342 C301.16031824 -1.6792075 309.7886909 -1.72252004 318.41920771 -1.70167426 C322.83375361 -1.69264626 327.2447009 -1.70681352 331.65858412 -1.78822696 C359.17873924 -2.27168221 359.17873924 -2.27168221 365.62207794 3.23852348 C368.36433985 6.25661466 370.31824372 9.45237501 372.05778551 13.12721622 C373.55174386 16.0966685 375.56128996 18.52483889 377.625 21.125 C378.70394531 22.57712891 378.70394531 22.57712891 379.8046875 24.05859375 C382.49865085 27.66812116 385.24475842 31.23579097 387.99536133 34.80224609 C391.44534 39.27650905 394.88156793 43.76111628 398.3125 48.25 C398.857854 48.96341553 399.40320801 49.67683105 399.96508789 50.41186523 C402.20580916 53.34340175 404.44615596 56.27522436 406.68652344 59.20703125 C412.11571447 66.31135327 417.54538549 73.41516952 423 80.5 C429.58426721 89.05210151 436.13321953 97.63119638 442.68652344 106.20703125 C448.11571447 113.31135327 453.54538549 120.41516952 459 127.5 C465.58426721 136.05210151 472.13321953 144.63119638 478.68652344 153.20703125 C484.11571447 160.31135327 489.54538549 167.41516952 495 174.5 C501.58426721 183.05210151 508.13321953 191.63119638 514.68652344 200.20703125 C520.11571447 207.31135327 525.54538549 214.41516952 531 221.5 C537.58426721 230.05210151 544.13321953 238.63119638 550.68652344 247.20703125 C556.11571447 254.31135327 561.54538549 261.41516952 567 268.5 C573.58426721 277.05210151 580.13321953 285.63119638 586.68652344 294.20703125 C592.11571447 301.31135327 597.54538549 308.41516952 603 315.5 C609.58426721 324.05210151 616.13321953 332.63119638 622.68652344 341.20703125 C628.11571447 348.31135327 633.54538549 355.41516952 639 362.5 C643.88954843 368.85088358 648.75924155 375.21681466 653.625 381.5859375 C655.8918228 384.55257594 658.16298595 387.51581723 660.4375 390.4765625 C661.00299561 391.21358398 661.56849121 391.95060547 662.15112305 392.70996094 C663.21139119 394.09165937 664.27265056 395.47259813 665.33520508 396.85253906 C669.66448359 402.49874865 673.8103075 408.23917282 678 414 C678.495 209.07 678.495 209.07 679 0 C760.84 0 842.68 0 927 0 C927 218.46 927 436.92 927 662 C866.795625 662.226875 806.59125 662.45375 744.5625 662.6875 C725.5366626 662.78764404 706.5108252 662.88778809 686.90844727 662.9909668 C663.7166748 663.04064941 663.7166748 663.04064941 652.86753845 663.04988098 C645.27255422 663.06015009 637.67845735 663.100544 630.08372498 663.16133118 C621.32608103 663.23132259 612.56928978 663.26320281 603.81136399 663.24789445 C599.33027334 663.24126311 594.85108859 663.25181556 590.37034714 663.31136644 C586.31649261 663.36491649 582.26588973 663.3675624 578.21188545 663.32991219 C576.74811941 663.32525363 575.28414916 663.33915908 573.8207835 663.37370837 C562.90424817 663.61625497 562.90424817 663.61625497 558.19951236 659.62305033 C555.89892454 656.8465967 553.92947266 654.04249603 552 651 C550.86198786 649.47037145 549.71447326 647.94768411 548.55078125 646.4375 C547.46842121 644.96047813 546.3890494 643.48126238 545.3125 642 C544.09767229 640.34113409 542.88282807 638.68228026 541.66796875 637.0234375 C540.44527576 635.34898516 539.22261902 633.67450635 538 632 C535.7118076 628.8724398 533.42008549 625.74750529 531.125 622.625 C530.55378418 621.84777588 529.98256836 621.07055176 529.39404297 620.26977539 C524.97355957 614.27528547 520.46675532 608.35006403 515.9375 602.4375 C510.47886853 595.31171312 505.1530859 588.11044913 499.93334961 580.80834961 C495.73104912 574.95378538 491.38612602 569.21777719 487 563.5 C481.51855382 556.35435763 476.17040274 549.13490259 470.93359375 541.80859375 C466.73110698 535.95402373 462.3861961 530.21786853 458 524.5 C453.06615518 518.06821368 448.21404065 511.59466151 443.5 505 C438.80207711 498.4302199 433.97404325 491.97410895 429.0625 485.5625 C422.17056512 476.5656554 415.41099134 467.48051484 408.71337891 458.33837891 C405.83461373 454.40950845 402.94969924 450.48517558 400.0625 446.5625 C399.48741699 445.78116699 398.91233398 444.99983398 398.31982422 444.19482422 C393.45316044 437.59345434 388.53323965 431.03286549 383.60351562 424.47851562 C379.38664566 418.86619749 375.21370656 413.22350439 371.0625 407.5625 C366.03632909 400.70986727 360.91754731 393.93407055 355.75 387.1875 C351.0050334 380.99201407 346.34531016 374.76192833 341.85961914 368.37670898 C338.10258642 363.06541608 334.14621107 357.91192156 330.1875 352.75 C325.19152737 346.23472973 320.27378549 339.67986262 315.5 333 C310.78616887 326.40519369 305.93383891 319.93177862 301 313.5 C295.51855382 306.35435763 290.17040274 299.13490259 284.93359375 291.80859375 C280.73110508 285.95402108 276.3861348 280.21791914 272 274.5 C264.0937956 264.19128417 256.20917769 253.81376653 249 243 C248.67 381.27 248.34 519.54 248 662 C166.16 662 84.32 662 0 662 C0 443.54 0 225.08 0 0 Z " fill="#282426" transform="translate(1027,2391)"/>
<path d="M0 0 C126.534375 -0.0928125 126.534375 -0.0928125 255.625 -0.1875 C282.21787598 -0.21481201 308.81075195 -0.24212402 336.20947266 -0.27026367 C368.79174805 -0.28381348 368.79174805 -0.28381348 384.06600952 -0.28633118 C395.38375309 -0.28929795 406.70144037 -0.3021692 418.0191663 -0.32002028 C429.60329733 -0.33804112 441.1873915 -0.34424069 452.77153596 -0.34033485 C459.03943571 -0.33854485 465.30723385 -0.34117351 471.57511449 -0.35764539 C505.69637775 -0.44298401 539.47344422 0.56692904 573.3125 5.3125 C574.07608826 5.41671265 574.83967651 5.52092529 575.62640381 5.6282959 C643.2254106 14.87334025 715.90568358 31.28701899 768 78 C768.66128906 78.58910156 769.32257812 79.17820312 770.00390625 79.78515625 C789.25250929 97.96191132 801.53258251 124.17899558 802.30078125 150.62890625 C802.32027182 152.94002528 802.32372864 155.25132606 802.3125 157.5625 C802.30404053 159.40231445 802.30404053 159.40231445 802.29541016 161.27929688 C801.7425692 203.03247318 783.2019729 239.27375274 753.97509766 268.32763672 C740.07634702 281.78450773 723.51557476 291.96283115 706 300 C705.38012207 300.28504395 704.76024414 300.57008789 704.12158203 300.86376953 C694.01038323 305.4206645 683.83919458 307.88927482 673 310 C677.88270714 311.6649064 682.7703727 313.24592392 687.72265625 314.69140625 C721.2628521 324.53296952 753.5295441 338.69797746 780 362 C780.99515625 362.86238281 781.9903125 363.72476563 783.015625 364.61328125 C807.6206718 386.27608409 823.32147436 416.25286399 826 449 C828.33386567 491.62518142 819.49995838 536.27774091 792 570 C791.55140625 570.5554248 791.1028125 571.11084961 790.640625 571.68310547 C774.15871611 591.97419179 754.25382052 607.12304866 731 619 C730.19755859 619.4134668 729.39511719 619.82693359 728.56835938 620.25292969 C665.60869806 652.37470199 590.8298637 659.91094123 521.13174438 661.54759216 C520.23878574 661.56889505 519.3458271 661.59019794 518.4258091 661.61214637 C495.9664248 662.13431158 473.50883378 662.13656162 451.04456136 662.11607273 C444.87749437 662.11161923 438.71042792 662.11317292 432.54335976 662.11389065 C421.98207989 662.1143572 411.42080551 662.11134565 400.85952759 662.10557556 C385.7140492 662.09731581 370.56857704 662.09546699 355.4230957 662.09460449 C319.07372927 662.08937957 282.72436451 662.0754183 246.375 662.0625 C165.07125 662.041875 83.7675 662.02125 0 662 C0 443.54 0 225.08 0 0 Z M258 129 C258 161.34 258 193.68 258 227 C294.09374018 227.08743568 294.09374018 227.08743568 330.1875 227.14648438 C344.91116478 227.16426964 359.63477798 227.18515254 374.35839844 227.22631836 C385.08260112 227.25628782 395.80676186 227.27559091 406.53100526 227.28226548 C412.2055947 227.28616496 417.88006416 227.2952835 423.55461502 227.31719017 C428.90451986 227.33767463 434.25425622 227.34380977 439.60419655 227.33932304 C441.559195 227.34014292 443.51419956 227.34603683 445.46916389 227.35761642 C464.74042726 227.46608679 482.14140546 224.93986848 498 213 C498.62648438 212.53851562 499.25296875 212.07703125 499.8984375 211.6015625 C508.28863951 204.97000545 514.30608952 194.56297006 516 184 C517.17739495 170.70122748 513.37916492 160.25910576 505 150 C504.49984375 149.37480469 503.9996875 148.74960938 503.484375 148.10546875 C491.29291146 134.46703858 472.4088849 130.30856774 455 129 C448.33249957 128.68596882 441.65905547 128.74532779 434.98608398 128.77294922 C433.0427145 128.77351491 431.09934458 128.7731937 429.15597534 128.77206421 C423.93603565 128.77149585 418.71618991 128.78316549 413.49627185 128.79721212 C408.02039248 128.80980659 402.5445104 128.8108968 397.06861877 128.81326294 C386.72416035 128.81945229 376.37974474 128.8358283 366.03530508 128.85596192 C352.03925372 128.88260515 338.04319046 128.89331414 324.04712009 128.90496635 C302.03138139 128.92371101 280.015733 128.96357356 258 129 Z M257 383 C257 422.93 257 462.86 257 504 C292.7451073 504.08748789 292.7451073 504.08748789 328.49023438 504.14648438 C343.07937811 504.16424433 357.66846963 504.18505555 372.25756836 504.22631836 C382.88551892 504.25636322 393.5134269 504.27560858 404.14141876 504.28226548 C409.76089971 504.28615235 415.38025889 504.29518881 420.99970055 504.31719017 C426.3061264 504.33779454 431.61238216 504.34378626 436.91884422 504.33932304 C438.84993927 504.34013767 440.78104096 504.34595887 442.71210098 504.35761642 C471.77104038 504.52419951 500.83771116 500.44269044 523.34375 480.62890625 C533.34295266 470.73263656 540.02966033 458.24914238 540.3125 444.0625 C540.32875124 429.2485907 534.35355638 417.38279028 524.25 406.75 C500.97019903 384.55869651 470.34823078 382.65106739 440.00292969 382.77294922 C437.99015305 382.7735152 435.97737601 382.77319314 433.96459961 382.77206421 C428.56922444 382.77149697 423.17394058 382.78314781 417.77858639 382.79721212 C412.11454179 382.80982592 406.45049446 382.81089829 400.78643799 382.81326294 C390.09146202 382.81944672 379.39652758 382.83581499 368.7015698 382.85596192 C354.22776475 382.8826279 339.75394813 382.89331866 325.28012466 382.90496635 C302.52005208 382.92369826 279.76006708 382.96356446 257 383 Z " fill="#292426" transform="translate(2035,2391)"/>
<path d="M0 0 C0.74944885 0.00966797 1.49889771 0.01933594 2.27105713 0.02929688 C83.32778075 1.12026587 165.20255076 10.32928745 293 54 C294.06718262 54.4861377 295.13436523 54.97227539 296.23388672 55.47314453 C354.52086474 82.26543753 411.23063143 124.80873583 434.97802734 186.54248047 C441.20194367 203.46815339 444 217.73895846 444 236 C353.25 236 262.5 236 169 236 C167.02 231.05 165.04 226.1 163 221 C158.92826074 212.67555529 154.16319465 205.90720184 148 199 C147.26136719 198.16597656 146.52273438 197.33195312 145.76171875 196.47265625 C138.74681869 189.00974576 130.63842258 183.40635971 122 178 C121.41154297 177.63132812 120.82308594 177.26265625 120.21679688 176.8828125 C90.39035088 158.66505214 51.57266577 151.95263378 17.015625 151.796875 C15.99813171 151.79117493 14.98063843 151.78547485 13.93231201 151.77960205 C11.78773007 151.77021738 9.64313413 151.76364433 7.49853516 151.75976562 C4.29953097 151.7501489 1.10119541 151.71909847 -2.09765625 151.6875 C-20.37739093 151.59265481 -38.52659585 153.01964083 -56.25 157.75 C-57.73681274 158.13841064 -57.73681274 158.13841064 -59.25366211 158.53466797 C-86.66855837 165.90315081 -112.31551189 178.3802999 -132.890625 198.1640625 C-135 200 -135 200 -137 200 C-137.25136719 200.58523437 -137.50273437 201.17046875 -137.76171875 201.7734375 C-139.1575624 204.28331409 -140.68172992 205.70374905 -142.8125 207.625 C-177.55907586 241.70122392 -193.34983016 296.2858503 -194.35375977 343.68847656 C-194.72829716 400.97978314 -175.12221774 455.96730586 -136 498 C-135.33742188 498.72832031 -134.67484375 499.45664063 -133.9921875 500.20703125 C-100.60597587 535.43392755 -49.94169249 548.68606699 -2.984375 550.1875 C32.92809243 550.88688064 70.54272415 546.10383535 103 530 C103.63728027 529.68949707 104.27456055 529.37899414 104.93115234 529.05908203 C127.05148184 518.18394376 145.94268716 501.6146213 158 480 C158.54527344 479.03320312 159.09054687 478.06640625 159.65234375 477.0703125 C164.06215054 468.78930127 166.09448822 461.29763769 169 452 C259.75 452 350.5 452 444 452 C444 467.2706448 444 467.2706448 442.5 473.5625 C442.23932739 474.68386353 442.23932739 474.68386353 441.97338867 475.82788086 C434.66714773 505.21398936 417.59567158 531.28488058 397.37109375 553.3828125 C396.0416365 554.85025296 394.72039678 556.32561663 393.43041992 557.82788086 C389.33170886 562.5990412 385.03979343 567.02668196 380.4375 571.3125 C379.74277588 571.96057617 379.04805176 572.60865234 378.33227539 573.27636719 C372.38211742 578.76256861 366.20414745 583.85020028 359.72998047 588.70263672 C357.99989509 590.00007868 356.28319893 591.31394717 354.56640625 592.62890625 C280.3674116 648.84899285 186.11258281 673.10551768 72.38562012 686.77996826 C70.00675115 686.99937732 67.6289202 687.22832528 65.25097656 687.45751953 C8.46064536 692.80102286 -51.26576547 693.12772268 -108 687 C-109.6663243 686.82649834 -111.33266586 686.65316231 -112.99902344 686.47998047 C-186.7708961 678.68424784 -260.61857836 660.91098979 -326 625 C-327.27061279 624.30583984 -327.27061279 624.30583984 -328.56689453 623.59765625 C-352.41148806 610.50198367 -374.47731585 594.83960723 -395 577 C-395.68964844 576.41089844 -396.37929687 575.82179688 -397.08984375 575.21484375 C-414.91235779 559.87919214 -414.91235779 559.87919214 -422.25390625 551.0546875 C-424.45267423 548.46732294 -426.79363847 546.03100044 -429.125 543.5625 C-446.98756343 524.23291819 -462.05669366 501.40236166 -474 478 C-474.7108374 476.61506348 -474.7108374 476.61506348 -475.43603516 475.20214844 C-490.3900315 445.79342239 -500.75132274 414.59303937 -506 382 C-506.11182617 381.30729004 -506.22365234 380.61458008 -506.33886719 379.90087891 C-517.62062183 307.92186073 -491.16649736 235.81544972 -449.51171875 177.7578125 C-444.75588343 171.24595623 -439.72085767 164.98431564 -434.52636719 158.81884766 C-433.08731544 157.10404671 -431.67054032 155.373218 -430.2578125 153.63671875 C-418.77963192 139.70185511 -405.77306171 126.66375326 -392 115 C-391.36513672 114.45835205 -390.73027344 113.9167041 -390.07617188 113.35864258 C-366.32319332 93.21933953 -340.59610618 76.40462097 -313 62 C-312.28682617 61.62681641 -311.57365234 61.25363281 -310.83886719 60.86914062 C-306.26649325 58.49266543 -301.64994484 56.22042561 -297 54 C-296.21286621 53.62166016 -295.42573242 53.24332031 -294.61474609 52.85351562 C-279.42362982 45.60102037 -263.8911825 39.53827762 -248 34 C-246.89446777 33.61457031 -245.78893555 33.22914063 -244.64990234 32.83203125 C-166.11501239 5.80431402 -82.5518682 -1.12922669 0 0 Z " fill="#282425" transform="translate(3392,2379)"/>
<path d="M0 0 C0.53044922 0.42893555 1.06089844 0.85787109 1.60742188 1.29980469 C16.98417227 13.80586611 31.50399644 27.80191997 43 44 C43.63276855 44.89017822 43.63276855 44.89017822 44.27832031 45.79833984 C63.23068018 72.76569998 77 103.52455045 77 137 C-14.08 137 -105.16 137 -199 137 C-201.475 130.565 -201.475 130.565 -204 124 C-216.92801585 96.02319268 -242.16845541 77.75100238 -270.4375 67.25 C-283.22768892 62.6860487 -296.06394381 59.19039446 -309.4375 56.8125 C-310.73929199 56.5801062 -310.73929199 56.5801062 -312.06738281 56.34301758 C-328.39122288 53.60997946 -344.5669338 52.64960939 -361.10498047 52.68432617 C-364.23310375 52.68748295 -367.36027395 52.66392542 -370.48828125 52.63867188 C-388.5612741 52.58116762 -406.59646889 54.04621101 -424.125 58.6875 C-425.10960205 58.94313721 -426.0942041 59.19877441 -427.10864258 59.4621582 C-456.26919029 67.30956637 -482.16739918 81.07557725 -504 102 C-504.86753906 102.804375 -505.73507812 103.60875 -506.62890625 104.4375 C-539.02871191 135.40858023 -556.61004737 182.10047365 -561 226 C-561.11085938 227.04671875 -561.22171875 228.0934375 -561.3359375 229.171875 C-566.3859498 284.03957617 -550.14819492 343.81495826 -515.05859375 386.6171875 C-482.16130002 426.04959831 -437.23079785 445.30221533 -386.71875 450.46484375 C-383.14034138 450.74878269 -379.58845551 450.91163332 -376 451 C-375.29907227 451.02046387 -374.59814453 451.04092773 -373.87597656 451.06201172 C-321.93524379 452.41126648 -267.88924753 442.60930839 -229 406 C-227.98486328 405.09894531 -227.98486328 405.09894531 -226.94921875 404.1796875 C-212.34387868 390.65730852 -204.77799395 371.48958066 -199 353 C-107.92 353 -16.84 353 77 353 C73.66415125 403.03773121 43.89734392 444.64533318 7.3125 477.375 C5.8836953 478.59360282 4.44480124 479.80040629 3 481 C2.50999512 481.40911621 2.01999023 481.81823242 1.51513672 482.23974609 C-69.33033711 541.09177766 -160.40064822 568.7707996 -295.61437988 587.77996826 C-297.99324885 587.99937732 -300.3710798 588.22832528 -302.74902344 588.45751953 C-330.42473123 591.06159254 -358.13059471 591.31580824 -385.90566635 591.36836243 C-388.68938568 591.37485855 -391.47304629 591.38629685 -394.25674438 591.39880371 C-480.17878615 591.73348405 -567.31707225 580.25438612 -716 513 C-716.65677734 512.58331055 -717.31355469 512.16662109 -717.99023438 511.73730469 C-734.21574859 501.37332002 -749.65503782 489.83829005 -764 477 C-764.94359375 476.16726563 -765.8871875 475.33453125 -766.859375 474.4765625 C-780.10476151 462.58498622 -793.12561699 450.1204675 -804 436 C-804.9445638 434.84100936 -805.89274893 433.68496445 -806.84375 432.53125 C-840.7881338 391.19518306 -863.42264043 340.51501042 -873 288 C-873.26248535 286.63246582 -873.26248535 286.63246582 -873.53027344 285.23730469 C-886.62791497 214.8212715 -861.12571632 143.0007394 -821.703125 85.32421875 C-817.62151472 79.4247916 -813.46707189 73.61649389 -809 68 C-808.26652344 67.07574219 -807.53304687 66.15148438 -806.77734375 65.19921875 C-802.42476531 59.80142421 -797.90988814 54.58046886 -793.23828125 49.45703125 C-791.76541193 47.84021658 -790.30407575 46.212807 -788.85546875 44.57421875 C-780.48815213 35.1214124 -771.65517684 26.14270834 -762 18 C-761.11699219 17.22785156 -760.23398437 16.45570313 -759.32421875 15.66015625 C-736.04132284 -4.5899815 -710.15797468 -21.441228 -683 -36 C-682.06671875 -36.50096191 -681.1334375 -37.00192383 -680.171875 -37.51806641 C-620.01964723 -69.45316661 -552.29002525 -86.13777268 -485 -94 C-484.33667664 -94.07778687 -483.67335327 -94.15557373 -482.9899292 -94.23571777 C-393.20530169 -104.64980961 -300.04127117 -100.18234037 0 0 Z " fill="#282425" transform="translate(880,2478)"/>
</svg>
